<?xml version="1.0" encoding="utf-8"?>
<!-- Generator: Adobe Illustrator 23.1.1, SVG Export Plug-In . SVG Version: 6.00 Build 0)  -->
<svg version="1.1" id="Layer_1" xmlns="http://www.w3.org/2000/svg" xmlns:xlink="http://www.w3.org/1999/xlink" x="0px" y="0px"
	 viewBox="0 0 611.3 202.5" style="enable-background:new 0 0 611.3 202.5;" xml:space="preserve">
<style type="text/css">
	.st0{stroke:#000000;stroke-miterlimit:10;}
	.st1{fill:#03FFFF;}
	.st2{fill:url(#SVGID_1_);}
	.st3{fill:url(#SVGID_2_);}
	.st4{fill:url(#SVGID_3_);}
	.st5{fill:url(#SVGID_4_);}
	.st6{fill:#FFFFFF;}
	.st7{font-family:'Ubuntu-Bold';}
	.st8{font-size:26.42px;}
	.st9{fill:url(#SVGID_5_);}
	.st10{fill:url(#SVGID_6_);}
	.st11{fill:url(#SVGID_7_);}
	.st12{fill:url(#SVGID_8_);}
	.st13{fill:url(#SVGID_9_);}
	.st14{fill:url(#SVGID_10_);}
	.st15{fill:url(#SVGID_11_);}
	.st16{fill:url(#SVGID_12_);}
	.st17{fill:url(#SVGID_13_);}
	.st18{fill:url(#SVGID_14_);}
	.st19{fill:url(#SVGID_15_);}
	.st20{fill:url(#SVGID_16_);}
	.st21{fill:url(#SVGID_17_);}
	.st22{fill:#03FFFF;stroke:#03FFFF;stroke-width:0.57;stroke-miterlimit:10;}
	.st23{fill:url(#SVGID_18_);}
	.st24{fill:url(#SVGID_19_);}
	.st25{fill:url(#SVGID_20_);}
	.st26{fill:url(#SVGID_21_);}
	.st27{fill:url(#SVGID_22_);}
	.st28{fill:url(#SVGID_23_);}
	.st29{fill:url(#SVGID_24_);}
	.st30{fill:url(#SVGID_25_);}
	.st31{fill:url(#SVGID_26_);}
	.st32{fill:url(#SVGID_27_);}
	.st33{fill:url(#SVGID_28_);}
	.st34{fill:url(#SVGID_29_);}
</style>
<rect x="-2" y="-3" class="st0" width="614" height="208"/>
<title>vvl_bc_svg</title>
<path class="st1" d="M356.1,103.3c-3-0.1-5.9-0.6-8.8-1.4l-0.5-0.2l0.2-8.8l0.8,0.2c0.2,0,2.1,0.6,5,1.6c3.8,1.2,4.9-0.8,5-0.9
	c0.2-0.7,0.1-1.4-0.2-2.1c-0.6-1.1-2-2-4.1-2.6c-6.4-1.7-7.3-6.3-7.4-7s-1.3-5.1,4.1-9.4c5.6-4.4,16.4-1.7,16.8-1.6l0.6,0.2
	l-0.4,4.7l-0.8-0.2c0,0-5.1-1.1-8.8-0.4c-2.5,0.4-4.3,1.4-5.2,2.7c-0.6,1-0.8,2.1-0.5,3.2c0.3,1.1,2,2.6,3.8,3.4
	c1.7,0.7,3.3,1.5,3.9,1.9l2.8-1.4c-0.9-0.5-1.8-1-2.8-1.4l-0.7-0.3c-1.1-0.4-2.1-0.9-3-1.5c-0.9-0.5-1.3-1.5-1.2-2.5
	c0.2-0.8,0.9-1.9,3.5-2.5c2.4-0.3,4.9-0.1,7.3,0.6l-0.4,0.6h-0.7h0.7l-0.2,0.7c-0.4-0.1-4.1-1-6.2-0.5c-1.6,0.4-2.3,1-2.4,1.4
	s0.4,0.8,0.6,1c0.9,0.5,1.8,1,2.7,1.3l0.7,0.3c3.2,1.3,4,2.2,4.1,2.4l0.5,0.7l-5.3,2.6l-0.3-0.2c0,0-2.1-1.1-4.1-2s-4.3-2.6-4.7-4.4
	c-0.4-1.5-0.2-3.1,0.7-4.4c1.4-2.1,4.1-3,6.1-3.4c2.8-0.4,5.7-0.3,8.6,0.3l0.1-1.9c-2.3-0.5-10.6-2-15,1.5c-4.9,3.9-3.7,7.7-3.6,7.9
	v0.2c0,0.2,0.6,4.2,6.3,5.8c2.5,0.7,4.2,1.8,5,3.4c0.5,1,0.6,2.2,0.2,3.3c0,0.1-1.6,3.4-6.7,1.7c-2.1-0.7-3.3-1.1-4-1.3l-0.2,5.9
	c2.8,0.8,5.7,1.2,8.6,1.2c2-0.1,5.6-0.8,8-3.5c1.2-1.6,1.7-3.5,1.6-5.4c-0.1-1.4-0.5-2.7-1-4l-2.7,1.6c0.4,1.2,1,3.9,0.1,5.8
	c-0.7,1.5-2,2.7-3.6,3.1c-2.9,0.8-5.9,0.6-8.7-0.5l0.7-1.3c2.4,0.9,5.1,1,7.5,0.4c1.2-0.4,2.3-1.2,2.8-2.4c0.8-1.6,0-4.3-0.4-5.2
	l-0.2-0.6l5-2.9l0.4,0.6c0.9,1.6,1.4,3.4,1.6,5.2c0.2,2.3-0.5,4.7-1.9,6.5c-2.7,3.1-6.8,3.8-9,4L356.1,103.3z"/>
<circle class="st1" cx="351.4" cy="98.5" r="1.5"/>
<circle class="st1" cx="365.2" cy="78.3" r="1.5"/>
<linearGradient id="SVGID_1_" gradientUnits="userSpaceOnUse" x1="249.0779" y1="65.2177" x2="164.6279" y2="142.8077" gradientTransform="matrix(1 0 0 -1 0 204)">
	<stop  offset="0" style="stop-color:#77FF8D"/>
	<stop  offset="5.000000e-02" style="stop-color:#65FF9F"/>
	<stop  offset="0.19" style="stop-color:#35FFCE"/>
	<stop  offset="0.23" style="stop-color:#28FFDB"/>
	<stop  offset="0.3" style="stop-color:#13FFEF"/>
	<stop  offset="0.37" style="stop-color:#07FFFB"/>
	<stop  offset="0.44" style="stop-color:#03FFFF"/>
	<stop  offset="0.67" style="stop-color:#02B6E9"/>
	<stop  offset="0.89" style="stop-color:#0076D6"/>
	<stop  offset="1" style="stop-color:#005DCF"/>
</linearGradient>
<path class="st2" d="M233.4,83.5c-0.9-0.1-1.8,0.6-1.9,1.6c-0.1,0.9,0.6,1.8,1.6,1.9c0.9,0.1,1.8-0.6,1.9-1.6c0-0.1,0-0.1,0-0.2
	C235.1,84.3,234.4,83.6,233.4,83.5C233.5,83.5,233.5,83.5,233.4,83.5z M233.4,83.5c-0.9-0.1-1.8,0.6-1.9,1.6
	c-0.1,0.9,0.6,1.8,1.6,1.9c0.9,0.1,1.8-0.6,1.9-1.6c0-0.1,0-0.1,0-0.2C235.1,84.3,234.4,83.6,233.4,83.5
	C233.5,83.5,233.5,83.5,233.4,83.5z M233.4,83.5c-0.9-0.1-1.8,0.6-1.9,1.6c-0.1,0.9,0.6,1.8,1.6,1.9c0.9,0.1,1.8-0.6,1.9-1.6
	c0-0.1,0-0.1,0-0.2C235.1,84.3,234.4,83.6,233.4,83.5C233.5,83.5,233.5,83.5,233.4,83.5z M233.4,83.5c-0.9-0.1-1.8,0.6-1.9,1.6
	c-0.1,0.9,0.6,1.8,1.6,1.9c0.9,0.1,1.8-0.6,1.9-1.6c0-0.1,0-0.1,0-0.2C235.1,84.3,234.4,83.6,233.4,83.5
	C233.5,83.5,233.5,83.5,233.4,83.5z M233.4,83.5c-0.9-0.1-1.8,0.6-1.9,1.6c-0.1,0.9,0.6,1.8,1.6,1.9c0.9,0.1,1.8-0.6,1.9-1.6
	c0-0.1,0-0.1,0-0.2C235.1,84.3,234.4,83.6,233.4,83.5C233.5,83.5,233.5,83.5,233.4,83.5z M233.4,83.5c-0.9-0.1-1.8,0.6-1.9,1.6
	c-0.1,0.9,0.6,1.8,1.6,1.9c0.9,0.1,1.8-0.6,1.9-1.6c0-0.1,0-0.1,0-0.2C235.1,84.3,234.4,83.6,233.4,83.5
	C233.5,83.5,233.5,83.5,233.4,83.5z M233.4,83.5c-0.9-0.1-1.8,0.6-1.9,1.6c-0.1,0.9,0.6,1.8,1.6,1.9c0.9,0.1,1.8-0.6,1.9-1.6
	c0-0.1,0-0.1,0-0.2C235.1,84.3,234.4,83.6,233.4,83.5C233.5,83.5,233.5,83.5,233.4,83.5z M233.4,83.5c-0.9-0.1-1.8,0.6-1.9,1.6
	c-0.1,0.9,0.6,1.8,1.6,1.9c0.9,0.1,1.8-0.6,1.9-1.6c0-0.1,0-0.1,0-0.2C235.1,84.3,234.4,83.6,233.4,83.5
	C233.5,83.5,233.5,83.5,233.4,83.5z M233.4,83.5c-0.9-0.1-1.8,0.6-1.9,1.6c-0.1,0.9,0.6,1.8,1.6,1.9c0.9,0.1,1.8-0.6,1.9-1.6
	c0-0.1,0-0.1,0-0.2C235.1,84.3,234.4,83.6,233.4,83.5C233.5,83.5,233.5,83.5,233.4,83.5z M208,114.3c-0.2-0.2-0.5-0.3-0.8-0.3
	c-0.2,0-0.4,0-0.6,0.1c-0.2,0.1-0.4,0.3-0.6,0.5l0,0c-0.2,0.3-0.3,0.6-0.3,1c-0.1,0.9,0.6,1.7,1.5,1.7c0.3,0,0.6-0.1,0.9-0.3
	c0.4-0.3,0.6-0.9,0.6-1.4C208.7,115.1,208.4,114.6,208,114.3z M207.8,116.9c-0.2,0.1-0.4,0.2-0.6,0.2c-0.7-0.1-1.2-0.7-1.2-1.4
	c0-0.3,0.1-0.6,0.3-0.9l0,0c0.1-0.2,0.3-0.3,0.4-0.4l0,0c0.1-0.1,0.3-0.1,0.4-0.1c0.2,0,0.4,0.1,0.6,0.2c0.7,0.5,0.8,1.4,0.3,2.1
	C208,116.8,207.9,116.9,207.8,116.9L207.8,116.9z M208,114.3c-0.2-0.2-0.5-0.3-0.8-0.3c-0.2,0-0.4,0-0.6,0.1
	c-0.2,0.1-0.4,0.3-0.6,0.5l0,0c-0.2,0.3-0.3,0.6-0.3,1c-0.1,0.9,0.6,1.7,1.5,1.7c0.3,0,0.6-0.1,0.9-0.3c0.4-0.3,0.6-0.9,0.6-1.4
	C208.7,115.1,208.4,114.6,208,114.3z M207.8,116.9c-0.2,0.1-0.4,0.2-0.6,0.2c-0.7-0.1-1.2-0.7-1.2-1.4c0-0.3,0.1-0.6,0.3-0.9l0,0
	c0.1-0.2,0.3-0.3,0.4-0.4l0,0c0.1-0.1,0.3-0.1,0.4-0.1c0.2,0,0.4,0.1,0.6,0.2c0.7,0.5,0.8,1.4,0.3,2.1
	C208,116.8,207.9,116.9,207.8,116.9L207.8,116.9z M233.5,83.5c-0.9-0.1-1.8,0.6-1.9,1.5s0.6,1.8,1.5,1.9c0.9,0.1,1.8-0.6,1.9-1.5
	c0-0.1,0-0.1,0-0.2C235.1,84.3,234.4,83.6,233.5,83.5C233.5,83.5,233.5,83.5,233.5,83.5L233.5,83.5z M233.5,83.5
	c-0.9-0.1-1.8,0.6-1.9,1.5s0.6,1.8,1.5,1.9c0.9,0.1,1.8-0.6,1.9-1.5c0-0.1,0-0.1,0-0.2C235.1,84.3,234.4,83.6,233.5,83.5
	C233.5,83.5,233.5,83.5,233.5,83.5L233.5,83.5z M208,114.3c-0.2-0.2-0.5-0.3-0.8-0.3c-0.2,0-0.4,0-0.6,0.1c-0.2,0.1-0.4,0.3-0.6,0.5
	l0,0c-0.2,0.3-0.3,0.6-0.3,1c-0.1,0.9,0.6,1.7,1.5,1.7c0.3,0,0.6-0.1,0.9-0.3c0.4-0.3,0.6-0.9,0.6-1.4
	C208.7,115.1,208.4,114.6,208,114.3z M207.8,116.9c-0.2,0.1-0.4,0.2-0.6,0.2c-0.7-0.1-1.2-0.7-1.2-1.4c0-0.3,0.1-0.6,0.3-0.9l0,0
	c0.1-0.2,0.3-0.3,0.4-0.4l0,0c0.1-0.1,0.3-0.1,0.4-0.1c0.2,0,0.4,0.1,0.6,0.2c0.7,0.5,0.8,1.4,0.3,2.1
	C208,116.8,207.9,116.9,207.8,116.9L207.8,116.9z M208,114.3c-0.2-0.2-0.5-0.3-0.8-0.3c-0.2,0-0.4,0-0.6,0.1
	c-0.2,0.1-0.4,0.3-0.6,0.5l0,0c-0.2,0.3-0.3,0.6-0.3,1c-0.1,0.9,0.6,1.7,1.5,1.7c0.3,0,0.6-0.1,0.9-0.3c0.4-0.3,0.6-0.9,0.6-1.4
	C208.7,115.1,208.4,114.6,208,114.3z M207.8,116.9c-0.2,0.1-0.4,0.2-0.6,0.2c-0.7-0.1-1.2-0.7-1.2-1.4c0-0.3,0.1-0.6,0.3-0.9l0,0
	c0.1-0.2,0.3-0.3,0.4-0.4l0,0c0.1-0.1,0.3-0.1,0.4-0.1c0.2,0,0.4,0.1,0.6,0.2c0.7,0.5,0.8,1.4,0.3,2.1
	C208,116.8,207.9,116.9,207.8,116.9L207.8,116.9z M233.5,83.5c-0.9-0.1-1.8,0.6-1.9,1.5s0.6,1.8,1.5,1.9c0.9,0.1,1.8-0.6,1.9-1.5
	c0-0.1,0-0.1,0-0.2C235.1,84.3,234.4,83.6,233.5,83.5C233.5,83.5,233.5,83.5,233.5,83.5L233.5,83.5z M233.5,83.5
	c-0.9-0.1-1.8,0.6-1.9,1.5s0.6,1.8,1.5,1.9c0.9,0.1,1.8-0.6,1.9-1.5c0-0.1,0-0.1,0-0.2C235.1,84.3,234.4,83.6,233.5,83.5
	C233.5,83.5,233.5,83.5,233.5,83.5L233.5,83.5z M208,114.3c-0.2-0.2-0.5-0.3-0.8-0.3c-0.2,0-0.4,0-0.6,0.1c-0.2,0.1-0.4,0.3-0.6,0.5
	l0,0c-0.2,0.3-0.3,0.6-0.3,1c-0.1,0.9,0.6,1.7,1.5,1.7c0.3,0,0.6-0.1,0.9-0.3c0.4-0.3,0.6-0.9,0.6-1.4
	C208.7,115.1,208.4,114.6,208,114.3z M207.8,116.9c-0.2,0.1-0.4,0.2-0.6,0.2c-0.7-0.1-1.2-0.7-1.2-1.4c0-0.3,0.1-0.6,0.3-0.9l0,0
	c0.1-0.2,0.3-0.3,0.4-0.4l0,0c0.1-0.1,0.3-0.1,0.4-0.1c0.2,0,0.4,0.1,0.6,0.2c0.7,0.5,0.8,1.4,0.3,2.1
	C208,116.8,207.9,116.9,207.8,116.9L207.8,116.9z M208,114.3c-0.2-0.2-0.5-0.3-0.8-0.3c-0.2,0-0.4,0-0.6,0.1
	c-0.2,0.1-0.4,0.3-0.6,0.5l0,0c-0.2,0.3-0.3,0.6-0.3,1c-0.1,0.9,0.6,1.7,1.5,1.7c0.3,0,0.6-0.1,0.9-0.3c0.4-0.3,0.6-0.9,0.6-1.4
	C208.7,115.1,208.4,114.6,208,114.3z M207.8,116.9c-0.2,0.1-0.4,0.2-0.6,0.2c-0.7-0.1-1.2-0.7-1.2-1.4c0-0.3,0.1-0.6,0.3-0.9l0,0
	c0.1-0.2,0.3-0.3,0.4-0.4l0,0c0.1-0.1,0.3-0.1,0.4-0.1c0.2,0,0.4,0.1,0.6,0.2c0.7,0.5,0.8,1.4,0.3,2.1
	C208,116.8,207.9,116.9,207.8,116.9L207.8,116.9z M233.5,83.5c-0.9-0.1-1.8,0.6-1.9,1.5s0.6,1.8,1.5,1.9c0.9,0.1,1.8-0.6,1.9-1.5
	c0-0.1,0-0.1,0-0.2C235.1,84.3,234.4,83.6,233.5,83.5C233.5,83.5,233.5,83.5,233.5,83.5L233.5,83.5z M233.5,83.5
	c-0.9-0.1-1.8,0.6-1.9,1.5s0.6,1.8,1.5,1.9c0.9,0.1,1.8-0.6,1.9-1.5c0-0.1,0-0.1,0-0.2C235.1,84.3,234.4,83.6,233.5,83.5
	C233.5,83.5,233.5,83.5,233.5,83.5L233.5,83.5z M208,114.3c-0.2-0.2-0.5-0.3-0.8-0.3c-0.2,0-0.4,0-0.6,0.1c-0.2,0.1-0.4,0.3-0.6,0.5
	l0,0c-0.2,0.3-0.3,0.6-0.3,1c-0.1,0.9,0.6,1.7,1.5,1.7c0.3,0,0.6-0.1,0.9-0.3c0.4-0.3,0.6-0.9,0.6-1.4
	C208.7,115.1,208.4,114.6,208,114.3z M207.8,116.9c-0.2,0.1-0.4,0.2-0.6,0.2c-0.7-0.1-1.2-0.7-1.2-1.4c0-0.3,0.1-0.6,0.3-0.9l0,0
	c0.1-0.2,0.3-0.3,0.4-0.4l0,0c0.1-0.1,0.3-0.1,0.4-0.1c0.2,0,0.4,0.1,0.6,0.2c0.7,0.5,0.8,1.4,0.3,2.1
	C208,116.8,207.9,116.9,207.8,116.9L207.8,116.9z M181.4,83.5c-0.9-0.1-1.8,0.6-1.9,1.5c-0.1,0.9,0.6,1.8,1.5,1.9
	c0.9,0.1,1.8-0.6,1.9-1.5c0-0.1,0-0.1,0-0.2C182.9,84.4,182.2,83.6,181.4,83.5z M181.4,83.5c-0.9-0.1-1.8,0.6-1.9,1.5
	c-0.1,0.9,0.6,1.8,1.5,1.9c0.9,0.1,1.8-0.6,1.9-1.5c0-0.1,0-0.1,0-0.2C182.9,84.4,182.2,83.6,181.4,83.5z M208,114.3
	c-0.2-0.2-0.5-0.3-0.8-0.3c-0.2,0-0.4,0-0.6,0.1c-0.2,0.1-0.4,0.3-0.6,0.5l0,0c-0.2,0.3-0.3,0.6-0.3,1c-0.1,0.9,0.6,1.7,1.5,1.7
	c0.3,0,0.6-0.1,0.9-0.3c0.4-0.3,0.6-0.9,0.6-1.4C208.7,115.1,208.4,114.6,208,114.3z M207.8,116.9c-0.2,0.1-0.4,0.2-0.6,0.2
	c-0.7-0.1-1.2-0.7-1.2-1.4c0-0.3,0.1-0.6,0.3-0.9l0,0c0.1-0.2,0.3-0.3,0.4-0.4l0,0c0.1-0.1,0.3-0.1,0.4-0.1c0.2,0,0.4,0.1,0.6,0.2
	c0.7,0.5,0.8,1.4,0.3,2.1C208,116.8,207.9,116.9,207.8,116.9L207.8,116.9z M233.5,83.5c-0.9-0.1-1.8,0.6-1.9,1.5s0.6,1.8,1.5,1.9
	c0.9,0.1,1.8-0.6,1.9-1.5c0-0.1,0-0.1,0-0.2C235.1,84.3,234.4,83.6,233.5,83.5C233.5,83.5,233.5,83.5,233.5,83.5L233.5,83.5z
	 M233.5,83.5c-0.9-0.1-1.8,0.6-1.9,1.5s0.6,1.8,1.5,1.9c0.9,0.1,1.8-0.6,1.9-1.5c0-0.1,0-0.1,0-0.2
	C235.1,84.3,234.4,83.6,233.5,83.5C233.5,83.5,233.5,83.5,233.5,83.5L233.5,83.5z M208,114.3c-0.2-0.2-0.5-0.3-0.8-0.3
	c-0.2,0-0.4,0-0.6,0.1c-0.2,0.1-0.4,0.3-0.6,0.5l0,0c-0.2,0.3-0.3,0.6-0.3,1c-0.1,0.9,0.6,1.7,1.5,1.7c0.3,0,0.6-0.1,0.9-0.3
	c0.4-0.3,0.6-0.9,0.6-1.4C208.7,115.1,208.4,114.6,208,114.3z M207.8,116.9c-0.2,0.1-0.4,0.2-0.6,0.2c-0.7-0.1-1.2-0.7-1.2-1.4
	c0-0.3,0.1-0.6,0.3-0.9l0,0c0.1-0.2,0.3-0.3,0.4-0.4l0,0c0.1-0.1,0.3-0.1,0.4-0.1c0.2,0,0.4,0.1,0.6,0.2c0.7,0.5,0.8,1.4,0.3,2.1
	C208,116.8,207.9,116.9,207.8,116.9L207.8,116.9z M181.4,83.5c-0.9-0.1-1.8,0.6-1.9,1.5c-0.1,0.9,0.6,1.8,1.5,1.9
	c0.9,0.1,1.8-0.6,1.9-1.5c0-0.1,0-0.1,0-0.2C182.9,84.4,182.2,83.6,181.4,83.5z M233.4,83.5c-0.9-0.1-1.8,0.6-1.9,1.6
	c-0.1,0.9,0.6,1.8,1.6,1.9s1.8-0.6,1.9-1.6c0-0.1,0-0.1,0-0.2C235.1,84.3,234.4,83.6,233.4,83.5C233.5,83.5,233.5,83.5,233.4,83.5
	L233.4,83.5z M208,114.3c-0.2-0.2-0.5-0.3-0.8-0.3c-0.2,0-0.4,0-0.6,0.1c-0.2,0.1-0.4,0.3-0.6,0.5l0,0c-0.2,0.3-0.3,0.6-0.3,1
	c-0.1,0.9,0.6,1.7,1.5,1.7c0.3,0,0.6-0.1,0.9-0.3c0.4-0.3,0.6-0.9,0.6-1.4C208.7,115.1,208.4,114.6,208,114.3z M207.8,116.9
	c-0.2,0.1-0.4,0.2-0.6,0.2c-0.7-0.1-1.2-0.7-1.2-1.4c0-0.3,0.1-0.6,0.3-0.9l0,0c0.1-0.2,0.3-0.3,0.4-0.4l0,0
	c0.1-0.1,0.3-0.1,0.4-0.1c0.2,0,0.4,0.1,0.6,0.2c0.7,0.5,0.8,1.4,0.3,2.1C208,116.8,207.9,116.9,207.8,116.9L207.8,116.9z
	 M181.4,83.5c-0.9-0.1-1.8,0.6-1.9,1.5c-0.1,0.9,0.6,1.8,1.5,1.9c0.9,0.1,1.8-0.6,1.9-1.5c0-0.1,0-0.1,0-0.2
	C182.9,84.4,182.2,83.6,181.4,83.5z M181.4,83.5c-0.9-0.1-1.8,0.6-1.9,1.5c-0.1,0.9,0.6,1.8,1.5,1.9c0.9,0.1,1.8-0.6,1.9-1.5
	c0-0.1,0-0.1,0-0.2C182.9,84.4,182.2,83.6,181.4,83.5z M208,114.3c-0.2-0.2-0.5-0.3-0.8-0.3c-0.2,0-0.4,0-0.6,0.1
	c-0.2,0.1-0.4,0.3-0.6,0.5l0,0c-0.2,0.3-0.3,0.6-0.3,1c-0.1,0.9,0.6,1.7,1.5,1.7c0.3,0,0.6-0.1,0.9-0.3c0.4-0.3,0.6-0.9,0.6-1.4
	C208.7,115.1,208.4,114.6,208,114.3z M207.8,116.9c-0.2,0.1-0.4,0.2-0.6,0.2c-0.7-0.1-1.2-0.7-1.2-1.4c0-0.3,0.1-0.6,0.3-0.9l0,0
	c0.1-0.2,0.3-0.3,0.4-0.4l0,0c0.1-0.1,0.3-0.1,0.4-0.1c0.2,0,0.4,0.1,0.6,0.2c0.7,0.5,0.8,1.4,0.3,2.1
	C208,116.8,207.9,116.9,207.8,116.9L207.8,116.9z M233.5,83.5c-0.9-0.1-1.8,0.6-1.9,1.5s0.6,1.8,1.5,1.9c0.9,0.1,1.8-0.6,1.9-1.5
	c0-0.1,0-0.1,0-0.2C235.1,84.3,234.4,83.6,233.5,83.5C233.5,83.5,233.5,83.5,233.5,83.5L233.5,83.5z M233.5,83.5
	c-0.9-0.1-1.8,0.6-1.9,1.5s0.6,1.8,1.5,1.9c0.9,0.1,1.8-0.6,1.9-1.5c0-0.1,0-0.1,0-0.2C235.1,84.3,234.4,83.6,233.5,83.5
	C233.5,83.5,233.5,83.5,233.5,83.5L233.5,83.5z M208,114.3c-0.2-0.2-0.5-0.3-0.8-0.3c-0.2,0-0.4,0-0.6,0.1c-0.2,0.1-0.4,0.3-0.6,0.5
	l0,0c-0.2,0.3-0.3,0.6-0.3,1c-0.1,0.9,0.6,1.7,1.5,1.7c0.3,0,0.6-0.1,0.9-0.3c0.4-0.3,0.6-0.9,0.6-1.4
	C208.7,115.1,208.4,114.6,208,114.3z M207.8,116.9c-0.2,0.1-0.4,0.2-0.6,0.2c-0.7-0.1-1.2-0.7-1.2-1.4c0-0.3,0.1-0.6,0.3-0.9l0,0
	c0.1-0.2,0.3-0.3,0.4-0.4l0,0c0.1-0.1,0.3-0.1,0.4-0.1c0.2,0,0.4,0.1,0.6,0.2c0.7,0.5,0.8,1.4,0.3,2.1
	C208,116.8,207.9,116.9,207.8,116.9L207.8,116.9z M181.4,83.5c-0.9-0.1-1.8,0.6-1.9,1.5c-0.1,0.9,0.6,1.8,1.5,1.9
	c0.9,0.1,1.8-0.6,1.9-1.5c0-0.1,0-0.1,0-0.2C182.9,84.4,182.2,83.6,181.4,83.5z M181.4,83.5c-0.9-0.1-1.8,0.6-1.9,1.5
	c-0.1,0.9,0.6,1.8,1.5,1.9c0.9,0.1,1.8-0.6,1.9-1.5c0-0.1,0-0.1,0-0.2C182.9,84.4,182.2,83.6,181.4,83.5z M208,114.3
	c-0.2-0.2-0.5-0.3-0.8-0.3c-0.2,0-0.4,0-0.6,0.1c-0.2,0.1-0.4,0.3-0.6,0.5l0,0c-0.2,0.3-0.3,0.6-0.3,1c-0.1,0.9,0.6,1.7,1.5,1.7
	c0.3,0,0.6-0.1,0.9-0.3c0.4-0.3,0.6-0.9,0.6-1.4C208.7,115.1,208.4,114.6,208,114.3z M207.8,116.9c-0.2,0.1-0.4,0.2-0.6,0.2
	c-0.7-0.1-1.2-0.7-1.2-1.4c0-0.3,0.1-0.6,0.3-0.9l0,0c0.1-0.2,0.3-0.3,0.4-0.4l0,0c0.1-0.1,0.3-0.1,0.4-0.1c0.2,0,0.4,0.1,0.6,0.2
	c0.7,0.5,0.8,1.4,0.3,2.1C208,116.8,207.9,116.9,207.8,116.9L207.8,116.9z M233.5,83.5c-0.9-0.1-1.8,0.6-1.9,1.5s0.6,1.8,1.5,1.9
	c0.9,0.1,1.8-0.6,1.9-1.5c0-0.1,0-0.1,0-0.2C235.1,84.3,234.4,83.6,233.5,83.5C233.5,83.5,233.5,83.5,233.5,83.5L233.5,83.5z
	 M233.5,83.5c-0.9-0.1-1.8,0.6-1.9,1.5s0.6,1.8,1.5,1.9c0.9,0.1,1.8-0.6,1.9-1.5c0-0.1,0-0.1,0-0.2
	C235.1,84.3,234.4,83.6,233.5,83.5C233.5,83.5,233.5,83.5,233.5,83.5L233.5,83.5z M208,114.3c-0.2-0.2-0.5-0.3-0.8-0.3
	c-0.2,0-0.4,0-0.6,0.1c-0.2,0.1-0.4,0.3-0.6,0.5l0,0c-0.2,0.3-0.3,0.6-0.3,1c-0.1,0.9,0.6,1.7,1.5,1.7c0.3,0,0.6-0.1,0.9-0.3
	c0.4-0.3,0.6-0.9,0.6-1.4C208.7,115.1,208.4,114.6,208,114.3z M207.8,116.9c-0.2,0.1-0.4,0.2-0.6,0.2c-0.7-0.1-1.2-0.7-1.2-1.4
	c0-0.3,0.1-0.6,0.3-0.9l0,0c0.1-0.2,0.3-0.3,0.4-0.4l0,0c0.1-0.1,0.3-0.1,0.4-0.1c0.2,0,0.4,0.1,0.6,0.2c0.7,0.5,0.8,1.4,0.3,2.1
	C208,116.8,207.9,116.9,207.8,116.9L207.8,116.9z M181.4,83.5c-0.9-0.1-1.8,0.6-1.9,1.5c-0.1,0.9,0.6,1.8,1.5,1.9
	c0.9,0.1,1.8-0.6,1.9-1.5c0-0.1,0-0.1,0-0.2C182.9,84.4,182.2,83.6,181.4,83.5z M172.6,65.7v69.6h69.6V65.7H172.6z M241.9,135h-68.9
	V66h68.9V135z M233.4,87c0.9,0.1,1.8-0.6,1.9-1.5c0.1-0.9-0.6-1.8-1.5-1.9c-0.9-0.1-1.8,0.6-1.9,1.5c0,0.1,0,0.1,0,0.2
	C231.9,86.2,232.6,86.9,233.4,87L233.4,87z M207.2,117.5c0.3,0,0.6-0.1,0.9-0.3c0.4-0.3,0.6-0.9,0.6-1.4c0-0.6-0.3-1.1-0.7-1.4
	c-0.2-0.2-0.5-0.3-0.8-0.3c-0.2,0-0.4,0-0.6,0.1c-0.2,0.1-0.4,0.3-0.6,0.5l0,0c-0.2,0.3-0.3,0.6-0.3,1
	C205.6,116.6,206.3,117.4,207.2,117.5L207.2,117.5z M206.2,115L206.2,115c0.1-0.2,0.3-0.3,0.4-0.4l0,0c0.1-0.1,0.3-0.1,0.4-0.1
	c0.2,0,0.4,0.1,0.6,0.2c0.7,0.5,0.8,1.4,0.3,2.1c-0.1,0.1-0.2,0.2-0.2,0.3c-0.2,0.1-0.4,0.2-0.6,0.2c-0.7-0.1-1.2-0.7-1.2-1.4
	C205.9,115.5,206.1,115.2,206.2,115L206.2,115z M181.4,87c0.9,0.1,1.8-0.6,1.9-1.5c0.1-0.9-0.6-1.8-1.5-1.9
	c-0.9-0.1-1.8,0.6-1.9,1.5c0,0.1,0,0.1,0,0.2C179.8,86.2,180.5,86.9,181.4,87z M181.4,83.6c-0.9-0.1-1.8,0.6-1.9,1.5
	c-0.1,0.9,0.6,1.8,1.5,1.9c0.9,0.1,1.8-0.6,1.9-1.5c0-0.1,0-0.1,0-0.2C182.9,84.4,182.3,83.6,181.4,83.6
	C181.4,83.5,181.4,83.5,181.4,83.6L181.4,83.6z M208,114.3c-0.2-0.2-0.5-0.3-0.8-0.3c-0.2,0-0.4,0-0.6,0.1c-0.2,0.1-0.4,0.3-0.6,0.5
	l0,0c-0.2,0.3-0.3,0.6-0.3,1c-0.1,0.9,0.6,1.7,1.5,1.7c0.3,0,0.6-0.1,0.9-0.3c0.4-0.3,0.6-0.9,0.6-1.4
	C208.7,115.1,208.4,114.6,208,114.3z M207.8,116.9c-0.2,0.1-0.4,0.2-0.6,0.2c-0.7-0.1-1.2-0.7-1.2-1.4c0-0.3,0.1-0.6,0.3-0.9l0,0
	c0.1-0.2,0.3-0.3,0.4-0.4l0,0c0.1-0.1,0.3-0.1,0.4-0.1c0.2,0,0.4,0.1,0.6,0.2c0.7,0.5,0.8,1.4,0.3,2.1
	C208,116.8,207.9,116.9,207.8,116.9L207.8,116.9z M233.5,83.5c-0.9-0.1-1.8,0.6-1.9,1.5s0.6,1.8,1.5,1.9c0.9,0.1,1.8-0.6,1.9-1.5
	c0-0.1,0-0.1,0-0.2C235.1,84.3,234.4,83.6,233.5,83.5C233.5,83.5,233.5,83.5,233.5,83.5L233.5,83.5z M233.5,83.5
	c-0.9-0.1-1.8,0.6-1.9,1.5s0.6,1.8,1.5,1.9c0.9,0.1,1.8-0.6,1.9-1.5c0-0.1,0-0.1,0-0.2C235.1,84.3,234.4,83.6,233.5,83.5
	C233.5,83.5,233.5,83.5,233.5,83.5L233.5,83.5z M208,114.3c-0.2-0.2-0.5-0.3-0.8-0.3c-0.2,0-0.4,0-0.6,0.1c-0.2,0.1-0.4,0.3-0.6,0.5
	l0,0c-0.2,0.3-0.3,0.6-0.3,1c-0.1,0.9,0.6,1.7,1.5,1.7c0.3,0,0.6-0.1,0.9-0.3c0.4-0.3,0.6-0.9,0.6-1.4
	C208.7,115.1,208.4,114.6,208,114.3z M207.8,116.9c-0.2,0.1-0.4,0.2-0.6,0.2c-0.7-0.1-1.2-0.7-1.2-1.4c0-0.3,0.1-0.6,0.3-0.9l0,0
	c0.1-0.2,0.3-0.3,0.4-0.4l0,0c0.1-0.1,0.3-0.1,0.4-0.1c0.2,0,0.4,0.1,0.6,0.2c0.7,0.5,0.8,1.4,0.3,2.1
	C208,116.8,207.9,116.9,207.8,116.9L207.8,116.9z M181.4,83.5c-0.9-0.1-1.8,0.6-1.9,1.5c-0.1,0.9,0.6,1.8,1.5,1.9
	c0.9,0.1,1.8-0.6,1.9-1.5c0-0.1,0-0.1,0-0.2C182.9,84.4,182.2,83.6,181.4,83.5z M181.4,83.5c-0.9-0.1-1.8,0.6-1.9,1.5
	c-0.1,0.9,0.6,1.8,1.5,1.9c0.9,0.1,1.8-0.6,1.9-1.5c0-0.1,0-0.1,0-0.2C182.9,84.4,182.2,83.6,181.4,83.5z M208,114.3
	c-0.2-0.2-0.5-0.3-0.8-0.3c-0.2,0-0.4,0-0.6,0.1c-0.2,0.1-0.4,0.3-0.6,0.5l0,0c-0.2,0.3-0.3,0.6-0.3,1c-0.1,0.9,0.6,1.7,1.5,1.7
	c0.3,0,0.6-0.1,0.9-0.3c0.4-0.3,0.6-0.9,0.6-1.4C208.7,115.1,208.4,114.6,208,114.3z M207.8,116.9c-0.2,0.1-0.4,0.2-0.6,0.2
	c-0.7-0.1-1.2-0.7-1.2-1.4c0-0.3,0.1-0.6,0.3-0.9l0,0c0.1-0.2,0.3-0.3,0.4-0.4l0,0c0.1-0.1,0.3-0.1,0.4-0.1c0.2,0,0.4,0.1,0.6,0.2
	c0.7,0.5,0.8,1.4,0.3,2.1C208,116.8,207.9,116.9,207.8,116.9L207.8,116.9z M233.5,83.5c-0.9-0.1-1.8,0.6-1.9,1.5s0.6,1.8,1.5,1.9
	c0.9,0.1,1.8-0.6,1.9-1.5c0-0.1,0-0.1,0-0.2C235.1,84.3,234.4,83.6,233.5,83.5C233.5,83.5,233.5,83.5,233.5,83.5L233.5,83.5z
	 M233.5,83.5c-0.9-0.1-1.8,0.6-1.9,1.5s0.6,1.8,1.5,1.9c0.9,0.1,1.8-0.6,1.9-1.5c0-0.1,0-0.1,0-0.2
	C235.1,84.3,234.4,83.6,233.5,83.5C233.5,83.5,233.5,83.5,233.5,83.5L233.5,83.5z M208,114.3c-0.2-0.2-0.5-0.3-0.8-0.3
	c-0.2,0-0.4,0-0.6,0.1c-0.2,0.1-0.4,0.3-0.6,0.5l0,0c-0.2,0.3-0.3,0.6-0.3,1c-0.1,0.9,0.6,1.7,1.5,1.7c0.3,0,0.6-0.1,0.9-0.3
	c0.4-0.3,0.6-0.9,0.6-1.4C208.7,115.1,208.4,114.6,208,114.3z M207.8,116.9c-0.2,0.1-0.4,0.2-0.6,0.2c-0.7-0.1-1.2-0.7-1.2-1.4
	c0-0.3,0.1-0.6,0.3-0.9l0,0c0.1-0.2,0.3-0.3,0.4-0.4l0,0c0.1-0.1,0.3-0.1,0.4-0.1c0.2,0,0.4,0.1,0.6,0.2c0.7,0.5,0.8,1.4,0.3,2.1
	C208,116.8,207.9,116.9,207.8,116.9L207.8,116.9z M181.4,83.5c-0.9-0.1-1.8,0.6-1.9,1.5c-0.1,0.9,0.6,1.8,1.5,1.9
	c0.9,0.1,1.8-0.6,1.9-1.5c0-0.1,0-0.1,0-0.2C182.9,84.4,182.2,83.6,181.4,83.5z M233.4,83.5c-0.9-0.1-1.8,0.6-1.9,1.6
	c-0.1,0.9,0.6,1.8,1.6,1.9s1.8-0.6,1.9-1.6c0-0.1,0-0.1,0-0.2C235.1,84.3,234.4,83.6,233.4,83.5C233.5,83.5,233.5,83.5,233.4,83.5
	L233.4,83.5z M208,114.3c-0.2-0.2-0.5-0.3-0.8-0.3c-0.2,0-0.4,0-0.6,0.1c-0.2,0.1-0.4,0.3-0.6,0.5l0,0c-0.2,0.3-0.3,0.6-0.3,1
	c-0.1,0.9,0.6,1.7,1.5,1.7c0.3,0,0.6-0.1,0.9-0.3c0.4-0.3,0.6-0.9,0.6-1.4C208.7,115.1,208.4,114.6,208,114.3z M207.8,116.9
	c-0.2,0.1-0.4,0.2-0.6,0.2c-0.7-0.1-1.2-0.7-1.2-1.4c0-0.3,0.1-0.6,0.3-0.9l0,0c0.1-0.2,0.3-0.3,0.4-0.4l0,0
	c0.1-0.1,0.3-0.1,0.4-0.1c0.2,0,0.4,0.1,0.6,0.2c0.7,0.5,0.8,1.4,0.3,2.1C208,116.8,207.9,116.9,207.8,116.9L207.8,116.9z
	 M181.4,83.5c-0.9-0.1-1.8,0.6-1.9,1.5c-0.1,0.9,0.6,1.8,1.5,1.9c0.9,0.1,1.8-0.6,1.9-1.5c0-0.1,0-0.1,0-0.2
	C182.9,84.4,182.2,83.6,181.4,83.5z M181.4,83.5c-0.9-0.1-1.8,0.6-1.9,1.5c-0.1,0.9,0.6,1.8,1.5,1.9c0.9,0.1,1.8-0.6,1.9-1.5
	c0-0.1,0-0.1,0-0.2C182.9,84.4,182.2,83.6,181.4,83.5z M208,114.3c-0.2-0.2-0.5-0.3-0.8-0.3c-0.2,0-0.4,0-0.6,0.1
	c-0.2,0.1-0.4,0.3-0.6,0.5l0,0c-0.2,0.3-0.3,0.6-0.3,1c-0.1,0.9,0.6,1.7,1.5,1.7c0.3,0,0.6-0.1,0.9-0.3c0.4-0.3,0.6-0.9,0.6-1.4
	C208.7,115.1,208.4,114.6,208,114.3z M207.8,116.9c-0.2,0.1-0.4,0.2-0.6,0.2c-0.7-0.1-1.2-0.7-1.2-1.4c0-0.3,0.1-0.6,0.3-0.9l0,0
	c0.1-0.2,0.3-0.3,0.4-0.4l0,0c0.1-0.1,0.3-0.1,0.4-0.1c0.2,0,0.4,0.1,0.6,0.2c0.7,0.5,0.8,1.4,0.3,2.1
	C208,116.8,207.9,116.9,207.8,116.9L207.8,116.9z M233.5,83.5c-0.9-0.1-1.8,0.6-1.9,1.5s0.6,1.8,1.5,1.9c0.9,0.1,1.8-0.6,1.9-1.5
	c0-0.1,0-0.1,0-0.2C235.1,84.3,234.4,83.6,233.5,83.5C233.5,83.5,233.5,83.5,233.5,83.5L233.5,83.5z M233.5,83.5
	c-0.9-0.1-1.8,0.6-1.9,1.5s0.6,1.8,1.5,1.9c0.9,0.1,1.8-0.6,1.9-1.5c0-0.1,0-0.1,0-0.2C235.1,84.3,234.4,83.6,233.5,83.5
	C233.5,83.5,233.5,83.5,233.5,83.5L233.5,83.5z M208,114.3c-0.2-0.2-0.5-0.3-0.8-0.3c-0.2,0-0.4,0-0.6,0.1c-0.2,0.1-0.4,0.3-0.6,0.5
	l0,0c-0.2,0.3-0.3,0.6-0.3,1c-0.1,0.9,0.6,1.7,1.5,1.7c0.3,0,0.6-0.1,0.9-0.3c0.4-0.3,0.6-0.9,0.6-1.4
	C208.7,115.1,208.4,114.6,208,114.3z M207.8,116.9c-0.2,0.1-0.4,0.2-0.6,0.2c-0.7-0.1-1.2-0.7-1.2-1.4c0-0.3,0.1-0.6,0.3-0.9l0,0
	c0.1-0.2,0.3-0.3,0.4-0.4l0,0c0.1-0.1,0.3-0.1,0.4-0.1c0.2,0,0.4,0.1,0.6,0.2c0.7,0.5,0.8,1.4,0.3,2.1
	C208,116.8,207.9,116.9,207.8,116.9L207.8,116.9z M181.4,83.5c-0.9-0.1-1.8,0.6-1.9,1.5c-0.1,0.9,0.6,1.8,1.5,1.9
	c0.9,0.1,1.8-0.6,1.9-1.5c0-0.1,0-0.1,0-0.2C182.9,84.4,182.2,83.6,181.4,83.5z M181.4,83.5c-0.9-0.1-1.8,0.6-1.9,1.5
	c-0.1,0.9,0.6,1.8,1.5,1.9c0.9,0.1,1.8-0.6,1.9-1.5c0-0.1,0-0.1,0-0.2C182.9,84.4,182.2,83.6,181.4,83.5z M208,114.3
	c-0.2-0.2-0.5-0.3-0.8-0.3c-0.2,0-0.4,0-0.6,0.1c-0.2,0.1-0.4,0.3-0.6,0.5l0,0c-0.2,0.3-0.3,0.6-0.3,1c-0.1,0.9,0.6,1.7,1.5,1.7
	c0.3,0,0.6-0.1,0.9-0.3c0.4-0.3,0.6-0.9,0.6-1.4C208.7,115.1,208.4,114.6,208,114.3z M207.8,116.9c-0.2,0.1-0.4,0.2-0.6,0.2
	c-0.7-0.1-1.2-0.7-1.2-1.4c0-0.3,0.1-0.6,0.3-0.9l0,0c0.1-0.2,0.3-0.3,0.4-0.4l0,0c0.1-0.1,0.3-0.1,0.4-0.1c0.2,0,0.4,0.1,0.6,0.2
	c0.7,0.5,0.8,1.4,0.3,2.1C208,116.8,207.9,116.9,207.8,116.9L207.8,116.9z M233.5,83.5c-0.9-0.1-1.8,0.6-1.9,1.5s0.6,1.8,1.5,1.9
	c0.9,0.1,1.8-0.6,1.9-1.5c0-0.1,0-0.1,0-0.2C235.1,84.3,234.4,83.6,233.5,83.5C233.5,83.5,233.5,83.5,233.5,83.5L233.5,83.5z
	 M233.5,83.5c-0.9-0.1-1.8,0.6-1.9,1.5s0.6,1.8,1.5,1.9c0.9,0.1,1.8-0.6,1.9-1.5c0-0.1,0-0.1,0-0.2
	C235.1,84.3,234.4,83.6,233.5,83.5C233.5,83.5,233.5,83.5,233.5,83.5L233.5,83.5z M208,114.3c-0.2-0.2-0.5-0.3-0.8-0.3
	c-0.2,0-0.4,0-0.6,0.1c-0.2,0.1-0.4,0.3-0.6,0.5l0,0c-0.2,0.3-0.3,0.6-0.3,1c-0.1,0.9,0.6,1.7,1.5,1.7c0.3,0,0.6-0.1,0.9-0.3
	c0.4-0.3,0.6-0.9,0.6-1.4C208.7,115.1,208.4,114.6,208,114.3z M207.8,116.9c-0.2,0.1-0.4,0.2-0.6,0.2c-0.7-0.1-1.2-0.7-1.2-1.4
	c0-0.3,0.1-0.6,0.3-0.9l0,0c0.1-0.2,0.3-0.3,0.4-0.4l0,0c0.1-0.1,0.3-0.1,0.4-0.1c0.2,0,0.4,0.1,0.6,0.2c0.7,0.5,0.8,1.4,0.3,2.1
	C208,116.8,207.9,116.9,207.8,116.9L207.8,116.9z M208,114.3c-0.2-0.2-0.5-0.3-0.8-0.3c-0.2,0-0.4,0-0.6,0.1
	c-0.2,0.1-0.4,0.3-0.6,0.5l0,0c-0.2,0.3-0.3,0.6-0.3,1c-0.1,0.9,0.6,1.7,1.5,1.7c0.3,0,0.6-0.1,0.9-0.3c0.4-0.3,0.6-0.9,0.6-1.4
	C208.7,115.1,208.4,114.6,208,114.3z M207.8,116.9c-0.2,0.1-0.4,0.2-0.6,0.2c-0.7-0.1-1.2-0.7-1.2-1.4c0-0.3,0.1-0.6,0.3-0.9l0,0
	c0.1-0.2,0.3-0.3,0.4-0.4l0,0c0.1-0.1,0.3-0.1,0.4-0.1c0.2,0,0.4,0.1,0.6,0.2c0.7,0.5,0.8,1.4,0.3,2.1
	C208,116.8,207.9,116.9,207.8,116.9L207.8,116.9z M233.5,83.5c-0.9-0.1-1.8,0.6-1.9,1.5s0.6,1.8,1.5,1.9c0.9,0.1,1.8-0.6,1.9-1.5
	c0-0.1,0-0.1,0-0.2C235.1,84.3,234.4,83.6,233.5,83.5C233.5,83.5,233.5,83.5,233.5,83.5L233.5,83.5z M233.5,83.5
	c-0.9-0.1-1.8,0.6-1.9,1.5s0.6,1.8,1.5,1.9c0.9,0.1,1.8-0.6,1.9-1.5c0-0.1,0-0.1,0-0.2C235.1,84.3,234.4,83.6,233.5,83.5
	C233.5,83.5,233.5,83.5,233.5,83.5L233.5,83.5z M208,114.3c-0.2-0.2-0.5-0.3-0.8-0.3c-0.2,0-0.4,0-0.6,0.1c-0.2,0.1-0.4,0.3-0.6,0.5
	l0,0c-0.2,0.3-0.3,0.6-0.3,1c-0.1,0.9,0.6,1.7,1.5,1.7c0.3,0,0.6-0.1,0.9-0.3c0.4-0.3,0.6-0.9,0.6-1.4
	C208.7,115.1,208.4,114.6,208,114.3z M207.8,116.9c-0.2,0.1-0.4,0.2-0.6,0.2c-0.7-0.1-1.2-0.7-1.2-1.4c0-0.3,0.1-0.6,0.3-0.9l0,0
	c0.1-0.2,0.3-0.3,0.4-0.4l0,0c0.1-0.1,0.3-0.1,0.4-0.1c0.2,0,0.4,0.1,0.6,0.2c0.7,0.5,0.8,1.4,0.3,2.1
	C208,116.8,207.9,116.9,207.8,116.9L207.8,116.9z M208,114.3c-0.2-0.2-0.5-0.3-0.8-0.3c-0.2,0-0.4,0-0.6,0.1
	c-0.2,0.1-0.4,0.3-0.6,0.5l0,0c-0.2,0.3-0.3,0.6-0.3,1c-0.1,0.9,0.6,1.7,1.5,1.7c0.3,0,0.6-0.1,0.9-0.3c0.4-0.3,0.6-0.9,0.6-1.4
	C208.7,115.1,208.4,114.6,208,114.3z M207.8,116.9c-0.2,0.1-0.4,0.2-0.6,0.2c-0.7-0.1-1.2-0.7-1.2-1.4c0-0.3,0.1-0.6,0.3-0.9l0,0
	c0.1-0.2,0.3-0.3,0.4-0.4l0,0c0.1-0.1,0.3-0.1,0.4-0.1c0.2,0,0.4,0.1,0.6,0.2c0.7,0.5,0.8,1.4,0.3,2.1
	C208,116.8,207.9,116.9,207.8,116.9L207.8,116.9z M233.5,83.5c-0.9-0.1-1.8,0.6-1.9,1.5s0.6,1.8,1.5,1.9c0.9,0.1,1.8-0.6,1.9-1.5
	c0-0.1,0-0.1,0-0.2C235.1,84.3,234.4,83.6,233.5,83.5C233.5,83.5,233.5,83.5,233.5,83.5L233.5,83.5z M233.5,83.5
	c-0.9-0.1-1.8,0.6-1.9,1.5s0.6,1.8,1.5,1.9c0.9,0.1,1.8-0.6,1.9-1.5c0-0.1,0-0.1,0-0.2C235.1,84.3,234.4,83.6,233.5,83.5
	C233.5,83.5,233.5,83.5,233.5,83.5L233.5,83.5z M233.5,83.5c-0.9-0.1-1.8,0.6-1.9,1.5s0.6,1.8,1.5,1.9c0.9,0.1,1.8-0.6,1.9-1.5
	c0-0.1,0-0.1,0-0.2C235.1,84.3,234.4,83.6,233.5,83.5C233.5,83.5,233.5,83.5,233.5,83.5L233.5,83.5z M233.5,83.5
	c-0.9-0.1-1.8,0.6-1.9,1.5s0.6,1.8,1.5,1.9c0.9,0.1,1.8-0.6,1.9-1.5c0-0.1,0-0.1,0-0.2C235.1,84.3,234.4,83.6,233.5,83.5
	C233.5,83.5,233.5,83.5,233.5,83.5L233.5,83.5z M233.5,83.5c-0.9-0.1-1.8,0.6-1.9,1.5s0.6,1.8,1.5,1.9c0.9,0.1,1.8-0.6,1.9-1.5
	c0-0.1,0-0.1,0-0.2C235.1,84.3,234.4,83.6,233.5,83.5C233.5,83.5,233.5,83.5,233.5,83.5L233.5,83.5z M233.5,83.5
	c-0.9-0.1-1.8,0.6-1.9,1.5s0.6,1.8,1.5,1.9c0.9,0.1,1.8-0.6,1.9-1.5c0-0.1,0-0.1,0-0.2C235.1,84.3,234.4,83.6,233.5,83.5
	C233.5,83.5,233.5,83.5,233.5,83.5L233.5,83.5z M233.5,83.5c-0.9-0.1-1.8,0.6-1.9,1.5s0.6,1.8,1.5,1.9c0.9,0.1,1.8-0.6,1.9-1.5
	c0-0.1,0-0.1,0-0.2C235.1,84.3,234.4,83.6,233.5,83.5C233.5,83.5,233.5,83.5,233.5,83.5L233.5,83.5z M233.5,83.5
	c-0.9-0.1-1.8,0.6-1.9,1.5s0.6,1.8,1.5,1.9c0.9,0.1,1.8-0.6,1.9-1.5c0-0.1,0-0.1,0-0.2C235.1,84.3,234.4,83.6,233.5,83.5
	C233.5,83.5,233.5,83.5,233.5,83.5L233.5,83.5z M233.5,83.5c-0.9-0.1-1.8,0.6-1.9,1.5s0.6,1.8,1.5,1.9c0.9,0.1,1.8-0.6,1.9-1.5
	c0-0.1,0-0.1,0-0.2C235.1,84.3,234.4,83.6,233.5,83.5C233.5,83.5,233.5,83.5,233.5,83.5L233.5,83.5z M233.5,83.5
	c-0.9-0.1-1.8,0.6-1.9,1.5s0.6,1.8,1.5,1.9c0.9,0.1,1.8-0.6,1.9-1.5c0-0.1,0-0.1,0-0.2C235.1,84.3,234.4,83.6,233.5,83.5
	C233.5,83.5,233.5,83.5,233.5,83.5L233.5,83.5z M233.5,83.5c-0.9-0.1-1.8,0.6-1.9,1.5s0.6,1.8,1.5,1.9c0.9,0.1,1.8-0.6,1.9-1.5
	c0-0.1,0-0.1,0-0.2C235.1,84.3,234.4,83.6,233.5,83.5C233.5,83.5,233.5,83.5,233.5,83.5L233.5,83.5z"/>
<linearGradient id="SVGID_2_" gradientUnits="userSpaceOnUse" x1="249.0779" y1="65.2177" x2="164.6279" y2="142.8077" gradientTransform="matrix(1 0 0 -1 0 204)">
	<stop  offset="0" style="stop-color:#77FF8D"/>
	<stop  offset="5.000000e-02" style="stop-color:#65FF9F"/>
	<stop  offset="0.19" style="stop-color:#35FFCE"/>
	<stop  offset="0.23" style="stop-color:#28FFDB"/>
	<stop  offset="0.3" style="stop-color:#13FFEF"/>
	<stop  offset="0.37" style="stop-color:#07FFFB"/>
	<stop  offset="0.44" style="stop-color:#03FFFF"/>
	<stop  offset="0.67" style="stop-color:#02B6E9"/>
	<stop  offset="0.89" style="stop-color:#0076D6"/>
	<stop  offset="1" style="stop-color:#005DCF"/>
</linearGradient>
<path class="st3" d="M233.4,83.2c-1.1-0.1-2.1,0.7-2.2,1.8c-0.1,1.1,0.7,2.1,1.8,2.2s2.1-0.7,2.2-1.8c0-0.1,0-0.2,0-0.2
	C235.3,84.1,234.5,83.2,233.4,83.2z M233.4,86.6c-0.8,0.1-1.5-0.4-1.6-1.2c-0.1-0.8,0.4-1.5,1.2-1.6s1.5,0.4,1.6,1.2
	c0,0.1,0,0.2,0,0.2C234.7,85.9,234.1,86.5,233.4,86.6z M208.2,114.1c-0.3-0.2-0.6-0.3-1-0.3c-0.3,0-0.5,0.1-0.8,0.2
	c-0.3,0.1-0.5,0.4-0.7,0.6l0,0c0,0,0,0.1-0.1,0.1c-0.2,0.3-0.3,0.7-0.3,1.1l0,0c0,1,0.8,1.9,1.8,2c0.4,0,0.8-0.2,1.1-0.4
	c0.4-0.4,0.7-1,0.7-1.6C209,115,208.7,114.4,208.2,114.1L208.2,114.1z M207.8,116.9c-0.2,0.1-0.4,0.2-0.6,0.2
	c-0.7-0.1-1.2-0.7-1.2-1.4c0-0.3,0.1-0.6,0.3-0.9l0,0c0.1-0.2,0.3-0.3,0.4-0.4l0,0c0.1-0.1,0.3-0.1,0.4-0.1c0.2,0,0.4,0.1,0.6,0.2
	c0.7,0.5,0.8,1.4,0.3,2.1C207.9,116.8,207.9,116.9,207.8,116.9L207.8,116.9z M181.4,83.2c-1.1-0.1-2.1,0.7-2.2,1.8
	c-0.1,1.1,0.7,2.1,1.8,2.2s2.1-0.7,2.2-1.8c0-0.1,0-0.2,0-0.2C183.2,84.2,182.4,83.3,181.4,83.2z M181.4,86.6
	c-0.8,0.1-1.5-0.4-1.6-1.2c-0.1-0.8,0.4-1.5,1.2-1.6c0.8-0.1,1.5,0.4,1.6,1.2c0,0.1,0,0.1,0,0.2C182.6,85.9,182.1,86.6,181.4,86.6z
	 M233.4,83.2c-1.1-0.1-2.1,0.7-2.2,1.8c-0.1,1.1,0.7,2.1,1.8,2.2s2.1-0.7,2.2-1.8c0-0.1,0-0.2,0-0.2
	C235.3,84.1,234.5,83.2,233.4,83.2z M233.4,86.6c-0.8,0.1-1.5-0.4-1.6-1.2c-0.1-0.8,0.4-1.5,1.2-1.6s1.5,0.4,1.6,1.2
	c0,0.1,0,0.2,0,0.2C234.7,85.9,234.1,86.5,233.4,86.6z M208.2,114c-0.3-0.2-0.6-0.3-1-0.3c-0.3,0-0.5,0.1-0.8,0.2
	c-0.3,0.1-0.5,0.4-0.7,0.6l0,0c0,0,0,0.1-0.1,0.1c-0.2,0.3-0.3,0.7-0.3,1.1l0,0c0,1,0.8,1.9,1.8,2c0.4,0,0.8-0.2,1.1-0.4
	c0.4-0.4,0.7-1,0.7-1.6C209,115,208.7,114.4,208.2,114L208.2,114z M207.8,116.9c-0.2,0.1-0.4,0.2-0.6,0.2c-0.7-0.1-1.2-0.7-1.2-1.4
	c0-0.3,0.1-0.6,0.3-0.9l0,0c0.1-0.2,0.3-0.3,0.4-0.4l0,0c0.1-0.1,0.3-0.1,0.4-0.1c0.2,0,0.4,0.1,0.6,0.2c0.7,0.5,0.8,1.4,0.3,2.1
	C207.9,116.8,207.9,116.9,207.8,116.9L207.8,116.9z M181.4,83.2c-1.1-0.1-2.1,0.7-2.2,1.8c-0.1,1.1,0.7,2.1,1.8,2.2s2.1-0.7,2.2-1.8
	c0-0.1,0-0.2,0-0.2C183.2,84.2,182.4,83.3,181.4,83.2z M181.4,86.6c-0.8,0.1-1.5-0.4-1.6-1.2c-0.1-0.8,0.4-1.5,1.2-1.6
	c0.8-0.1,1.5,0.4,1.6,1.2c0,0.1,0,0.1,0,0.2C182.6,85.9,182.1,86.6,181.4,86.6z M233.4,83.2c-1.1-0.1-2.1,0.7-2.2,1.8
	c-0.1,1.1,0.7,2.1,1.8,2.2s2.1-0.7,2.2-1.8c0-0.1,0-0.2,0-0.2C235.3,84.1,234.5,83.2,233.4,83.2z M233.4,86.6
	c-0.8,0.1-1.5-0.4-1.6-1.2c-0.1-0.8,0.4-1.5,1.2-1.6s1.5,0.4,1.6,1.2c0,0.1,0,0.2,0,0.2C234.7,85.9,234.1,86.5,233.4,86.6z
	 M208.2,114c-0.3-0.2-0.6-0.3-1-0.3c-0.3,0-0.5,0.1-0.8,0.2c-0.3,0.1-0.5,0.4-0.7,0.6l0,0c0,0,0,0.1-0.1,0.1
	c-0.2,0.3-0.3,0.7-0.3,1.1l0,0c0,1,0.8,1.9,1.8,2c0.4,0,0.8-0.2,1.1-0.4c0.4-0.4,0.7-1,0.7-1.6C209,115,208.7,114.4,208.2,114
	L208.2,114z M207.8,116.9c-0.2,0.1-0.4,0.2-0.6,0.2c-0.7-0.1-1.2-0.7-1.2-1.4c0-0.3,0.1-0.6,0.3-0.9l0,0c0.1-0.2,0.3-0.3,0.4-0.4
	l0,0c0.1-0.1,0.3-0.1,0.4-0.1c0.2,0,0.4,0.1,0.6,0.2c0.7,0.5,0.8,1.4,0.3,2.1C207.9,116.8,207.9,116.9,207.8,116.9L207.8,116.9z
	 M181.4,83.2c-1.1-0.1-2.1,0.7-2.2,1.8c-0.1,1.1,0.7,2.1,1.8,2.2s2.1-0.7,2.2-1.8c0-0.1,0-0.2,0-0.2
	C183.2,84.2,182.4,83.3,181.4,83.2z M181.4,86.6c-0.8,0.1-1.5-0.4-1.6-1.2c-0.1-0.8,0.4-1.5,1.2-1.6c0.8-0.1,1.5,0.4,1.6,1.2
	c0,0.1,0,0.1,0,0.2C182.6,85.9,182.1,86.6,181.4,86.6z M233.4,83.2c-1.1-0.1-2.1,0.7-2.2,1.8c-0.1,1.1,0.7,2.1,1.8,2.2
	s2.1-0.7,2.2-1.8c0-0.1,0-0.2,0-0.2C235.3,84.1,234.5,83.2,233.4,83.2z M233.4,86.6c-0.8,0.1-1.5-0.4-1.6-1.2
	c-0.1-0.8,0.4-1.5,1.2-1.6s1.5,0.4,1.6,1.2c0,0.1,0,0.2,0,0.2C234.7,85.9,234.1,86.5,233.4,86.6z M208.2,114c-0.3-0.2-0.6-0.3-1-0.3
	c-0.3,0-0.5,0.1-0.8,0.2c-0.3,0.1-0.5,0.4-0.7,0.6l0,0c0,0,0,0.1-0.1,0.1c-0.2,0.3-0.3,0.7-0.3,1.1l0,0c0,1,0.8,1.9,1.8,2
	c0.4,0,0.8-0.2,1.1-0.4c0.4-0.4,0.7-1,0.7-1.6C209,115,208.7,114.4,208.2,114L208.2,114z M207.8,116.9c-0.2,0.1-0.4,0.2-0.6,0.2
	c-0.7-0.1-1.2-0.7-1.2-1.4c0-0.3,0.1-0.6,0.3-0.9l0,0c0.1-0.2,0.3-0.3,0.4-0.4l0,0c0.1-0.1,0.3-0.1,0.4-0.1c0.2,0,0.4,0.1,0.6,0.2
	c0.7,0.5,0.8,1.4,0.3,2.1C207.9,116.8,207.9,116.9,207.8,116.9L207.8,116.9z M181.4,83.2c-1.1-0.1-2.1,0.7-2.2,1.8
	c-0.1,1.1,0.7,2.1,1.8,2.2s2.1-0.7,2.2-1.8c0-0.1,0-0.2,0-0.2C183.2,84.2,182.4,83.3,181.4,83.2z M181.4,86.6
	c-0.8,0.1-1.5-0.4-1.6-1.2c-0.1-0.8,0.4-1.5,1.2-1.6c0.8-0.1,1.5,0.4,1.6,1.2c0,0.1,0,0.1,0,0.2C182.6,85.9,182.1,86.6,181.4,86.6z
	 M181.4,83.2c-1.1-0.1-2.1,0.7-2.2,1.8c-0.1,1.1,0.7,2.1,1.8,2.2s2.1-0.7,2.2-1.8c0-0.1,0-0.2,0-0.2
	C183.2,84.2,182.4,83.3,181.4,83.2z M181.4,86.6c-0.8,0.1-1.5-0.4-1.6-1.2c-0.1-0.8,0.4-1.5,1.2-1.6c0.8-0.1,1.5,0.4,1.6,1.2
	c0,0.1,0,0.1,0,0.2C182.6,85.9,182.1,86.6,181.4,86.6z M208.2,114c-0.3-0.2-0.6-0.3-1-0.3c-0.3,0-0.5,0.1-0.8,0.2
	c-0.3,0.1-0.5,0.4-0.7,0.6l0,0c0,0,0,0.1-0.1,0.1c-0.2,0.3-0.3,0.7-0.3,1.1l0,0c0,1,0.8,1.9,1.8,2c0.4,0,0.8-0.2,1.1-0.4
	c0.4-0.4,0.7-1,0.7-1.6C209,115,208.7,114.4,208.2,114z M207.8,116.9c-0.2,0.1-0.4,0.2-0.6,0.2c-0.7-0.1-1.2-0.7-1.2-1.4
	c0-0.3,0.1-0.6,0.3-0.9l0,0c0.1-0.2,0.3-0.3,0.4-0.4l0,0c0.1-0.1,0.3-0.1,0.4-0.1c0.2,0,0.4,0.1,0.6,0.2c0.7,0.5,0.8,1.4,0.3,2.1
	C207.9,116.8,207.9,116.9,207.8,116.9L207.8,116.9z M233.4,83.2c-1.1-0.1-2.1,0.7-2.2,1.8c-0.1,1.1,0.7,2.1,1.8,2.2s2.1-0.7,2.2-1.8
	c0-0.1,0-0.2,0-0.2C235.3,84.1,234.5,83.2,233.4,83.2L233.4,83.2z M233.4,86.6c-0.8,0.1-1.5-0.4-1.6-1.2c-0.1-0.8,0.4-1.5,1.2-1.6
	s1.5,0.4,1.6,1.2c0,0.1,0,0.2,0,0.2C234.7,85.9,234.1,86.5,233.4,86.6L233.4,86.6z M233.4,83.2c-1.1-0.1-2.1,0.7-2.2,1.8
	c-0.1,1.1,0.7,2.1,1.8,2.2s2.1-0.7,2.2-1.8c0-0.1,0-0.2,0-0.2C235.3,84.1,234.5,83.2,233.4,83.2L233.4,83.2z M233.4,86.6
	c-0.8,0.1-1.5-0.4-1.6-1.2c-0.1-0.8,0.4-1.5,1.2-1.6s1.5,0.4,1.6,1.2c0,0.1,0,0.2,0,0.2C234.7,85.9,234.1,86.5,233.4,86.6
	L233.4,86.6z M208.2,114c-0.3-0.2-0.6-0.3-1-0.3c-0.3,0-0.5,0.1-0.8,0.2c-0.3,0.1-0.5,0.4-0.7,0.6l0,0c0,0,0,0.1-0.1,0.1
	c-0.2,0.3-0.3,0.7-0.3,1.1l0,0c0,1,0.8,1.9,1.8,2c0.4,0,0.8-0.2,1.1-0.4c0.4-0.4,0.7-1,0.7-1.6C209,115,208.7,114.4,208.2,114z
	 M207.8,116.9c-0.2,0.1-0.4,0.2-0.6,0.2c-0.7-0.1-1.2-0.7-1.2-1.4c0-0.3,0.1-0.6,0.3-0.9l0,0c0.1-0.2,0.3-0.3,0.4-0.4l0,0
	c0.1-0.1,0.3-0.1,0.4-0.1c0.2,0,0.4,0.1,0.6,0.2c0.7,0.5,0.8,1.4,0.3,2.1C207.9,116.8,207.9,116.9,207.8,116.9L207.8,116.9z
	 M181.4,83.2c-1.1-0.1-2.1,0.7-2.2,1.8c-0.1,1.1,0.7,2.1,1.8,2.2s2.1-0.7,2.2-1.8c0-0.1,0-0.2,0-0.2
	C183.2,84.2,182.4,83.3,181.4,83.2z M181.4,86.6c-0.8,0.1-1.5-0.4-1.6-1.2c-0.1-0.8,0.4-1.5,1.2-1.6c0.8-0.1,1.5,0.4,1.6,1.2
	c0,0.1,0,0.1,0,0.2C182.6,85.9,182.1,86.6,181.4,86.6z M181.4,83.2c-1.1-0.1-2.1,0.7-2.2,1.8c-0.1,1.1,0.7,2.1,1.8,2.2
	s2.1-0.7,2.2-1.8c0-0.1,0-0.2,0-0.2C183.2,84.2,182.4,83.3,181.4,83.2z M181.4,86.6c-0.8,0.1-1.5-0.4-1.6-1.2
	c-0.1-0.8,0.4-1.5,1.2-1.6c0.8-0.1,1.5,0.4,1.6,1.2c0,0.1,0,0.1,0,0.2C182.6,85.9,182.1,86.6,181.4,86.6z M208.2,114
	c-0.3-0.2-0.6-0.3-1-0.3c-0.3,0-0.5,0.1-0.8,0.2c-0.3,0.1-0.5,0.4-0.7,0.6l0,0c0,0,0,0.1-0.1,0.1c-0.2,0.3-0.3,0.7-0.3,1.1l0,0
	c0,1,0.8,1.9,1.8,2c0.4,0,0.8-0.2,1.1-0.4c0.4-0.4,0.7-1,0.7-1.6C209,115,208.7,114.4,208.2,114z M207.8,116.9
	c-0.2,0.1-0.4,0.2-0.6,0.2c-0.7-0.1-1.2-0.7-1.2-1.4c0-0.3,0.1-0.6,0.3-0.9l0,0c0.1-0.2,0.3-0.3,0.4-0.4l0,0
	c0.1-0.1,0.3-0.1,0.4-0.1c0.2,0,0.4,0.1,0.6,0.2c0.7,0.5,0.8,1.4,0.3,2.1C207.9,116.8,207.9,116.9,207.8,116.9L207.8,116.9z
	 M233.4,83.2c-1.1-0.1-2.1,0.7-2.2,1.8c-0.1,1.1,0.7,2.1,1.8,2.2s2.1-0.7,2.2-1.8c0-0.1,0-0.2,0-0.2
	C235.3,84.1,234.5,83.2,233.4,83.2L233.4,83.2z M233.4,86.6c-0.8,0.1-1.5-0.4-1.6-1.2c-0.1-0.8,0.4-1.5,1.2-1.6s1.5,0.4,1.6,1.2
	c0,0.1,0,0.2,0,0.2C234.7,85.9,234.1,86.5,233.4,86.6L233.4,86.6z M233.4,83.2c-1.1-0.1-2.1,0.7-2.2,1.8c-0.1,1.1,0.7,2.1,1.8,2.2
	s2.1-0.7,2.2-1.8c0-0.1,0-0.2,0-0.2C235.3,84.1,234.5,83.2,233.4,83.2L233.4,83.2z M233.4,86.6c-0.8,0.1-1.5-0.4-1.6-1.2
	c-0.1-0.8,0.4-1.5,1.2-1.6s1.5,0.4,1.6,1.2c0,0.1,0,0.2,0,0.2C234.7,85.9,234.1,86.5,233.4,86.6L233.4,86.6z M208.2,114
	c-0.3-0.2-0.6-0.3-1-0.3c-0.3,0-0.5,0.1-0.8,0.2c-0.3,0.1-0.5,0.4-0.7,0.6l0,0c0,0,0,0.1-0.1,0.1c-0.2,0.3-0.3,0.7-0.3,1.1l0,0
	c0,1,0.8,1.9,1.8,2c0.4,0,0.8-0.2,1.1-0.4c0.4-0.4,0.7-1,0.7-1.6C209,115,208.7,114.4,208.2,114z M207.8,116.9
	c-0.2,0.1-0.4,0.2-0.6,0.2c-0.7-0.1-1.2-0.7-1.2-1.4c0-0.3,0.1-0.6,0.3-0.9l0,0c0.1-0.2,0.3-0.3,0.4-0.4l0,0
	c0.1-0.1,0.3-0.1,0.4-0.1c0.2,0,0.4,0.1,0.6,0.2c0.7,0.5,0.8,1.4,0.3,2.1C207.9,116.8,207.9,116.9,207.8,116.9L207.8,116.9z
	 M181.4,83.2c-1.1-0.1-2.1,0.7-2.2,1.8c-0.1,1.1,0.7,2.1,1.8,2.2s2.1-0.7,2.2-1.8c0-0.1,0-0.2,0-0.2
	C183.2,84.2,182.4,83.3,181.4,83.2z M181.4,86.6c-0.8,0.1-1.5-0.4-1.6-1.2c-0.1-0.8,0.4-1.5,1.2-1.6c0.8-0.1,1.5,0.4,1.6,1.2
	c0,0.1,0,0.1,0,0.2C182.6,85.9,182.1,86.6,181.4,86.6z M172.3,65.4v70.3h70.3V65.4L172.3,65.4z M241.9,135h-68.9V66h68.9V135z
	 M233.4,87.3c1.1,0.1,2.1-0.7,2.2-1.8c0.1-1.1-0.7-2.1-1.8-2.2s-2.1,0.7-2.2,1.8c0,0.1,0,0.2,0,0.2
	C231.6,86.3,232.4,87.2,233.4,87.3z M233.4,83.8c0.8-0.1,1.5,0.4,1.6,1.2c0.1,0.8-0.4,1.5-1.2,1.6c-0.8,0.1-1.5-0.4-1.6-1.2
	c0-0.1,0-0.1,0-0.2C232.2,84.5,232.7,83.9,233.4,83.8z M207.2,117.8c0.4,0,0.8-0.2,1.1-0.4c0.4-0.4,0.7-1,0.7-1.6
	c0-0.7-0.3-1.3-0.8-1.7c-0.3-0.2-0.6-0.3-1-0.3c-0.3,0-0.5,0.1-0.8,0.2c-0.3,0.1-0.5,0.4-0.7,0.6l0,0c0,0,0,0.1-0.1,0.1
	c-0.2,0.3-0.3,0.7-0.3,1.1l0,0C205.3,116.8,206.1,117.7,207.2,117.8z M206.7,114.5L206.7,114.5c0.1-0.1,0.3-0.1,0.4-0.1
	c0.2,0,0.4,0.1,0.6,0.2c0.7,0.5,0.8,1.4,0.3,2.1c-0.1,0.1-0.2,0.2-0.2,0.3c-0.2,0.1-0.4,0.2-0.6,0.2c-0.7-0.1-1.2-0.7-1.2-1.4
	c0-0.3,0.1-0.6,0.3-0.9l0,0C206.4,114.7,206.5,114.6,206.7,114.5L206.7,114.5z M181.4,87.3c1.1,0.1,2.1-0.7,2.2-1.8
	c0.1-1.1-0.7-2.1-1.8-2.2s-2.1,0.7-2.2,1.8c0,0.1,0,0.2,0,0.2C179.5,86.3,180.3,87.2,181.4,87.3L181.4,87.3z M181.4,83.9
	c0.8-0.1,1.5,0.4,1.6,1.2c0.1,0.8-0.4,1.5-1.2,1.6c-0.8,0.1-1.5-0.4-1.6-1.2c0-0.1,0-0.1,0-0.2C180.1,84.5,180.7,83.9,181.4,83.9
	L181.4,83.9z M181.4,83.2c-1.1-0.1-2.1,0.7-2.2,1.8c-0.1,1.1,0.7,2.1,1.8,2.2s2.1-0.7,2.2-1.8c0-0.1,0-0.2,0-0.2
	C183.2,84.2,182.4,83.3,181.4,83.2L181.4,83.2z M181.4,86.6c-0.8,0.1-1.5-0.4-1.6-1.2c-0.1-0.8,0.4-1.5,1.2-1.6
	c0.8-0.1,1.5,0.4,1.6,1.2c0,0.1,0,0.1,0,0.2C182.6,85.9,182.1,86.6,181.4,86.6L181.4,86.6z M208.2,114c-0.3-0.2-0.6-0.3-1-0.3
	c-0.3,0-0.5,0.1-0.8,0.2c-0.3,0.1-0.5,0.4-0.7,0.6l0,0c0,0,0,0.1-0.1,0.1c-0.2,0.3-0.3,0.7-0.3,1.1l0,0c0,1,0.8,1.9,1.8,2
	c0.4,0,0.8-0.2,1.1-0.4c0.4-0.4,0.7-1,0.7-1.6C209,115,208.7,114.4,208.2,114z M207.8,116.9c-0.2,0.1-0.4,0.2-0.6,0.2
	c-0.7-0.1-1.2-0.7-1.2-1.4c0-0.3,0.1-0.6,0.3-0.9l0,0c0.1-0.2,0.3-0.3,0.4-0.4l0,0c0.1-0.1,0.3-0.1,0.4-0.1c0.2,0,0.4,0.1,0.6,0.2
	c0.7,0.5,0.8,1.4,0.3,2.1C207.9,116.8,207.9,116.9,207.8,116.9L207.8,116.9z M233.4,83.2c-1.1-0.1-2.1,0.7-2.2,1.8
	c-0.1,1.1,0.7,2.1,1.8,2.2s2.1-0.7,2.2-1.8c0-0.1,0-0.2,0-0.2C235.3,84.1,234.5,83.2,233.4,83.2L233.4,83.2z M233.4,86.6
	c-0.8,0.1-1.5-0.4-1.6-1.2c-0.1-0.8,0.4-1.5,1.2-1.6s1.5,0.4,1.6,1.2c0,0.1,0,0.2,0,0.2C234.7,85.9,234.1,86.5,233.4,86.6
	L233.4,86.6z M233.4,83.2c-1.1-0.1-2.1,0.7-2.2,1.8c-0.1,1.1,0.7,2.1,1.8,2.2s2.1-0.7,2.2-1.8c0-0.1,0-0.2,0-0.2
	C235.3,84.1,234.5,83.2,233.4,83.2L233.4,83.2z M233.4,86.6c-0.8,0.1-1.5-0.4-1.6-1.2c-0.1-0.8,0.4-1.5,1.2-1.6s1.5,0.4,1.6,1.2
	c0,0.1,0,0.2,0,0.2C234.7,85.9,234.1,86.5,233.4,86.6L233.4,86.6z M208.2,114c-0.3-0.2-0.6-0.3-1-0.3c-0.3,0-0.5,0.1-0.8,0.2
	c-0.3,0.1-0.5,0.4-0.7,0.6l0,0c0,0,0,0.1-0.1,0.1c-0.2,0.3-0.3,0.7-0.3,1.1l0,0c0,1,0.8,1.9,1.8,2c0.4,0,0.8-0.2,1.1-0.4
	c0.4-0.4,0.7-1,0.7-1.6C209,115,208.7,114.4,208.2,114z M207.8,116.9c-0.2,0.1-0.4,0.2-0.6,0.2c-0.7-0.1-1.2-0.7-1.2-1.4
	c0-0.3,0.1-0.6,0.3-0.9l0,0c0.1-0.2,0.3-0.3,0.4-0.4l0,0c0.1-0.1,0.3-0.1,0.4-0.1c0.2,0,0.4,0.1,0.6,0.2c0.7,0.5,0.8,1.4,0.3,2.1
	C207.9,116.8,207.9,116.9,207.8,116.9L207.8,116.9z M181.4,83.2c-1.1-0.1-2.1,0.7-2.2,1.8c-0.1,1.1,0.7,2.1,1.8,2.2s2.1-0.7,2.2-1.8
	c0-0.1,0-0.2,0-0.2C183.2,84.2,182.4,83.3,181.4,83.2z M181.4,86.6c-0.8,0.1-1.5-0.4-1.6-1.2c-0.1-0.8,0.4-1.5,1.2-1.6
	c0.8-0.1,1.5,0.4,1.6,1.2c0,0.1,0,0.1,0,0.2C182.6,85.9,182.1,86.6,181.4,86.6z M181.4,83.2c-1.1-0.1-2.1,0.7-2.2,1.8
	c-0.1,1.1,0.7,2.1,1.8,2.2s2.1-0.7,2.2-1.8c0-0.1,0-0.2,0-0.2C183.2,84.2,182.4,83.3,181.4,83.2z M181.4,86.6
	c-0.8,0.1-1.5-0.4-1.6-1.2c-0.1-0.8,0.4-1.5,1.2-1.6c0.8-0.1,1.5,0.4,1.6,1.2c0,0.1,0,0.1,0,0.2C182.6,85.9,182.1,86.6,181.4,86.6z
	 M208.2,114c-0.3-0.2-0.6-0.3-1-0.3c-0.3,0-0.5,0.1-0.8,0.2c-0.3,0.1-0.5,0.4-0.7,0.6l0,0c0,0,0,0.1-0.1,0.1
	c-0.2,0.3-0.3,0.7-0.3,1.1l0,0c0,1,0.8,1.9,1.8,2c0.4,0,0.8-0.2,1.1-0.4c0.4-0.4,0.7-1,0.7-1.6C209,115,208.7,114.4,208.2,114z
	 M207.8,116.9c-0.2,0.1-0.4,0.2-0.6,0.2c-0.7-0.1-1.2-0.7-1.2-1.4c0-0.3,0.1-0.6,0.3-0.9l0,0c0.1-0.2,0.3-0.3,0.4-0.4l0,0
	c0.1-0.1,0.3-0.1,0.4-0.1c0.2,0,0.4,0.1,0.6,0.2c0.7,0.5,0.8,1.4,0.3,2.1C207.9,116.8,207.9,116.9,207.8,116.9L207.8,116.9z
	 M233.4,83.2c-1.1-0.1-2.1,0.7-2.2,1.8c-0.1,1.1,0.7,2.1,1.8,2.2s2.1-0.7,2.2-1.8c0-0.1,0-0.2,0-0.2
	C235.3,84.1,234.5,83.2,233.4,83.2L233.4,83.2z M233.4,86.6c-0.8,0.1-1.5-0.4-1.6-1.2c-0.1-0.8,0.4-1.5,1.2-1.6s1.5,0.4,1.6,1.2
	c0,0.1,0,0.2,0,0.2C234.7,85.9,234.1,86.5,233.4,86.6L233.4,86.6z M233.4,83.2c-1.1-0.1-2.1,0.7-2.2,1.8c-0.1,1.1,0.7,2.1,1.8,2.2
	s2.1-0.7,2.2-1.8c0-0.1,0-0.2,0-0.2C235.3,84.1,234.5,83.2,233.4,83.2L233.4,83.2z M233.4,86.6c-0.8,0.1-1.5-0.4-1.6-1.2
	c-0.1-0.8,0.4-1.5,1.2-1.6s1.5,0.4,1.6,1.2c0,0.1,0,0.2,0,0.2C234.7,85.9,234.1,86.5,233.4,86.6L233.4,86.6z M208.2,114
	c-0.3-0.2-0.6-0.3-1-0.3c-0.3,0-0.5,0.1-0.8,0.2c-0.3,0.1-0.5,0.4-0.7,0.6l0,0c0,0,0,0.1-0.1,0.1c-0.2,0.3-0.3,0.7-0.3,1.1l0,0
	c0,1,0.8,1.9,1.8,2c0.4,0,0.8-0.2,1.1-0.4c0.4-0.4,0.7-1,0.7-1.6C209,115,208.7,114.4,208.2,114z M207.8,116.9
	c-0.2,0.1-0.4,0.2-0.6,0.2c-0.7-0.1-1.2-0.7-1.2-1.4c0-0.3,0.1-0.6,0.3-0.9l0,0c0.1-0.2,0.3-0.3,0.4-0.4l0,0
	c0.1-0.1,0.3-0.1,0.4-0.1c0.2,0,0.4,0.1,0.6,0.2c0.7,0.5,0.8,1.4,0.3,2.1C207.9,116.8,207.9,116.9,207.8,116.9L207.8,116.9z
	 M181.4,83.2c-1.1-0.1-2.1,0.7-2.2,1.8c-0.1,1.1,0.7,2.1,1.8,2.2s2.1-0.7,2.2-1.8c0-0.1,0-0.2,0-0.2
	C183.2,84.2,182.4,83.3,181.4,83.2z M181.4,86.6c-0.8,0.1-1.5-0.4-1.6-1.2c-0.1-0.8,0.4-1.5,1.2-1.6c0.8-0.1,1.5,0.4,1.6,1.2
	c0,0.1,0,0.1,0,0.2C182.6,85.9,182.1,86.6,181.4,86.6z M233.4,83.2c-1.1-0.1-2.1,0.7-2.2,1.8c-0.1,1.1,0.7,2.1,1.8,2.2
	s2.1-0.7,2.2-1.8c0-0.1,0-0.2,0-0.2C235.3,84.1,234.5,83.2,233.4,83.2z M233.4,86.6c-0.8,0.1-1.5-0.4-1.6-1.2
	c-0.1-0.8,0.4-1.5,1.2-1.6s1.5,0.4,1.6,1.2c0,0.1,0,0.2,0,0.2C234.7,85.9,234.1,86.5,233.4,86.6z M208.2,114c-0.3-0.2-0.6-0.3-1-0.3
	c-0.3,0-0.5,0.1-0.8,0.2c-0.3,0.1-0.5,0.4-0.7,0.6l0,0c0,0,0,0.1-0.1,0.1c-0.2,0.3-0.3,0.7-0.3,1.1l0,0c0,1,0.8,1.9,1.8,2
	c0.4,0,0.8-0.2,1.1-0.4c0.4-0.4,0.7-1,0.7-1.6C209,115,208.7,114.4,208.2,114L208.2,114z M207.8,116.9c-0.2,0.1-0.4,0.2-0.6,0.2
	c-0.7-0.1-1.2-0.7-1.2-1.4c0-0.3,0.1-0.6,0.3-0.9l0,0c0.1-0.2,0.3-0.3,0.4-0.4l0,0c0.1-0.1,0.3-0.1,0.4-0.1c0.2,0,0.4,0.1,0.6,0.2
	c0.7,0.5,0.8,1.4,0.3,2.1C207.9,116.8,207.9,116.9,207.8,116.9L207.8,116.9z M181.4,83.2c-1.1-0.1-2.1,0.7-2.2,1.8
	c-0.1,1.1,0.7,2.1,1.8,2.2s2.1-0.7,2.2-1.8c0-0.1,0-0.2,0-0.2C183.2,84.2,182.4,83.3,181.4,83.2z M181.4,86.6
	c-0.8,0.1-1.5-0.4-1.6-1.2c-0.1-0.8,0.4-1.5,1.2-1.6c0.8-0.1,1.5,0.4,1.6,1.2c0,0.1,0,0.1,0,0.2C182.6,85.9,182.1,86.6,181.4,86.6z
	 M233.4,83.2c-1.1-0.1-2.1,0.7-2.2,1.8c-0.1,1.1,0.7,2.1,1.8,2.2s2.1-0.7,2.2-1.8c0-0.1,0-0.2,0-0.2
	C235.3,84.1,234.5,83.2,233.4,83.2z M233.4,86.6c-0.8,0.1-1.5-0.4-1.6-1.2c-0.1-0.8,0.4-1.5,1.2-1.6s1.5,0.4,1.6,1.2
	c0,0.1,0,0.2,0,0.2C234.7,85.9,234.1,86.5,233.4,86.6z M208.2,114c-0.3-0.2-0.6-0.3-1-0.3c-0.3,0-0.5,0.1-0.8,0.2
	c-0.3,0.1-0.5,0.4-0.7,0.6l0,0c0,0,0,0.1-0.1,0.1c-0.2,0.3-0.3,0.7-0.3,1.1l0,0c0,1,0.8,1.9,1.8,2c0.4,0,0.8-0.2,1.1-0.4
	c0.4-0.4,0.7-1,0.7-1.6C209,115,208.7,114.4,208.2,114L208.2,114z M207.8,116.9c-0.2,0.1-0.4,0.2-0.6,0.2c-0.7-0.1-1.2-0.7-1.2-1.4
	c0-0.3,0.1-0.6,0.3-0.9l0,0c0.1-0.2,0.3-0.3,0.4-0.4l0,0c0.1-0.1,0.3-0.1,0.4-0.1c0.2,0,0.4,0.1,0.6,0.2c0.7,0.5,0.8,1.4,0.3,2.1
	C207.9,116.8,207.9,116.9,207.8,116.9L207.8,116.9z M181.4,83.2c-1.1-0.1-2.1,0.7-2.2,1.8c-0.1,1.1,0.7,2.1,1.8,2.2s2.1-0.7,2.2-1.8
	c0-0.1,0-0.2,0-0.2C183.2,84.2,182.4,83.3,181.4,83.2z M181.4,86.6c-0.8,0.1-1.5-0.4-1.6-1.2c-0.1-0.8,0.4-1.5,1.2-1.6
	c0.8-0.1,1.5,0.4,1.6,1.2c0,0.1,0,0.1,0,0.2C182.6,85.9,182.1,86.6,181.4,86.6z M233.4,83.2c-1.1-0.1-2.1,0.7-2.2,1.8
	c-0.1,1.1,0.7,2.1,1.8,2.2s2.1-0.7,2.2-1.8c0-0.1,0-0.2,0-0.2C235.3,84.1,234.5,83.2,233.4,83.2z M233.4,86.6
	c-0.8,0.1-1.5-0.4-1.6-1.2c-0.1-0.8,0.4-1.5,1.2-1.6s1.5,0.4,1.6,1.2c0,0.1,0,0.2,0,0.2C234.7,85.9,234.1,86.5,233.4,86.6z
	 M208.2,114c-0.3-0.2-0.6-0.3-1-0.3c-0.3,0-0.5,0.1-0.8,0.2c-0.3,0.1-0.5,0.4-0.7,0.6l0,0c0,0,0,0.1-0.1,0.1
	c-0.2,0.3-0.3,0.7-0.3,1.1l0,0c0,1,0.8,1.9,1.8,2c0.4,0,0.8-0.2,1.1-0.4c0.4-0.4,0.7-1,0.7-1.6C209,115,208.7,114.4,208.2,114
	L208.2,114z M207.8,116.9c-0.2,0.1-0.4,0.2-0.6,0.2c-0.7-0.1-1.2-0.7-1.2-1.4c0-0.3,0.1-0.6,0.3-0.9l0,0c0.1-0.2,0.3-0.3,0.4-0.4
	l0,0c0.1-0.1,0.3-0.1,0.4-0.1c0.2,0,0.4,0.1,0.6,0.2c0.7,0.5,0.8,1.4,0.3,2.1C207.9,116.8,207.9,116.9,207.8,116.9L207.8,116.9z
	 M181.4,83.2c-1.1-0.1-2.1,0.7-2.2,1.8c-0.1,1.1,0.7,2.1,1.8,2.2s2.1-0.7,2.2-1.8c0-0.1,0-0.2,0-0.2
	C183.2,84.2,182.4,83.3,181.4,83.2z M181.4,86.6c-0.8,0.1-1.5-0.4-1.6-1.2c-0.1-0.8,0.4-1.5,1.2-1.6c0.8-0.1,1.5,0.4,1.6,1.2
	c0,0.1,0,0.1,0,0.2C182.6,85.9,182.1,86.6,181.4,86.6z M233.4,83.2c-1.1-0.1-2.1,0.7-2.2,1.8c-0.1,1.1,0.7,2.1,1.8,2.2
	s2.1-0.7,2.2-1.8c0-0.1,0-0.2,0-0.2C235.3,84.1,234.5,83.2,233.4,83.2z M233.4,86.6c-0.8,0.1-1.5-0.4-1.6-1.2
	c-0.1-0.8,0.4-1.5,1.2-1.6s1.5,0.4,1.6,1.2c0,0.1,0,0.2,0,0.2C234.7,85.9,234.1,86.5,233.4,86.6z M208.2,114c-0.3-0.2-0.6-0.3-1-0.3
	c-0.3,0-0.5,0.1-0.8,0.2c-0.3,0.1-0.5,0.4-0.7,0.6l0,0c0,0,0,0.1-0.1,0.1c-0.2,0.3-0.3,0.7-0.3,1.1l0,0c0,1,0.8,1.9,1.8,2
	c0.4,0,0.8-0.2,1.1-0.4c0.4-0.4,0.7-1,0.7-1.6C209,115,208.7,114.4,208.2,114L208.2,114z M207.8,116.9c-0.2,0.1-0.4,0.2-0.6,0.2
	c-0.7-0.1-1.2-0.7-1.2-1.4c0-0.3,0.1-0.6,0.3-0.9l0,0c0.1-0.2,0.3-0.3,0.4-0.4l0,0c0.1-0.1,0.3-0.1,0.4-0.1c0.2,0,0.4,0.1,0.6,0.2
	c0.7,0.5,0.8,1.4,0.3,2.1C207.9,116.8,207.9,116.9,207.8,116.9L207.8,116.9z M181.4,83.2c-1.1-0.1-2.1,0.7-2.2,1.8
	c-0.1,1.1,0.7,2.1,1.8,2.2s2.1-0.7,2.2-1.8c0-0.1,0-0.2,0-0.2C183.2,84.2,182.4,83.3,181.4,83.2z M181.4,86.6
	c-0.8,0.1-1.5-0.4-1.6-1.2c-0.1-0.8,0.4-1.5,1.2-1.6c0.8-0.1,1.5,0.4,1.6,1.2c0,0.1,0,0.1,0,0.2C182.6,85.9,182.1,86.6,181.4,86.6z
	 M233.4,83.2c-1.1-0.1-2.1,0.7-2.2,1.8c-0.1,1.1,0.7,2.1,1.8,2.2s2.1-0.7,2.2-1.8c0-0.1,0-0.2,0-0.2
	C235.3,84.1,234.5,83.2,233.4,83.2z M233.4,86.6c-0.8,0.1-1.5-0.4-1.6-1.2c-0.1-0.8,0.4-1.5,1.2-1.6s1.5,0.4,1.6,1.2
	c0,0.1,0,0.2,0,0.2C234.7,85.9,234.1,86.5,233.4,86.6z M208.2,114c-0.3-0.2-0.6-0.3-1-0.3c-0.3,0-0.5,0.1-0.8,0.2
	c-0.3,0.1-0.5,0.4-0.7,0.6l0,0c0,0,0,0.1-0.1,0.1c-0.2,0.3-0.3,0.7-0.3,1.1l0,0c0,1,0.8,1.9,1.8,2c0.4,0,0.8-0.2,1.1-0.4
	c0.4-0.4,0.7-1,0.7-1.6C209,115,208.7,114.4,208.2,114L208.2,114z M207.8,116.9c-0.2,0.1-0.4,0.2-0.6,0.2c-0.7-0.1-1.2-0.7-1.2-1.4
	c0-0.3,0.1-0.6,0.3-0.9l0,0c0.1-0.2,0.3-0.3,0.4-0.4l0,0c0.1-0.1,0.3-0.1,0.4-0.1c0.2,0,0.4,0.1,0.6,0.2c0.7,0.5,0.8,1.4,0.3,2.1
	C207.9,116.8,207.9,116.9,207.8,116.9L207.8,116.9z M181.4,83.2c-1.1-0.1-2.1,0.7-2.2,1.8c-0.1,1.1,0.7,2.1,1.8,2.2s2.1-0.7,2.2-1.8
	c0-0.1,0-0.2,0-0.2C183.2,84.2,182.4,83.3,181.4,83.2z M181.4,86.6c-0.8,0.1-1.5-0.4-1.6-1.2c-0.1-0.8,0.4-1.5,1.2-1.6
	c0.8-0.1,1.5,0.4,1.6,1.2c0,0.1,0,0.1,0,0.2C182.6,85.9,182.1,86.6,181.4,86.6z M233.4,83.2c-1.1-0.1-2.1,0.7-2.2,1.8
	c-0.1,1.1,0.7,2.1,1.8,2.2s2.1-0.7,2.2-1.8c0-0.1,0-0.2,0-0.2C235.3,84.1,234.5,83.2,233.4,83.2z M233.4,86.6
	c-0.8,0.1-1.5-0.4-1.6-1.2c-0.1-0.8,0.4-1.5,1.2-1.6s1.5,0.4,1.6,1.2c0,0.1,0,0.2,0,0.2C234.7,85.9,234.1,86.5,233.4,86.6z
	 M208.2,114c-0.3-0.2-0.6-0.3-1-0.3c-0.3,0-0.5,0.1-0.8,0.2c-0.3,0.1-0.5,0.4-0.7,0.6l0,0c0,0,0,0.1-0.1,0.1
	c-0.2,0.3-0.3,0.7-0.3,1.1l0,0c0,1,0.8,1.9,1.8,2c0.4,0,0.8-0.2,1.1-0.4c0.4-0.4,0.7-1,0.7-1.6C209,115,208.7,114.4,208.2,114
	L208.2,114z M207.8,116.9c-0.2,0.1-0.4,0.2-0.6,0.2c-0.7-0.1-1.2-0.7-1.2-1.4c0-0.3,0.1-0.6,0.3-0.9l0,0c0.1-0.2,0.3-0.3,0.4-0.4
	l0,0c0.1-0.1,0.3-0.1,0.4-0.1c0.2,0,0.4,0.1,0.6,0.2c0.7,0.5,0.8,1.4,0.3,2.1C207.9,116.8,207.9,116.9,207.8,116.9L207.8,116.9z
	 M181.4,83.2c-1.1-0.1-2.1,0.7-2.2,1.8c-0.1,1.1,0.7,2.1,1.8,2.2s2.1-0.7,2.2-1.8c0-0.1,0-0.2,0-0.2
	C183.2,84.2,182.4,83.3,181.4,83.2z M181.4,86.6c-0.8,0.1-1.5-0.4-1.6-1.2c-0.1-0.8,0.4-1.5,1.2-1.6c0.8-0.1,1.5,0.4,1.6,1.2
	c0,0.1,0,0.1,0,0.2C182.6,85.9,182.1,86.6,181.4,86.6z M233.4,83.2c-1.1-0.1-2.1,0.7-2.2,1.8c-0.1,1.1,0.7,2.1,1.8,2.2
	s2.1-0.7,2.2-1.8c0-0.1,0-0.2,0-0.2C235.3,84.1,234.5,83.2,233.4,83.2z M233.4,86.6c-0.8,0.1-1.5-0.4-1.6-1.2
	c-0.1-0.8,0.4-1.5,1.2-1.6s1.5,0.4,1.6,1.2c0,0.1,0,0.2,0,0.2C234.7,85.9,234.1,86.5,233.4,86.6z M208.2,114c-0.3-0.2-0.6-0.3-1-0.3
	c-0.3,0-0.5,0.1-0.8,0.2c-0.3,0.1-0.5,0.4-0.7,0.6l0,0c0,0,0,0.1-0.1,0.1c-0.2,0.3-0.3,0.7-0.3,1.1l0,0c0,1,0.8,1.9,1.8,2
	c0.4,0,0.8-0.2,1.1-0.4c0.4-0.4,0.7-1,0.7-1.6C209,115,208.7,114.4,208.2,114L208.2,114z M207.8,116.9c-0.2,0.1-0.4,0.2-0.6,0.2
	c-0.7-0.1-1.2-0.7-1.2-1.4c0-0.3,0.1-0.6,0.3-0.9l0,0c0.1-0.2,0.3-0.3,0.4-0.4l0,0c0.1-0.1,0.3-0.1,0.4-0.1c0.2,0,0.4,0.1,0.6,0.2
	c0.7,0.5,0.8,1.4,0.3,2.1C207.9,116.8,207.9,116.9,207.8,116.9L207.8,116.9z M181.4,83.2c-1.1-0.1-2.1,0.7-2.2,1.8
	c-0.1,1.1,0.7,2.1,1.8,2.2s2.1-0.7,2.2-1.8c0-0.1,0-0.2,0-0.2C183.2,84.2,182.4,83.3,181.4,83.2z M181.4,86.6
	c-0.8,0.1-1.5-0.4-1.6-1.2c-0.1-0.8,0.4-1.5,1.2-1.6c0.8-0.1,1.5,0.4,1.6,1.2c0,0.1,0,0.1,0,0.2C182.6,85.9,182.1,86.6,181.4,86.6z
	 M208.2,114c-0.3-0.2-0.6-0.3-1-0.3c-0.3,0-0.5,0.1-0.8,0.2c-0.3,0.1-0.5,0.4-0.7,0.6l0,0c0,0,0,0.1-0.1,0.1
	c-0.2,0.3-0.3,0.7-0.3,1.1l0,0c0,1,0.8,1.9,1.8,2c0.4,0,0.8-0.2,1.1-0.4c0.4-0.4,0.7-1,0.7-1.6C209,115,208.7,114.4,208.2,114z
	 M207.8,116.9c-0.2,0.1-0.4,0.2-0.6,0.2c-0.7-0.1-1.2-0.7-1.2-1.4c0-0.3,0.1-0.6,0.3-0.9l0,0c0.1-0.2,0.3-0.3,0.4-0.4l0,0
	c0.1-0.1,0.3-0.1,0.4-0.1c0.2,0,0.4,0.1,0.6,0.2c0.7,0.5,0.8,1.4,0.3,2.1C207.9,116.8,207.9,116.9,207.8,116.9L207.8,116.9z
	 M181.4,83.2c-1.1-0.1-2.1,0.7-2.2,1.8c-0.1,1.1,0.7,2.1,1.8,2.2s2.1-0.7,2.2-1.8c0-0.1,0-0.2,0-0.2
	C183.2,84.2,182.4,83.3,181.4,83.2z M181.4,86.6c-0.8,0.1-1.5-0.4-1.6-1.2c-0.1-0.8,0.4-1.5,1.2-1.6c0.8-0.1,1.5,0.4,1.6,1.2
	c0,0.1,0,0.1,0,0.2C182.6,85.9,182.1,86.6,181.4,86.6z M233.4,83.2c-1.1-0.1-2.1,0.7-2.2,1.8c-0.1,1.1,0.7,2.1,1.8,2.2
	s2.1-0.7,2.2-1.8c0-0.1,0-0.2,0-0.2C235.3,84.1,234.5,83.2,233.4,83.2z M233.4,86.6c-0.8,0.1-1.5-0.4-1.6-1.2
	c-0.1-0.8,0.4-1.5,1.2-1.6s1.5,0.4,1.6,1.2c0,0.1,0,0.2,0,0.2C234.7,85.9,234.1,86.5,233.4,86.6z"/>
<linearGradient id="SVGID_3_" gradientUnits="userSpaceOnUse" x1="249.0729" y1="65.2123" x2="164.6229" y2="142.8023" gradientTransform="matrix(1 0 0 -1 0 204)">
	<stop  offset="0" style="stop-color:#77FF8D"/>
	<stop  offset="5.000000e-02" style="stop-color:#65FF9F"/>
	<stop  offset="0.19" style="stop-color:#35FFCE"/>
	<stop  offset="0.23" style="stop-color:#28FFDB"/>
	<stop  offset="0.3" style="stop-color:#13FFEF"/>
	<stop  offset="0.37" style="stop-color:#07FFFB"/>
	<stop  offset="0.44" style="stop-color:#03FFFF"/>
	<stop  offset="0.67" style="stop-color:#02B6E9"/>
	<stop  offset="0.89" style="stop-color:#0076D6"/>
	<stop  offset="1" style="stop-color:#005DCF"/>
</linearGradient>
<path class="st4" d="M172.9,66v69h68.9V66H172.9z M202.6,114.2L182,89.7c1,0.3,2.1-0.2,2.6-1.2l19.6,23.3
	C203.1,112.2,202.5,113.2,202.6,114.2L202.6,114.2z M214.1,111.5l-2.6,3c0.3-1.1-0.3-2.2-1.3-2.6l1.8-2.1l18.2-21.3
	c0.6,0.7,1.5,1.2,2.4,1.4L214.1,111.5z M234.1,88.3H234c-1,0.1-2-0.2-2.7-1l-0.1-0.2c-0.1-0.1-0.1-0.2-0.2-0.3l-0.1-0.2h-13.1
	l-3.8,9.4h3.6v2h-9.4v14.9l0.2,0.1c0.1,0.1,0.2,0.1,0.3,0.2l0.1,0.1l0.1,0.1c0.8,0.8,1.2,1.9,1,3c-0.2,1.4-1.4,2.5-2.9,2.6
	c-1.5,0-2.7-1.2-2.9-2.6v-0.1c-0.1-1.1,0.3-2.2,1.1-2.9l0.3-0.2c0.1-0.1,0.2-0.1,0.3-0.2l0.2-0.1v-15h-9.4v-2h3.3l-2.9-1.8l0.5-0.9
	l2.8,1.7l-3.3-8.4H184l-0.1,0.2c-0.1,0.1-0.1,0.2-0.2,0.3l-0.2,0.2c-0.7,0.8-1.7,1.1-2.7,1l0,0h-0.1c-1.4-0.4-2.3-1.6-2.3-3.1
	c-0.1-1.7,1.2-3.1,2.9-3.1c0,0,0,0,0.1,0c1.1,0,2.1,0.6,2.6,1.6L184,84h14.9l4,10.2l0.9-3l1,0.3l-1.2,4.1l-0.3,0.5h0.6h7.2l4.8-12
	h14.9l0.1-0.2c0.5-1,1.5-1.6,2.6-1.6c1.7,0,3,1.4,2.9,3.1c0,0,0,0,0,0.1C236.3,86.7,235.4,87.9,234.1,88.3L234.1,88.3z"/>
<linearGradient id="SVGID_4_" gradientUnits="userSpaceOnUse" x1="241.3633" y1="56.8118" x2="156.9033" y2="134.4018" gradientTransform="matrix(1 0 0 -1 0 204)">
	<stop  offset="0" style="stop-color:#77FF8D"/>
	<stop  offset="5.000000e-02" style="stop-color:#65FF9F"/>
	<stop  offset="0.19" style="stop-color:#35FFCE"/>
	<stop  offset="0.23" style="stop-color:#28FFDB"/>
	<stop  offset="0.3" style="stop-color:#13FFEF"/>
	<stop  offset="0.37" style="stop-color:#07FFFB"/>
	<stop  offset="0.44" style="stop-color:#03FFFF"/>
	<stop  offset="0.67" style="stop-color:#02B6E9"/>
	<stop  offset="0.89" style="stop-color:#0076D6"/>
	<stop  offset="1" style="stop-color:#005DCF"/>
</linearGradient>
<path class="st5" d="M208.4,115.8c0,0.5-0.2,0.9-0.6,1.2c-0.2,0.1-0.4,0.2-0.6,0.2c-0.7-0.1-1.2-0.7-1.2-1.4c0-0.3,0.1-0.6,0.3-0.9
	l0,0c0.1-0.2,0.3-0.3,0.4-0.4l0,0c0.1-0.1,0.3-0.1,0.4-0.1c0.2,0,0.4,0.1,0.6,0.2C208.1,114.8,208.3,115.3,208.4,115.8z"/>
<path class="st6" d="M283.6,129.3c-0.2,0-0.3,0-0.5-0.1c-0.2-0.1-0.3-0.1-0.4-0.3c-0.1-0.1-0.2-0.2-0.2-0.4c0,0,0-0.1,0-0.1
	l3.3-10.8c0.1-0.2,0.2-0.4,0.4-0.4c0.2-0.1,0.5-0.2,0.7-0.2c0.2,0,0.5,0,0.7,0.2c0.2,0.1,0.4,0.2,0.4,0.4l3.3,10.8c0,0,0,0.1,0,0.1
	c0,0.1-0.1,0.3-0.2,0.4c-0.1,0.1-0.3,0.2-0.4,0.3c-0.2,0.1-0.3,0.1-0.5,0.1c-0.1,0-0.3,0-0.4-0.1c-0.1-0.1-0.2-0.2-0.2-0.3l-0.7-2.4
	h-4.1l-0.7,2.4c0,0.1-0.1,0.2-0.2,0.3C283.8,129.3,283.7,129.3,283.6,129.3z M285.3,125.1h3.3l-1.7-5.7L285.3,125.1z"/>
<path class="st6" d="M303.3,129.4c-0.6,0-1.3-0.1-1.8-0.4c-0.6-0.2-1-0.7-1.3-1.2c-0.4-0.7-0.5-1.4-0.5-2.2v-4.8
	c0-0.8,0.1-1.5,0.5-2.2c0.3-0.5,0.8-0.9,1.3-1.2c1.2-0.5,2.6-0.5,3.8,0c0.5,0.2,1,0.6,1.3,1.1c0.3,0.5,0.5,1,0.5,1.6
	c0,0.4-0.1,0.6-0.2,0.7c-0.2,0.1-0.4,0.2-0.7,0.2c-0.2,0-0.4,0-0.6-0.2c-0.2-0.1-0.3-0.3-0.2-0.4c0-0.2,0-0.3-0.1-0.5
	c0-0.2-0.1-0.4-0.2-0.6c-0.1-0.2-0.3-0.4-0.6-0.5c-0.3-0.1-0.7-0.2-1-0.2c-0.5,0-1.1,0.2-1.5,0.5c-0.4,0.5-0.6,1-0.5,1.6v4.8
	c0,0.6,0.1,1.2,0.5,1.6c0.4,0.4,1,0.6,1.5,0.5c0.3,0,0.7-0.1,1-0.2c0.2-0.1,0.4-0.3,0.6-0.5c0.1-0.2,0.2-0.4,0.2-0.6
	c0-0.2,0.1-0.4,0.1-0.6c0-0.2,0.1-0.4,0.2-0.4c0.2-0.1,0.4-0.1,0.6-0.1c0.2,0,0.5,0,0.7,0.2c0.2,0.2,0.3,0.5,0.2,0.7
	c0,0.6-0.2,1.1-0.5,1.6c-0.3,0.5-0.8,0.9-1.3,1.1C304.7,129.3,304,129.4,303.3,129.4z"/>
<path class="st6" d="M311.3,129.3c-0.2,0-0.4-0.1-0.5-0.1c-0.2-0.1-0.3-0.3-0.2-0.4v-11c0-0.2,0.1-0.4,0.3-0.4
	c0.2-0.1,0.4-0.1,0.6-0.1c0.2,0,0.4,0,0.6,0.1c0.2,0.1,0.3,0.2,0.3,0.4v10h4.3c0.2,0,0.3,0.1,0.4,0.2c0.1,0.2,0.1,0.4,0.1,0.5
	c0,0.2,0,0.4-0.1,0.5c-0.1,0.2-0.2,0.3-0.4,0.2L311.3,129.3z"/>
<path class="st6" d="M323.7,129.4c-0.7,0-1.3-0.1-1.9-0.4c-0.6-0.2-1.1-0.6-1.4-1.2c-0.4-0.7-0.5-1.4-0.5-2.2v-8
	c0-0.2,0.1-0.4,0.3-0.4c0.2-0.1,0.4-0.1,0.6-0.1c0.2,0,0.4,0,0.6,0.1c0.2,0.1,0.3,0.2,0.3,0.4v8c-0.1,0.6,0.1,1.2,0.5,1.6
	c0.4,0.4,0.9,0.6,1.5,0.5c0.6,0,1.1-0.2,1.5-0.5c0.4-0.4,0.6-1,0.5-1.6v-8c0-0.2,0.1-0.4,0.3-0.4c0.2-0.1,0.4-0.1,0.6-0.1
	c0.2,0,0.4,0,0.6,0.1c0.2,0.1,0.3,0.2,0.3,0.4v8c0,0.8-0.1,1.5-0.5,2.2c-0.3,0.5-0.8,0.9-1.4,1.2C325,129.3,324.4,129.4,323.7,129.4
	z"/>
<path class="st6" d="M332.3,129.3c-0.2,0-0.4-0.1-0.6-0.2c-0.1-0.1-0.2-0.2-0.2-0.4v-11c0-0.2,0.1-0.4,0.2-0.4
	c0.2-0.1,0.3-0.1,0.5-0.1h3c0.6,0,1.1,0.1,1.7,0.2c0.5,0.1,0.9,0.4,1.2,0.8c0.3,0.5,0.5,1.2,0.5,1.8c0,0.6-0.1,1.2-0.4,1.7
	c-0.2,0.4-0.6,0.8-1,1c0.3,0.1,0.6,0.3,0.9,0.5c0.3,0.2,0.5,0.5,0.6,0.9c0.2,0.4,0.2,0.9,0.2,1.4v0.3c0,0.7-0.1,1.4-0.4,2
	c-0.3,0.5-0.7,0.9-1.2,1.1c-0.5,0.2-1.1,0.4-1.7,0.3L332.3,129.3z M333.3,122h2c0.5,0,0.9-0.1,1.2-0.4c0.3-0.4,0.4-0.8,0.4-1.3
	c0-0.3-0.1-0.6-0.2-0.9c-0.1-0.2-0.3-0.4-0.6-0.5c-0.3-0.1-0.6-0.2-0.9-0.2h-2L333.3,122z M333.3,127.7h2.1c0.5,0,1-0.1,1.4-0.5
	c0.4-0.4,0.5-1,0.5-1.6v-0.3c0.1-0.6-0.1-1.1-0.5-1.5c-0.4-0.3-0.9-0.5-1.4-0.4h-2.1V127.7z"/>
<path class="st6" d="M348.5,129.3c-0.2,0-0.4,0-0.6-0.1c-0.2-0.1-0.3-0.3-0.3-0.4v-11c0-0.2,0.1-0.3,0.2-0.4
	c0.2-0.1,0.3-0.1,0.5-0.1h5.8c0.2,0,0.3,0.1,0.4,0.2c0.1,0.2,0.1,0.3,0.1,0.5c0,0.2,0,0.4-0.1,0.6c-0.1,0.2-0.2,0.2-0.4,0.2h-4.9
	v3.8h2.6c0.2,0,0.3,0.1,0.4,0.2c0.1,0.1,0.1,0.3,0.1,0.5c0,0.2,0,0.3-0.1,0.4c-0.1,0.2-0.3,0.2-0.4,0.2h-2.6v4.8
	c0,0.2-0.1,0.4-0.3,0.4C349,129.2,348.8,129.3,348.5,129.3z"/>
<path class="st6" d="M361.1,129.4c-0.6,0-1.3-0.1-1.9-0.4c-0.6-0.2-1-0.7-1.3-1.2c-0.4-0.7-0.5-1.4-0.5-2.2v-4.8
	c0-0.8,0.1-1.5,0.5-2.2c0.3-0.5,0.8-0.9,1.3-1.2c1.2-0.5,2.6-0.5,3.8,0c0.6,0.2,1,0.7,1.4,1.2c0.4,0.7,0.5,1.4,0.5,2.2v4.8
	c0,0.8-0.1,1.5-0.5,2.2c-0.3,0.5-0.8,0.9-1.3,1.2C362.4,129.3,361.7,129.4,361.1,129.4z M361.1,127.8c0.5,0,1.1-0.2,1.5-0.5
	c0.4-0.4,0.6-1,0.5-1.6v-4.8c0-0.6-0.1-1.2-0.5-1.6c-0.4-0.4-0.9-0.5-1.5-0.5c-0.5,0-1.1,0.2-1.5,0.5c-0.4,0.4-0.6,1-0.5,1.6v4.8
	c0,0.6,0.1,1.2,0.5,1.6C360,127.7,360.5,127.9,361.1,127.8z"/>
<path class="st6" d="M375.3,129.3c-0.1,0-0.3-0.1-0.4-0.1c-0.1-0.1-0.2-0.2-0.3-0.4l-2.4-4.8h-1.7v4.6c0,0.2-0.1,0.4-0.3,0.4
	c-0.4,0.2-0.8,0.2-1.2,0c-0.2-0.1-0.3-0.2-0.3-0.4v-11c0-0.1,0.1-0.3,0.2-0.4c0.1-0.1,0.3-0.2,0.4-0.2h3.1c0.7,0,1.3,0.1,1.9,0.3
	c0.5,0.2,1,0.5,1.4,1c0.4,0.6,0.6,1.3,0.5,2c0,0.6-0.1,1.1-0.3,1.7c-0.2,0.4-0.5,0.7-0.8,1c-0.4,0.3-0.8,0.5-1.2,0.6l2.3,4.4
	c0,0,0,0.1,0,0.1c0,0,0,0.1,0,0.1c0,0.2-0.1,0.3-0.2,0.4c-0.1,0.1-0.3,0.3-0.4,0.3C375.6,129.2,375.5,129.3,375.3,129.3z
	 M370.5,122.7h2c0.5,0,1.1-0.1,1.5-0.4c0.4-0.4,0.6-1,0.6-1.5c0.1-0.6-0.1-1.1-0.6-1.5c-0.4-0.3-1-0.5-1.5-0.4h-2V122.7z"/>
<path class="st6" d="M388.5,129.4c-0.2,0-0.5-0.1-0.7-0.1c-0.2-0.1-0.4-0.2-0.4-0.4l-3.3-10.8c0,0,0-0.1,0-0.2
	c0-0.1,0.1-0.3,0.2-0.4c0.1-0.1,0.3-0.2,0.4-0.2c0.2-0.1,0.3-0.1,0.5-0.1c0.1,0,0.3,0,0.4,0.1c0.1,0.1,0.2,0.2,0.2,0.3l2.7,9.5
	l2.7-9.5c0-0.1,0.1-0.2,0.2-0.3c0.1-0.1,0.2-0.1,0.4-0.1c0.2,0,0.3,0,0.5,0.1c0.2,0.1,0.3,0.1,0.4,0.2c0.1,0.1,0.2,0.2,0.2,0.4
	c0,0,0,0,0,0.1c0,0,0,0.1,0,0.1l-3.3,10.8c-0.1,0.2-0.2,0.4-0.4,0.4C389,129.3,388.8,129.4,388.5,129.4z"/>
<path class="st6" d="M396.9,129.3c-0.2,0-0.4-0.1-0.5-0.1c-0.2-0.1-0.3-0.3-0.2-0.4v-11c0-0.2,0.1-0.4,0.3-0.4
	c0.2-0.1,0.4-0.1,0.6-0.1c0.2,0,0.4,0,0.6,0.1c0.2,0.1,0.3,0.2,0.3,0.4v10h4.3c0.2,0,0.3,0.1,0.4,0.2c0.1,0.2,0.1,0.4,0.1,0.5
	c0,0.2,0,0.4-0.1,0.5c-0.1,0.2-0.2,0.3-0.4,0.2L396.9,129.3z"/>
<path class="st6" d="M408.9,129.4c-0.7,0-1.3-0.1-1.9-0.3c-0.5-0.2-0.9-0.4-1.3-0.8c-0.3-0.2-0.4-0.5-0.5-0.9c0-0.1,0-0.3,0.1-0.4
	c0.1-0.1,0.2-0.3,0.3-0.4c0.1-0.1,0.2-0.2,0.4-0.2c0.2,0,0.3,0.1,0.4,0.2c0.1,0.1,0.3,0.3,0.5,0.4c0.2,0.2,0.5,0.4,0.8,0.5
	c0.4,0.1,0.8,0.2,1.1,0.2c0.4,0,0.7-0.1,1.1-0.2c0.6-0.3,1-0.9,1-1.6c0-0.4-0.1-0.7-0.3-1c-0.2-0.3-0.5-0.5-0.8-0.7
	c-0.3-0.2-0.7-0.4-1-0.5c-0.4-0.2-0.8-0.3-1.1-0.5c-0.4-0.2-0.7-0.4-1.1-0.6c-0.3-0.3-0.6-0.6-0.8-1c-0.4-1-0.4-2,0-3
	c0.2-0.4,0.5-0.7,0.9-1c0.4-0.2,0.8-0.4,1.2-0.5c0.4-0.1,0.9-0.1,1.4-0.2c0.3,0,0.6,0,0.9,0.1c0.3,0,0.7,0.1,1,0.2
	c0.3,0.1,0.6,0.2,0.8,0.4c0.2,0.1,0.3,0.3,0.3,0.6c0,0.1,0,0.3-0.1,0.4c-0.1,0.1-0.1,0.3-0.2,0.4c-0.1,0.1-0.3,0.2-0.4,0.2
	c-0.2,0-0.3-0.1-0.5-0.2c-0.2-0.1-0.5-0.2-0.7-0.3c-0.4-0.1-0.7-0.2-1.1-0.2c-0.4,0-0.7,0-1.1,0.2c-0.3,0.1-0.5,0.3-0.7,0.5
	c-0.2,0.2-0.3,0.6-0.3,0.9c0,0.3,0.1,0.6,0.3,0.9c0.2,0.2,0.5,0.4,0.8,0.6c0.3,0.2,0.7,0.3,1,0.5c0.4,0.1,0.8,0.3,1.1,0.5
	c0.4,0.2,0.7,0.4,1.1,0.7c0.3,0.3,0.6,0.7,0.8,1.1c0.4,1.2,0.4,2.5-0.2,3.6c-0.3,0.5-0.8,0.9-1.3,1.2
	C410.2,129.3,409.5,129.4,408.9,129.4z"/>
<path class="st6" d="M417,129.3c-0.2,0-0.4,0-0.6-0.1c-0.2-0.1-0.3-0.3-0.3-0.4v-11c0-0.2,0.1-0.4,0.3-0.4c0.4-0.2,0.8-0.2,1.2,0
	c0.2,0.1,0.3,0.2,0.3,0.4v11c0,0.2-0.1,0.4-0.3,0.4C417.4,129.2,417.2,129.3,417,129.3z"/>
<path class="st6" d="M427.9,129.3c-0.2,0-0.4,0-0.5-0.1c-0.2-0.1-0.3-0.3-0.2-0.4v-11c0-0.2,0.1-0.3,0.2-0.4
	c0.2-0.1,0.4-0.1,0.5-0.1h5.9c0.2,0,0.4,0.1,0.5,0.2c0.1,0.2,0.1,0.3,0.1,0.5c0,0.2,0,0.4-0.1,0.6c-0.1,0.2-0.3,0.2-0.4,0.2h-4.9
	v3.8h2.5c0.2,0,0.3,0.1,0.4,0.2c0.1,0.1,0.2,0.3,0.1,0.5c0,0.2-0.1,0.3-0.1,0.4c-0.1,0.2-0.3,0.2-0.5,0.2h-2.5v3.8h4.9
	c0.2,0,0.3,0.1,0.4,0.2c0.1,0.2,0.2,0.4,0.1,0.6c0,0.2,0,0.4-0.1,0.5c-0.1,0.2-0.3,0.3-0.5,0.2L427.9,129.3z"/>
<path class="st6" d="M438.5,129.3c-0.2,0-0.4-0.1-0.6-0.1c-0.2-0.1-0.3-0.2-0.3-0.4v-11c0-0.2,0.1-0.4,0.3-0.4
	c0.2-0.1,0.4-0.1,0.6-0.1c0.2,0,0.4,0,0.5,0.1c0.2,0.1,0.3,0.2,0.4,0.3c0.1,0.2,0.3,0.4,0.4,0.6l3.7,7.2v-7.6c0-0.2,0.1-0.4,0.3-0.4
	c0.2-0.1,0.4-0.1,0.6-0.1c0.2,0,0.4,0,0.6,0.1c0.2,0.1,0.3,0.2,0.3,0.4v11c0,0.2-0.1,0.4-0.3,0.4c-0.2,0.1-0.4,0.2-0.6,0.1
	c-0.2,0-0.4-0.1-0.6-0.2c-0.2-0.1-0.3-0.3-0.5-0.5l-4-7.6v7.6c0,0.2-0.1,0.4-0.3,0.4C438.9,129.2,438.7,129.3,438.5,129.3z"/>
<path class="st6" d="M452.4,129.3c-0.2,0-0.4,0-0.6-0.1c-0.2-0.1-0.3-0.2-0.3-0.4v-10H449c-0.2,0-0.3-0.1-0.4-0.2
	c-0.1-0.2-0.2-0.4-0.1-0.6c0-0.2,0-0.4,0.1-0.6c0.1-0.2,0.3-0.3,0.4-0.2h6.9c0.2,0,0.4,0.1,0.5,0.2c0.1,0.2,0.1,0.4,0.1,0.5
	c0,0.2,0,0.4-0.1,0.6c-0.1,0.2-0.3,0.3-0.4,0.2h-2.6v10c0,0.2-0.1,0.4-0.3,0.4C452.9,129.2,452.6,129.3,452.4,129.3z"/>
<path class="st6" d="M460.5,129.3c-0.2,0-0.4,0-0.6-0.1c-0.2-0.1-0.3-0.3-0.3-0.4v-11c0-0.2,0.1-0.4,0.3-0.4
	c0.2-0.1,0.4-0.1,0.6-0.1c0.2,0,0.4,0,0.6,0.1c0.2,0.1,0.3,0.2,0.3,0.4v4.6h4.1v-4.6c0-0.2,0.1-0.4,0.3-0.4c0.2-0.1,0.4-0.1,0.6-0.1
	c0.2,0,0.4,0,0.6,0.1c0.2,0.1,0.3,0.2,0.3,0.4v11c0,0.2-0.1,0.4-0.3,0.4c-0.2,0.1-0.4,0.1-0.6,0.1c-0.2,0-0.4,0-0.6-0.1
	c-0.2-0.1-0.3-0.2-0.3-0.4v-5h-4.1v5c0,0.2-0.1,0.4-0.3,0.4C460.9,129.2,460.7,129.3,460.5,129.3z"/>
<path class="st6" d="M475,129.4c-0.7,0-1.3-0.1-1.9-0.4c-0.6-0.2-1-0.6-1.4-1.2c-0.4-0.7-0.5-1.4-0.5-2.2v-8c0-0.2,0.1-0.4,0.3-0.4
	c0.2-0.1,0.4-0.1,0.6-0.1c0.2,0,0.4,0,0.6,0.1c0.2,0.1,0.3,0.2,0.3,0.4v8c0,0.6,0.1,1.2,0.5,1.6c0.9,0.7,2.1,0.7,3,0
	c0.4-0.4,0.6-1,0.5-1.6v-8c0-0.2,0.1-0.4,0.3-0.4c0.2-0.1,0.4-0.1,0.6-0.1c0.2,0,0.4,0,0.6,0.1c0.2,0.1,0.3,0.2,0.3,0.4v8
	c0,0.8-0.1,1.5-0.5,2.2c-0.3,0.5-0.8,0.9-1.4,1.2C476.3,129.3,475.7,129.4,475,129.4z"/>
<path class="st6" d="M485.8,129.4c-0.7,0-1.3-0.1-1.9-0.3c-0.5-0.2-0.9-0.4-1.3-0.8c-0.3-0.2-0.4-0.5-0.5-0.9c0-0.1,0-0.3,0.1-0.4
	c0.1-0.1,0.2-0.3,0.3-0.4c0.1-0.1,0.2-0.2,0.4-0.2c0.2,0,0.3,0.1,0.4,0.2l0.5,0.4c0.2,0.2,0.5,0.4,0.8,0.5c0.4,0.1,0.8,0.2,1.1,0.2
	c0.4,0,0.7-0.1,1.1-0.2c0.3-0.1,0.6-0.3,0.8-0.6c0.2-0.3,0.3-0.6,0.3-1c0-0.4-0.1-0.7-0.3-1c-0.2-0.3-0.5-0.5-0.8-0.7
	c-0.3-0.2-0.7-0.4-1-0.5c-0.4-0.2-0.8-0.3-1.1-0.5c-0.4-0.2-0.7-0.4-1.1-0.6c-0.3-0.3-0.6-0.6-0.8-1c-0.4-1-0.4-2.1,0-3
	c0.2-0.4,0.5-0.7,0.9-1c0.4-0.2,0.8-0.4,1.2-0.5c0.4-0.1,0.9-0.1,1.3-0.2c0.3,0,0.6,0,0.9,0.1c0.3,0,0.7,0.1,1,0.2
	c0.3,0.1,0.6,0.2,0.8,0.4c0.2,0.1,0.3,0.3,0.3,0.6c0,0.1,0,0.3-0.1,0.4c0,0.1-0.1,0.3-0.2,0.4c-0.1,0.1-0.2,0.2-0.4,0.2
	c-0.2,0-0.3-0.1-0.5-0.2c-0.2-0.1-0.5-0.2-0.7-0.3c-0.4-0.1-0.7-0.2-1.1-0.2c-0.4,0-0.7,0-1.1,0.2c-0.3,0.1-0.5,0.3-0.7,0.5
	c-0.2,0.2-0.3,0.6-0.3,0.9c0,0.3,0.1,0.6,0.3,0.9c0.2,0.2,0.5,0.4,0.8,0.6c0.3,0.2,0.7,0.3,1.1,0.5c0.4,0.1,0.8,0.3,1.1,0.5
	c0.4,0.2,0.7,0.4,1.1,0.7c0.3,0.3,0.6,0.7,0.8,1.1c0.2,0.5,0.3,1,0.3,1.6c0,0.7-0.1,1.4-0.5,2c-0.3,0.5-0.8,0.9-1.4,1.2
	C487.2,129.3,486.5,129.4,485.8,129.4z"/>
<path class="st6" d="M494,129.3c-0.2,0-0.4,0-0.6-0.1c-0.2-0.1-0.3-0.3-0.3-0.4v-11c0-0.2,0.1-0.4,0.3-0.4c0.2-0.1,0.4-0.1,0.6-0.1
	c0.2,0,0.4,0,0.6,0.1c0.2,0.1,0.3,0.2,0.3,0.4v11c0,0.2-0.1,0.4-0.3,0.4C494.4,129.2,494.2,129.3,494,129.3z"/>
<path class="st6" d="M499.1,129.3c-0.2,0-0.3,0-0.5-0.1c-0.2-0.1-0.3-0.1-0.4-0.3c-0.1-0.1-0.2-0.2-0.2-0.4c0,0,0-0.1,0-0.1
	l3.3-10.8c0.1-0.2,0.2-0.4,0.4-0.4c0.2-0.1,0.5-0.2,0.7-0.2c0.2,0,0.5,0,0.7,0.2c0.2,0.1,0.4,0.2,0.4,0.4l3.3,10.8c0,0,0,0.1,0,0.1
	c0,0.1-0.1,0.3-0.2,0.4c-0.1,0.1-0.3,0.2-0.4,0.3c-0.2,0.1-0.3,0.1-0.5,0.1c-0.1,0-0.3,0-0.4-0.1c-0.1-0.1-0.2-0.2-0.2-0.3l-0.7-2.4
	h-4.1l-0.7,2.4c0,0.1-0.1,0.2-0.2,0.3C499.4,129.3,499.2,129.3,499.1,129.3z M500.8,125.1h3.3l-1.7-5.7L500.8,125.1z"/>
<path class="st6" d="M513.1,129.4c-0.7,0-1.3-0.1-1.9-0.3c-0.5-0.2-0.9-0.4-1.3-0.8c-0.3-0.2-0.4-0.5-0.5-0.9c0-0.1,0-0.3,0.1-0.4
	c0.1-0.1,0.2-0.3,0.3-0.4c0.1-0.1,0.2-0.2,0.4-0.2c0.2,0,0.3,0.1,0.4,0.2l0.5,0.4c0.2,0.2,0.5,0.4,0.8,0.5c0.4,0.1,0.8,0.2,1.2,0.2
	c0.4,0,0.7-0.1,1.1-0.2c0.3-0.1,0.6-0.3,0.7-0.6c0.2-0.3,0.3-0.6,0.3-1c0-0.4-0.1-0.7-0.3-1c-0.2-0.3-0.5-0.5-0.8-0.7
	c-0.3-0.2-0.7-0.4-1.1-0.5c-0.4-0.2-0.8-0.3-1.1-0.5c-0.4-0.2-0.7-0.4-1.1-0.6c-0.3-0.3-0.6-0.6-0.8-1c-0.2-0.4-0.3-0.9-0.3-1.4
	c0-0.5,0.1-1.1,0.3-1.5c0.2-0.4,0.5-0.7,0.9-1c0.4-0.2,0.8-0.4,1.2-0.5c0.4-0.1,0.9-0.1,1.3-0.2c0.3,0,0.6,0,0.9,0.1
	c0.3,0,0.7,0.1,1,0.2c0.3,0.1,0.6,0.2,0.8,0.4c0.2,0.1,0.3,0.3,0.3,0.6c0,0.3-0.1,0.6-0.3,0.8c-0.1,0.1-0.3,0.2-0.4,0.2
	c-0.2,0-0.3-0.1-0.5-0.2c-0.2-0.1-0.5-0.2-0.7-0.3c-0.4-0.1-0.7-0.2-1.1-0.2c-0.4,0-0.7,0-1.1,0.2c-0.3,0.1-0.5,0.3-0.7,0.5
	c-0.2,0.2-0.3,0.6-0.3,0.9c0,0.3,0.1,0.6,0.3,0.9c0.2,0.2,0.5,0.4,0.8,0.6c0.3,0.2,0.7,0.3,1.1,0.5c0.4,0.1,0.8,0.3,1.1,0.5
	c0.4,0.2,0.7,0.4,1.1,0.7c0.3,0.3,0.6,0.7,0.8,1.1c0.2,0.5,0.3,1,0.3,1.6c0,0.7-0.1,1.4-0.5,2c-0.3,0.5-0.8,0.9-1.3,1.2
	C514.5,129.3,513.8,129.4,513.1,129.4z"/>
<path class="st6" d="M523.5,129.3c-0.2,0-0.4,0-0.6-0.1c-0.2-0.1-0.3-0.2-0.3-0.4v-10H520c-0.2,0-0.3-0.1-0.4-0.2
	c-0.1-0.2-0.1-0.4-0.1-0.6c0-0.2,0-0.4,0.1-0.6c0.1-0.2,0.3-0.3,0.4-0.2h6.9c0.2,0,0.4,0.1,0.5,0.2c0.1,0.2,0.1,0.4,0.1,0.5
	c0,0.2,0,0.4-0.2,0.6c-0.1,0.2-0.3,0.3-0.4,0.2h-2.5v10c0,0.2-0.1,0.4-0.3,0.4C523.9,129.2,523.7,129.3,523.5,129.3z"/>
<path class="st6" d="M533.5,129.4c-0.7,0-1.3-0.1-1.9-0.3c-0.5-0.2-0.9-0.4-1.3-0.8c-0.3-0.2-0.4-0.5-0.5-0.9c0-0.1,0-0.3,0.1-0.4
	c0.1-0.1,0.2-0.3,0.3-0.4c0.1-0.1,0.2-0.2,0.4-0.2c0.2,0,0.3,0.1,0.4,0.2c0.1,0.1,0.3,0.3,0.5,0.4c0.2,0.2,0.5,0.4,0.8,0.5
	c0.4,0.1,0.8,0.2,1.2,0.2c0.4,0,0.7-0.1,1.1-0.2c0.3-0.1,0.6-0.3,0.7-0.6c0.2-0.3,0.3-0.6,0.3-1c0-0.4-0.1-0.7-0.3-1
	c-0.2-0.3-0.5-0.5-0.8-0.7c-0.3-0.2-0.7-0.4-1.1-0.5c-0.4-0.2-0.8-0.3-1.1-0.5c-0.4-0.2-0.7-0.4-1.1-0.6c-0.3-0.3-0.6-0.6-0.8-1
	c-0.2-0.4-0.3-0.9-0.3-1.4c0-0.5,0.1-1.1,0.3-1.5c0.2-0.4,0.5-0.7,0.9-1c0.4-0.2,0.8-0.4,1.2-0.5c0.4-0.1,0.9-0.1,1.3-0.2
	c0.3,0,0.6,0,0.9,0.1c0.3,0,0.7,0.1,1,0.2c0.3,0.1,0.6,0.2,0.8,0.4c0.2,0.1,0.3,0.3,0.3,0.6c0,0.3-0.1,0.6-0.3,0.8
	c-0.1,0.1-0.3,0.2-0.4,0.2c-0.2,0-0.3-0.1-0.5-0.2c-0.2-0.1-0.5-0.2-0.7-0.3c-0.4-0.1-0.7-0.2-1.1-0.2c-0.4,0-0.7,0-1.1,0.2
	c-0.3,0.1-0.5,0.3-0.7,0.5c-0.2,0.2-0.3,0.6-0.3,0.9c0,0.3,0.1,0.6,0.3,0.9c0.2,0.2,0.5,0.4,0.8,0.6c0.3,0.2,0.7,0.3,1.1,0.5
	c0.4,0.1,0.8,0.3,1.2,0.5c0.4,0.2,0.7,0.4,1.1,0.7c0.3,0.3,0.6,0.7,0.8,1.1c0.2,0.5,0.3,1,0.3,1.6c0,0.7-0.1,1.4-0.5,2
	c-0.3,0.5-0.8,0.9-1.3,1.2C534.9,129.3,534.2,129.4,533.5,129.4z"/>
<path class="st1" d="M426,74c-0.7,1.9-1.3,3.9-2,5.9c-0.7,2-1.3,3.9-2,5.9c-0.7,1.9-1.4,3.8-2.1,5.6l-0.8,2.2l2.5,6.2
	c1.6-3.6,3.2-7.3,4.7-11.2c1.8-4.8,3.6-9.7,5.3-14.5H426z M415.9,91.3c-0.4-1.1-0.8-2.2-1.2-3.4c-0.3-0.7-0.5-1.5-0.8-2.2
	c-0.7-1.9-1.4-3.9-2.1-5.9s-1.4-3.9-2-5.9h-5.7c1.6,4.8,3.4,9.7,5.3,14.5c1.9,4.8,3.9,9.5,5.9,13.9h5l-2.5-6.5
	C417.1,94.5,416.5,93,415.9,91.3z"/>
<polygon class="st1" points="438.6,83.4 432.7,80.6 438.7,77.8 444.6,80.5 "/>
<path class="st1" d="M438.6,84l-7-3.4l7.1-3.3l7.1,3.2L438.6,84z M433.9,80.6l4.7,2.3l4.9-2.4l-4.8-2.2L433.9,80.6z"/>
<path class="st1" d="M438.7,87.1c-1.5,0-3-0.5-4.3-1.3l-0.2-0.1v-4h1V85c2.1,1.4,4.8,1.4,6.9,0l-0.1-3.4h1l0.1,4l-0.2,0.2
	C441.7,86.6,440.2,87.1,438.7,87.1z"/>
<rect x="444.1" y="80.5" class="st1" width="1" height="5.5"/>
<circle class="st1" cx="444.6" cy="86.8" r="0.7"/>
<path class="st1" d="M444.6,88c-0.7,0-1.2-0.5-1.2-1.2c0-0.7,0.5-1.2,1.2-1.2s1.2,0.5,1.2,1.2c0,0,0,0,0,0
	C445.8,87.4,445.3,88,444.6,88z M444.6,86.5c-0.1,0-0.2,0.1-0.2,0.2c0,0.3,0.5,0.3,0.5,0C444.8,86.6,444.7,86.5,444.6,86.5
	C444.6,86.5,444.6,86.5,444.6,86.5L444.6,86.5z"/>
<rect x="435.2" y="88.4" class="st1" width="6.6" height="13.3"/>
<polygon class="st1" points="296.1,84.4 299.3,74.9 309.1,74.9 309.1,73.3 298.1,73.3 294.6,83.9 "/>
<polygon class="st1" points="287.6,84.4 289.2,83.9 285.6,73.3 274.6,73.3 274.6,74.9 284.4,74.9 "/>
<rect x="283.9" y="83.3" class="st1" width="15.7" height="1.6"/>
<rect x="290.9" y="84.2" class="st1" width="1.6" height="13.9"/>
<polygon class="st1" points="287.9,84.4 287.9,84.4 288.9,84.4 290.2,79.2 289.2,78.9 288.1,83.2 284.7,80.8 284.1,81.7 "/>
<path class="st1" d="M289.9,98.4c-0.3,0.4-0.5,0.9-0.5,1.4c0,0,0,0.1,0,0.1c0,0.1,0,0.2,0,0.3l0.2,0.2l1.3-1l-0.8-1.2l0,0
	c0,0,0,0,0,0.1L289.9,98.4z"/>
<path class="st1" d="M273.2,77.3l15.4,21.6c0-0.7,0.3-1.3,0.8-1.7l-14.5-20.4C274.4,77.2,273.8,77.4,273.2,77.3z"/>
<path class="st1" d="M272.5,76.3L272.5,76.3L272.5,76.3h0.1h0.1h0h0.3c0.4,0,0.8-0.1,1.2-0.3l0,0l-0.5-0.6L272.5,76.3z"/>
<path class="st1" d="M309.3,76.2c0.4,0.4,0.9,0.6,1.5,0.6h0.1l0.2-0.3l-1.3-1L309.3,76.2z"/>
<path class="st1" d="M294,97.3c0.5,0.4,0.8,1.1,0.7,1.8l15.6-21.6c-0.6,0.1-1.2-0.1-1.6-0.6L294,97.3z"/>
<path class="st1" d="M292.5,99.4l1.3,1l0.1-0.1l0,0l0,0c0-0.1,0-0.1,0-0.2c0-0.2,0-0.4,0-0.6c0-0.1,0-0.2-0.1-0.3
	c0-0.1-0.1-0.2-0.1-0.3l0,0c0-0.1-0.1-0.1-0.1-0.2c-0.1-0.1-0.2-0.3-0.3-0.4L292.5,99.4z"/>
<path class="st1" d="M289.5,99.8C289.4,99.8,289.4,99.8,289.5,99.8c0,0.2,0,0.3,0,0.3c0.2,1.2,1.3,2.1,2.6,1.9
	c0.9-0.1,1.7-0.8,1.9-1.8l0,0c0-0.1,0-0.1,0-0.2c0-0.2,0-0.4,0-0.6c0-0.1,0-0.2-0.1-0.3c0-0.1-0.1-0.2-0.1-0.3l0,0
	c0-0.1-0.1-0.1-0.1-0.2c-0.1-0.1-0.2-0.3-0.3-0.4l0,0c-0.2-0.2-0.5-0.4-0.8-0.5c-0.3-0.1-0.5-0.2-0.8-0.2c-0.3,0-0.6,0.1-0.8,0.2
	c-0.3,0.1-0.6,0.3-0.8,0.5c0,0,0,0,0,0l-0.1,0.2c-0.1,0.1-0.1,0.1-0.1,0.2c-0.1,0.1-0.1,0.3-0.2,0.4c-0.1,0.2-0.1,0.4-0.1,0.6
	c0,0,0,0,0,0.1C289.5,99.7,289.5,99.7,289.5,99.8z M290.9,99.8c0-0.4,0.4-0.8,0.8-0.8c0.4,0,0.8,0.4,0.8,0.8c0,0.4-0.4,0.8-0.8,0.8
	C291.3,100.6,290.9,100.2,290.9,99.8z"/>
<path class="st1" d="M270.9,74.2c0,1,0.7,1.9,1.6,2.2l0,0h0.1h0.1h0h0.3h0.3c0.3,0,0.6-0.2,0.8-0.3h0.1l0,0c0.4-0.3,0.7-0.7,0.9-1.1
	c0.1-0.2,0.1-0.5,0.1-0.8c0-0.3-0.1-0.6-0.2-0.9c-0.5-1.1-1.8-1.7-3-1.2C271.4,72.4,270.8,73.2,270.9,74.2L270.9,74.2z M272.3,74.2
	c0-0.4,0.4-0.8,0.8-0.8c0.4,0,0.8,0.4,0.8,0.8c0,0.4-0.4,0.8-0.8,0.8C272.7,75,272.3,74.6,272.3,74.2L272.3,74.2z"/>
<path class="st1" d="M308.5,74.5c0,0.2,0,0.3,0,0.5c0.1,0.5,0.3,0.9,0.7,1.2c0.2,0.2,0.5,0.3,0.7,0.4c0.1,0,0.2,0.1,0.3,0.1l0,0
	c0.1,0,0.2,0,0.3,0h0.1h0.2c1.3-0.1,2.2-1.1,2.2-2.4s-1.1-2.2-2.4-2.2C309.5,72.2,308.5,73.2,308.5,74.5L308.5,74.5z M310.8,75.3
	c-0.5,0-0.8-0.4-0.8-0.8v0c0-0.4,0.4-0.8,0.8-0.8c0.4,0,0.8,0.4,0.8,0.8C311.6,74.9,311.3,75.3,310.8,75.3z"/>
<circle class="st1" cx="383.1" cy="79.9" r="1.5"/>
<circle class="st1" cx="379.1" cy="96.6" r="1.5"/>
<polygon class="st1" points="384,102.4 374,102.4 374,71.6 384,71.6 384,77.2 379.6,77.2 379.6,95.6 378.2,95.6 378.2,75.7 
	382.5,75.7 382.5,73 375.4,73 375.4,100.9 382.5,100.9 382.5,80.6 384,80.6 "/>
<text transform="matrix(1 0 0 1 447.4 102.02)" class="st1 st7 st8">rtuosos</text>
<polygon class="st1" points="341.2,102.7 316.9,102.7 316.9,91.9 318.4,91.9 318.4,101.3 339.8,101.3 339.8,98.5 321.3,98.5 
	321.3,88 316.9,88 316.9,73 318.4,73 318.4,86.5 322.8,86.5 322.8,97.1 341.2,97.1 "/>
<polygon class="st1" points="338.3,94.1 325.5,94.1 325.5,73.5 322.5,73.5 322.5,82.2 321.1,82.2 321.1,72.1 327,72.1 327,92.7 
	338.3,92.7 "/>
<circle class="st1" cx="339.4" cy="93.6" r="1.5"/>
<circle class="st1" cx="317.8" cy="91.1" r="1.5"/>
<circle class="st1" cx="322" cy="82.7" r="1.5"/>
<circle class="st1" cx="317.6" cy="73.9" r="1.5"/>
<linearGradient id="SVGID_5_" gradientUnits="userSpaceOnUse" x1="169.5285" y1="168.1985" x2="279.3286" y2="62.4285" gradientTransform="matrix(1 0 0 -1 0 204)">
	<stop  offset="0" style="stop-color:#005DCF"/>
	<stop  offset="0.54" style="stop-color:#03FFFF"/>
	<stop  offset="0.61" style="stop-color:#0FFFF3"/>
	<stop  offset="0.76" style="stop-color:#31FFD2"/>
	<stop  offset="0.94" style="stop-color:#66FF9E"/>
	<stop  offset="1" style="stop-color:#77FF8D"/>
</linearGradient>
<polygon class="st9" points="253.9,147.1 219.6,147.1 219.6,141.4 248.3,141.4 248.3,59.7 219.6,59.7 219.6,54.1 253.9,54.1 "/>
<linearGradient id="SVGID_6_" gradientUnits="userSpaceOnUse" x1="141.2896" y1="138.8795" x2="251.0896" y2="33.1096" gradientTransform="matrix(1 0 0 -1 0 204)">
	<stop  offset="0" style="stop-color:#005DCF"/>
	<stop  offset="0.54" style="stop-color:#03FFFF"/>
	<stop  offset="0.61" style="stop-color:#0FFFF3"/>
	<stop  offset="0.76" style="stop-color:#31FFD2"/>
	<stop  offset="0.94" style="stop-color:#66FF9E"/>
	<stop  offset="1" style="stop-color:#77FF8D"/>
</linearGradient>
<polygon class="st10" points="195.3,147.1 160.9,147.1 160.9,54.1 195.3,54.1 195.3,59.7 166.6,59.7 166.6,141.4 195.3,141.4 "/>
<linearGradient id="SVGID_7_" gradientUnits="userSpaceOnUse" x1="80.26" y1="137.7224" x2="207.99" y2="139.8424" gradientTransform="matrix(1 0 0 -1 0 204)">
	<stop  offset="0" style="stop-color:#005DCF"/>
	<stop  offset="6.000000e-02" style="stop-color:#006FD4"/>
	<stop  offset="0.38" style="stop-color:#02D6F3"/>
	<stop  offset="0.53" style="stop-color:#03FFFF"/>
	<stop  offset="0.61" style="stop-color:#0FFFF3"/>
	<stop  offset="0.75" style="stop-color:#31FFD2"/>
	<stop  offset="0.94" style="stop-color:#66FF9E"/>
	<stop  offset="1" style="stop-color:#77FF8D"/>
</linearGradient>
<polygon class="st11" points="145.9,72.3 140.3,72.3 134.8,66.8 107.3,66.8 100.6,59.8 101.6,58.8 107.9,65.4 135.4,65.4 
	140.9,70.9 145.9,70.9 "/>
<linearGradient id="SVGID_8_" gradientUnits="userSpaceOnUse" x1="80.4799" y1="124.3453" x2="208.2099" y2="126.4553" gradientTransform="matrix(1 0 0 -1 0 204)">
	<stop  offset="0" style="stop-color:#005DCF"/>
	<stop  offset="6.000000e-02" style="stop-color:#006FD4"/>
	<stop  offset="0.38" style="stop-color:#02D6F3"/>
	<stop  offset="0.53" style="stop-color:#03FFFF"/>
	<stop  offset="0.61" style="stop-color:#0FFFF3"/>
	<stop  offset="0.75" style="stop-color:#31FFD2"/>
	<stop  offset="0.94" style="stop-color:#66FF9E"/>
	<stop  offset="1" style="stop-color:#77FF8D"/>
</linearGradient>
<polygon class="st12" points="146.9,81.6 140.2,81.6 135.7,77.2 129,77.2 125,81.2 113.1,81.2 113.1,79.8 124.4,79.8 128.5,75.8 
	136.3,75.8 140.8,80.2 146.9,80.2 "/>
<linearGradient id="SVGID_9_" gradientUnits="userSpaceOnUse" x1="80.7" y1="110.8007" x2="208.44" y2="112.9107" gradientTransform="matrix(1 0 0 -1 0 204)">
	<stop  offset="0" style="stop-color:#005DCF"/>
	<stop  offset="6.000000e-02" style="stop-color:#006FD4"/>
	<stop  offset="0.38" style="stop-color:#02D6F3"/>
	<stop  offset="0.53" style="stop-color:#03FFFF"/>
	<stop  offset="0.61" style="stop-color:#0FFFF3"/>
	<stop  offset="0.75" style="stop-color:#31FFD2"/>
	<stop  offset="0.94" style="stop-color:#66FF9E"/>
	<stop  offset="1" style="stop-color:#77FF8D"/>
</linearGradient>
<polygon class="st13" points="133.6,95.1 105.4,95.1 105.4,93.7 133.1,93.7 137.2,89.5 147.8,89.5 147.8,90.9 137.8,90.9 "/>
<linearGradient id="SVGID_10_" gradientUnits="userSpaceOnUse" x1="80.87" y1="100.5103" x2="208.61" y2="102.6203" gradientTransform="matrix(1 0 0 -1 0 204)">
	<stop  offset="0" style="stop-color:#005DCF"/>
	<stop  offset="6.000000e-02" style="stop-color:#006FD4"/>
	<stop  offset="0.38" style="stop-color:#02D6F3"/>
	<stop  offset="0.53" style="stop-color:#03FFFF"/>
	<stop  offset="0.61" style="stop-color:#0FFFF3"/>
	<stop  offset="0.75" style="stop-color:#31FFD2"/>
	<stop  offset="0.94" style="stop-color:#66FF9E"/>
	<stop  offset="1" style="stop-color:#77FF8D"/>
</linearGradient>
<polygon class="st14" points="136.9,106.2 127.4,106.2 127.4,104.7 136.4,104.7 142.2,98.9 148.9,98.9 148.9,100.3 142.8,100.3 "/>
<linearGradient id="SVGID_11_" gradientUnits="userSpaceOnUse" x1="81.0199" y1="91.6032" x2="208.7499" y2="93.7132" gradientTransform="matrix(1 0 0 -1 0 204)">
	<stop  offset="0" style="stop-color:#005DCF"/>
	<stop  offset="6.000000e-02" style="stop-color:#006FD4"/>
	<stop  offset="0.38" style="stop-color:#02D6F3"/>
	<stop  offset="0.53" style="stop-color:#03FFFF"/>
	<stop  offset="0.61" style="stop-color:#0FFFF3"/>
	<stop  offset="0.75" style="stop-color:#31FFD2"/>
	<stop  offset="0.94" style="stop-color:#66FF9E"/>
	<stop  offset="1" style="stop-color:#77FF8D"/>
</linearGradient>
<polygon class="st15" points="138.3,114.9 115.8,114.9 111.9,110.9 90.4,110.9 90.4,109.5 112.5,109.5 116.4,113.5 137.7,113.5 
	143.2,108 148.1,108 148.1,109.4 143.8,109.4 "/>
<linearGradient id="SVGID_12_" gradientUnits="userSpaceOnUse" x1="81.18" y1="82.1781" x2="208.91" y2="84.2881" gradientTransform="matrix(1 0 0 -1 0 204)">
	<stop  offset="0" style="stop-color:#005DCF"/>
	<stop  offset="6.000000e-02" style="stop-color:#006FD4"/>
	<stop  offset="0.38" style="stop-color:#02D6F3"/>
	<stop  offset="0.53" style="stop-color:#03FFFF"/>
	<stop  offset="0.61" style="stop-color:#0FFFF3"/>
	<stop  offset="0.75" style="stop-color:#31FFD2"/>
	<stop  offset="0.94" style="stop-color:#66FF9E"/>
	<stop  offset="1" style="stop-color:#77FF8D"/>
</linearGradient>
<polygon class="st16" points="136.2,124.4 135.2,123.4 141.4,117.3 146.6,117.3 146.6,118.7 142,118.7 "/>
<linearGradient id="SVGID_13_" gradientUnits="userSpaceOnUse" x1="81.3399" y1="72.3866" x2="209.0699" y2="74.4966" gradientTransform="matrix(1 0 0 -1 0 204)">
	<stop  offset="0" style="stop-color:#005DCF"/>
	<stop  offset="6.000000e-02" style="stop-color:#006FD4"/>
	<stop  offset="0.38" style="stop-color:#02D6F3"/>
	<stop  offset="0.53" style="stop-color:#03FFFF"/>
	<stop  offset="0.61" style="stop-color:#0FFFF3"/>
	<stop  offset="0.75" style="stop-color:#31FFD2"/>
	<stop  offset="0.94" style="stop-color:#66FF9E"/>
	<stop  offset="1" style="stop-color:#77FF8D"/>
</linearGradient>
<polygon class="st17" points="136.8,134.8 125.6,134.8 121.5,130.7 110.1,130.7 110.1,129.3 122.1,129.3 126.2,133.4 136.2,133.4 
	143.1,126.5 145.6,126.5 145.6,127.9 143.7,127.9 "/>
<linearGradient id="SVGID_14_" gradientUnits="userSpaceOnUse" x1="81.1599" y1="83.395" x2="208.8899" y2="85.505" gradientTransform="matrix(1 0 0 -1 0 204)">
	<stop  offset="0" style="stop-color:#005DCF"/>
	<stop  offset="6.000000e-02" style="stop-color:#006FD4"/>
	<stop  offset="0.38" style="stop-color:#02D6F3"/>
	<stop  offset="0.53" style="stop-color:#03FFFF"/>
	<stop  offset="0.61" style="stop-color:#0FFFF3"/>
	<stop  offset="0.75" style="stop-color:#31FFD2"/>
	<stop  offset="0.94" style="stop-color:#66FF9E"/>
	<stop  offset="1" style="stop-color:#77FF8D"/>
</linearGradient>
<polygon class="st18" points="90.6,126.5 76.1,126.5 76.1,125.1 90,125.1 94.4,120.8 111.3,120.8 114.1,118.1 127.8,118.1 
	132.2,113.7 133.2,114.7 128.4,119.5 114.7,119.5 111.9,122.2 94.9,122.2 "/>
<linearGradient id="SVGID_15_" gradientUnits="userSpaceOnUse" x1="80.33" y1="133.3293" x2="208.06" y2="135.4393" gradientTransform="matrix(1 0 0 -1 0 204)">
	<stop  offset="0" style="stop-color:#005DCF"/>
	<stop  offset="6.000000e-02" style="stop-color:#006FD4"/>
	<stop  offset="0.38" style="stop-color:#02D6F3"/>
	<stop  offset="0.53" style="stop-color:#03FFFF"/>
	<stop  offset="0.61" style="stop-color:#0FFFF3"/>
	<stop  offset="0.75" style="stop-color:#31FFD2"/>
	<stop  offset="0.94" style="stop-color:#66FF9E"/>
	<stop  offset="1" style="stop-color:#77FF8D"/>
</linearGradient>
<polygon class="st19" points="122.8,74.2 107.1,74.2 103.7,70.9 99.6,70.9 99.6,69.5 104.3,69.5 107.7,72.8 122.2,72.8 129.4,65.6 
	130.4,66.6 "/>
<linearGradient id="SVGID_16_" gradientUnits="userSpaceOnUse" x1="80.88" y1="100.0622" x2="208.61" y2="102.1822" gradientTransform="matrix(1 0 0 -1 0 204)">
	<stop  offset="0" style="stop-color:#005DCF"/>
	<stop  offset="6.000000e-02" style="stop-color:#006FD4"/>
	<stop  offset="0.38" style="stop-color:#02D6F3"/>
	<stop  offset="0.53" style="stop-color:#03FFFF"/>
	<stop  offset="0.61" style="stop-color:#0FFFF3"/>
	<stop  offset="0.75" style="stop-color:#31FFD2"/>
	<stop  offset="0.94" style="stop-color:#66FF9E"/>
	<stop  offset="1" style="stop-color:#77FF8D"/>
</linearGradient>
<polygon class="st20" points="113.4,106.3 81.2,106.3 81.2,104.9 112.8,104.9 117.4,100.4 140.9,100.4 140.9,101.8 118,101.8 "/>
<linearGradient id="SVGID_17_" gradientUnits="userSpaceOnUse" x1="80.69" y1="111.9794" x2="208.42" y2="114.0894" gradientTransform="matrix(1 0 0 -1 0 204)">
	<stop  offset="0" style="stop-color:#005DCF"/>
	<stop  offset="6.000000e-02" style="stop-color:#006FD4"/>
	<stop  offset="0.38" style="stop-color:#02D6F3"/>
	<stop  offset="0.53" style="stop-color:#03FFFF"/>
	<stop  offset="0.61" style="stop-color:#0FFFF3"/>
	<stop  offset="0.75" style="stop-color:#31FFD2"/>
	<stop  offset="0.94" style="stop-color:#66FF9E"/>
	<stop  offset="1" style="stop-color:#77FF8D"/>
</linearGradient>
<polygon class="st21" points="127,94.9 124.7,92.6 107.7,92.6 104.7,89.5 97.4,89.5 97.4,88.1 105.3,88.1 108.3,91.2 125.2,91.2 
	128,93.9 "/>
<path class="st1" d="M100,60.4c-1.3,0-2.3-1.1-2.3-2.3s1.1-2.4,2.3-2.4c1.3,0,2.3,1.1,2.3,2.3v0C102.3,59.4,101.3,60.4,100,60.4z
	 M100,57.2c-0.5,0-0.8,0.4-0.8,0.8c0,0.5,0.4,0.8,0.8,0.8c0.5,0,0.8-0.4,0.8-0.8C100.8,57.6,100.5,57.2,100,57.2L100,57.2z"/>
<path class="st1" d="M79.5,108c-1.3,0-2.3-1.1-2.3-2.3s1.1-2.3,2.3-2.3c1.3,0,2.3,1.1,2.3,2.3l0,0C81.8,106.9,80.8,108,79.5,108z
	 M79.5,104.8c-0.5,0-0.8,0.4-0.8,0.8c0,0.5,0.4,0.8,0.8,0.8c0.5,0,0.8-0.4,0.8-0.8C80.3,105.2,79.9,104.8,79.5,104.8L79.5,104.8z"/>
<path class="st1" d="M108.4,132.5c-1.3,0-2.3-1.1-2.3-2.4c0-1.3,1.1-2.3,2.3-2.3c1.3,0,2.3,1.1,2.3,2.3S109.7,132.5,108.4,132.5
	C108.4,132.5,108.4,132.5,108.4,132.5z M108.4,129.3c-0.5,0-0.8,0.4-0.8,0.8c0,0.5,0.4,0.8,0.8,0.8c0.5,0,0.8-0.4,0.8-0.8
	c0,0,0,0,0,0C109.2,129.7,108.9,129.3,108.4,129.3L108.4,129.3z"/>
<path class="st1" d="M125.8,107.9c-1.3,0-2.3-1.1-2.3-2.3s1.1-2.3,2.3-2.3c1.3,0,2.3,1.1,2.3,2.3l0,0
	C128.1,106.9,127.1,107.9,125.8,107.9z M125.8,104.7c-0.5,0-0.8,0.4-0.8,0.8c0,0.5,0.4,0.8,0.8,0.8c0.5,0,0.8-0.4,0.8-0.8
	S126.2,104.7,125.8,104.7L125.8,104.7z"/>
<circle class="st22" cx="95.8" cy="88.9" r="1.6"/>
<circle class="st22" cx="98" cy="70.2" r="1.6"/>
<circle class="st22" cx="111.5" cy="80.5" r="1.6"/>
<circle class="st22" cx="88.8" cy="110.2" r="1.6"/>
<circle class="st22" cx="134.6" cy="124.7" r="1.6"/>
<circle class="st22" cx="74.5" cy="125.9" r="1.6"/>
<circle class="st22" cx="103.8" cy="94.4" r="1.6"/>
<linearGradient id="SVGID_18_" gradientUnits="userSpaceOnUse" x1="124.5399" y1="131.4924" x2="222.0099" y2="134.3124" gradientTransform="matrix(1 0 0 -1 0 204)">
	<stop  offset="0" style="stop-color:#005DCF"/>
	<stop  offset="6.000000e-02" style="stop-color:#006FD4"/>
	<stop  offset="0.38" style="stop-color:#02D6F3"/>
	<stop  offset="0.53" style="stop-color:#03FFFF"/>
	<stop  offset="0.61" style="stop-color:#0FFFF3"/>
	<stop  offset="0.75" style="stop-color:#31FFD2"/>
	<stop  offset="0.94" style="stop-color:#66FF9E"/>
	<stop  offset="1" style="stop-color:#77FF8D"/>
</linearGradient>
<rect x="144.9" y="69.7" class="st23" width="12.2" height="4.1"/>
<linearGradient id="SVGID_19_" gradientUnits="userSpaceOnUse" x1="124.8" y1="122.25" x2="222.27" y2="125.07" gradientTransform="matrix(1 0 0 -1 0 204)">
	<stop  offset="0" style="stop-color:#005DCF"/>
	<stop  offset="6.000000e-02" style="stop-color:#006FD4"/>
	<stop  offset="0.38" style="stop-color:#02D6F3"/>
	<stop  offset="0.53" style="stop-color:#03FFFF"/>
	<stop  offset="0.61" style="stop-color:#0FFFF3"/>
	<stop  offset="0.75" style="stop-color:#31FFD2"/>
	<stop  offset="0.94" style="stop-color:#66FF9E"/>
	<stop  offset="1" style="stop-color:#77FF8D"/>
</linearGradient>
<rect x="144.9" y="78.9" class="st24" width="12.2" height="4.1"/>
<linearGradient id="SVGID_20_" gradientUnits="userSpaceOnUse" x1="124.8" y1="122.25" x2="222.27" y2="125.07" gradientTransform="matrix(1 0 0 -1 0 204)">
	<stop  offset="0" style="stop-color:#005DCF"/>
	<stop  offset="6.000000e-02" style="stop-color:#006FD4"/>
	<stop  offset="0.38" style="stop-color:#02D6F3"/>
	<stop  offset="0.53" style="stop-color:#03FFFF"/>
	<stop  offset="0.61" style="stop-color:#0FFFF3"/>
	<stop  offset="0.75" style="stop-color:#31FFD2"/>
	<stop  offset="0.94" style="stop-color:#66FF9E"/>
	<stop  offset="1" style="stop-color:#77FF8D"/>
</linearGradient>
<rect x="144.9" y="78.9" class="st25" width="12.2" height="4.1"/>
<linearGradient id="SVGID_21_" gradientUnits="userSpaceOnUse" x1="125.0698" y1="113.0178" x2="222.5398" y2="115.8378" gradientTransform="matrix(1 0 0 -1 0 204)">
	<stop  offset="0" style="stop-color:#005DCF"/>
	<stop  offset="6.000000e-02" style="stop-color:#006FD4"/>
	<stop  offset="0.38" style="stop-color:#02D6F3"/>
	<stop  offset="0.53" style="stop-color:#03FFFF"/>
	<stop  offset="0.61" style="stop-color:#0FFFF3"/>
	<stop  offset="0.75" style="stop-color:#31FFD2"/>
	<stop  offset="0.94" style="stop-color:#66FF9E"/>
	<stop  offset="1" style="stop-color:#77FF8D"/>
</linearGradient>
<rect x="144.9" y="88.2" class="st26" width="12.2" height="4.1"/>
<linearGradient id="SVGID_22_" gradientUnits="userSpaceOnUse" x1="125.0698" y1="113.0178" x2="222.5398" y2="115.8378" gradientTransform="matrix(1 0 0 -1 0 204)">
	<stop  offset="0" style="stop-color:#005DCF"/>
	<stop  offset="6.000000e-02" style="stop-color:#006FD4"/>
	<stop  offset="0.38" style="stop-color:#02D6F3"/>
	<stop  offset="0.53" style="stop-color:#03FFFF"/>
	<stop  offset="0.61" style="stop-color:#0FFFF3"/>
	<stop  offset="0.75" style="stop-color:#31FFD2"/>
	<stop  offset="0.94" style="stop-color:#66FF9E"/>
	<stop  offset="1" style="stop-color:#77FF8D"/>
</linearGradient>
<rect x="144.9" y="88.2" class="st27" width="12.2" height="4.1"/>
<linearGradient id="SVGID_23_" gradientUnits="userSpaceOnUse" x1="125.3398" y1="103.7756" x2="222.8098" y2="106.5956" gradientTransform="matrix(1 0 0 -1 0 204)">
	<stop  offset="0" style="stop-color:#005DCF"/>
	<stop  offset="6.000000e-02" style="stop-color:#006FD4"/>
	<stop  offset="0.38" style="stop-color:#02D6F3"/>
	<stop  offset="0.53" style="stop-color:#03FFFF"/>
	<stop  offset="0.61" style="stop-color:#0FFFF3"/>
	<stop  offset="0.75" style="stop-color:#31FFD2"/>
	<stop  offset="0.94" style="stop-color:#66FF9E"/>
	<stop  offset="1" style="stop-color:#77FF8D"/>
</linearGradient>
<rect x="144.9" y="97.4" class="st28" width="12.2" height="4.1"/>
<linearGradient id="SVGID_24_" gradientUnits="userSpaceOnUse" x1="125.3398" y1="103.7756" x2="222.8098" y2="106.5956" gradientTransform="matrix(1 0 0 -1 0 204)">
	<stop  offset="0" style="stop-color:#005DCF"/>
	<stop  offset="6.000000e-02" style="stop-color:#006FD4"/>
	<stop  offset="0.38" style="stop-color:#02D6F3"/>
	<stop  offset="0.53" style="stop-color:#03FFFF"/>
	<stop  offset="0.61" style="stop-color:#0FFFF3"/>
	<stop  offset="0.75" style="stop-color:#31FFD2"/>
	<stop  offset="0.94" style="stop-color:#66FF9E"/>
	<stop  offset="1" style="stop-color:#77FF8D"/>
</linearGradient>
<rect x="144.9" y="97.4" class="st29" width="12.2" height="4.1"/>
<linearGradient id="SVGID_25_" gradientUnits="userSpaceOnUse" x1="125.5999" y1="94.5331" x2="223.0699" y2="97.3531" gradientTransform="matrix(1 0 0 -1 0 204)">
	<stop  offset="0" style="stop-color:#005DCF"/>
	<stop  offset="6.000000e-02" style="stop-color:#006FD4"/>
	<stop  offset="0.38" style="stop-color:#02D6F3"/>
	<stop  offset="0.53" style="stop-color:#03FFFF"/>
	<stop  offset="0.61" style="stop-color:#0FFFF3"/>
	<stop  offset="0.75" style="stop-color:#31FFD2"/>
	<stop  offset="0.94" style="stop-color:#66FF9E"/>
	<stop  offset="1" style="stop-color:#77FF8D"/>
</linearGradient>
<rect x="144.9" y="106.7" class="st30" width="12.2" height="4.1"/>
<linearGradient id="SVGID_26_" gradientUnits="userSpaceOnUse" x1="125.5999" y1="94.5331" x2="223.0699" y2="97.3531" gradientTransform="matrix(1 0 0 -1 0 204)">
	<stop  offset="0" style="stop-color:#005DCF"/>
	<stop  offset="6.000000e-02" style="stop-color:#006FD4"/>
	<stop  offset="0.38" style="stop-color:#02D6F3"/>
	<stop  offset="0.53" style="stop-color:#03FFFF"/>
	<stop  offset="0.61" style="stop-color:#0FFFF3"/>
	<stop  offset="0.75" style="stop-color:#31FFD2"/>
	<stop  offset="0.94" style="stop-color:#66FF9E"/>
	<stop  offset="1" style="stop-color:#77FF8D"/>
</linearGradient>
<rect x="144.9" y="106.7" class="st31" width="12.2" height="4.1"/>
<linearGradient id="SVGID_27_" gradientUnits="userSpaceOnUse" x1="125.87" y1="85.2909" x2="223.34" y2="88.1109" gradientTransform="matrix(1 0 0 -1 0 204)">
	<stop  offset="0" style="stop-color:#005DCF"/>
	<stop  offset="6.000000e-02" style="stop-color:#006FD4"/>
	<stop  offset="0.38" style="stop-color:#02D6F3"/>
	<stop  offset="0.53" style="stop-color:#03FFFF"/>
	<stop  offset="0.61" style="stop-color:#0FFFF3"/>
	<stop  offset="0.75" style="stop-color:#31FFD2"/>
	<stop  offset="0.94" style="stop-color:#66FF9E"/>
	<stop  offset="1" style="stop-color:#77FF8D"/>
</linearGradient>
<rect x="144.9" y="115.9" class="st32" width="12.2" height="4.1"/>
<linearGradient id="SVGID_28_" gradientUnits="userSpaceOnUse" x1="125.87" y1="85.2909" x2="223.34" y2="88.1109" gradientTransform="matrix(1 0 0 -1 0 204)">
	<stop  offset="0" style="stop-color:#005DCF"/>
	<stop  offset="6.000000e-02" style="stop-color:#006FD4"/>
	<stop  offset="0.38" style="stop-color:#02D6F3"/>
	<stop  offset="0.53" style="stop-color:#03FFFF"/>
	<stop  offset="0.61" style="stop-color:#0FFFF3"/>
	<stop  offset="0.75" style="stop-color:#31FFD2"/>
	<stop  offset="0.94" style="stop-color:#66FF9E"/>
	<stop  offset="1" style="stop-color:#77FF8D"/>
</linearGradient>
<rect x="144.9" y="115.9" class="st33" width="12.2" height="4.1"/>
<linearGradient id="SVGID_29_" gradientUnits="userSpaceOnUse" x1="126.1397" y1="76.0587" x2="223.6098" y2="78.8787" gradientTransform="matrix(1 0 0 -1 0 204)">
	<stop  offset="0" style="stop-color:#005DCF"/>
	<stop  offset="6.000000e-02" style="stop-color:#006FD4"/>
	<stop  offset="0.38" style="stop-color:#02D6F3"/>
	<stop  offset="0.53" style="stop-color:#03FFFF"/>
	<stop  offset="0.61" style="stop-color:#0FFFF3"/>
	<stop  offset="0.75" style="stop-color:#31FFD2"/>
	<stop  offset="0.94" style="stop-color:#66FF9E"/>
	<stop  offset="1" style="stop-color:#77FF8D"/>
</linearGradient>
<rect x="144.9" y="125.2" class="st34" width="12.2" height="4.1"/>
</svg>
