<svg id="Layer_1" data-name="Layer 1" xmlns="http://www.w3.org/2000/svg" xmlns:xlink="http://www.w3.org/1999/xlink" viewBox="0 0 611.29 202.54"><defs><style>.cls-1,.cls-6{fill:#150087;}.cls-2{fill:url(#linear-gradient);}.cls-3{fill:url(#linear-gradient-2);}.cls-4{fill:url(#linear-gradient-3);}.cls-5{fill:url(#linear-gradient-4);}.cls-6{font-size:26.42px;font-family:Ubuntu-Bold, Ubuntu;font-weight:700;}.cls-7{fill:url(#linear-gradient-5);}.cls-8{fill:url(#linear-gradient-6);}.cls-9{fill:url(#linear-gradient-7);}.cls-10{fill:url(#linear-gradient-8);}.cls-11{fill:url(#linear-gradient-9);}.cls-12{fill:url(#linear-gradient-10);}.cls-13{fill:url(#linear-gradient-11);}.cls-14{fill:url(#linear-gradient-12);}.cls-15{fill:url(#linear-gradient-13);}.cls-16{fill:url(#linear-gradient-14);}.cls-17{fill:url(#linear-gradient-15);}.cls-18{fill:url(#linear-gradient-16);}.cls-19{fill:url(#linear-gradient-17);}.cls-20{fill:url(#linear-gradient-18);}.cls-21{fill:url(#linear-gradient-19);}.cls-22{fill:url(#linear-gradient-20);}.cls-23{fill:url(#linear-gradient-21);}.cls-24{fill:url(#linear-gradient-22);}.cls-25{fill:url(#linear-gradient-23);}.cls-26{fill:url(#linear-gradient-24);}.cls-27{fill:url(#linear-gradient-26);}.cls-28{fill:url(#linear-gradient-28);}.cls-29{fill:url(#linear-gradient-29);}.cls-30{fill:url(#linear-gradient-30);}.cls-31{fill:url(#linear-gradient-32);}.cls-32{fill:url(#linear-gradient-34);}.cls-33{fill:url(#linear-gradient-35);}.cls-34{fill:url(#linear-gradient-36);}.cls-35{fill:url(#linear-gradient-37);}.cls-36{fill:url(#linear-gradient-39);}.cls-37{fill:url(#linear-gradient-41);}.cls-38{fill:url(#linear-gradient-43);}.cls-39{fill:url(#linear-gradient-45);}.cls-40{fill:url(#linear-gradient-47);}</style><linearGradient id="linear-gradient" x1="161.24" y1="66.51" x2="260.89" y2="152.36" gradientUnits="userSpaceOnUse"><stop offset="0" stop-color="#001caf"/><stop offset="0.3" stop-color="#006eb9"/><stop offset="0.64" stop-color="#00a995"/><stop offset="1" stop-color="#00aa4f"/></linearGradient><linearGradient id="linear-gradient-2" x1="161.24" y1="66.51" x2="260.89" y2="152.36" xlink:href="#linear-gradient"/><linearGradient id="linear-gradient-3" x1="161.24" y1="66.51" x2="260.89" y2="152.36" xlink:href="#linear-gradient"/><linearGradient id="linear-gradient-4" x1="153.6" y1="75.38" x2="253.25" y2="161.23" xlink:href="#linear-gradient"/><linearGradient id="linear-gradient-5" x1="87.22" y1="121" x2="180.4" y2="121.96" xlink:href="#linear-gradient"/><linearGradient id="linear-gradient-6" x1="87.39" y1="104.19" x2="180.58" y2="105.15" xlink:href="#linear-gradient"/><linearGradient id="linear-gradient-7" x1="87.51" y1="92.27" x2="180.7" y2="93.23" xlink:href="#linear-gradient"/><linearGradient id="linear-gradient-8" x1="87.78" y1="66.28" x2="180.97" y2="67.24" xlink:href="#linear-gradient"/><linearGradient id="linear-gradient-9" x1="87.65" y1="79.25" x2="180.83" y2="80.22" xlink:href="#linear-gradient"/><linearGradient id="linear-gradient-10" x1="87.51" y1="92.96" x2="180.69" y2="93.92" xlink:href="#linear-gradient"/><linearGradient id="linear-gradient-11" x1="87.4" y1="103.06" x2="180.59" y2="104.02" xlink:href="#linear-gradient"/><linearGradient id="linear-gradient-12" x1="87.31" y1="112.02" x2="180.49" y2="112.98" xlink:href="#linear-gradient"/><linearGradient id="linear-gradient-13" x1="87.21" y1="121.37" x2="180.4" y2="122.34" xlink:href="#linear-gradient"/><linearGradient id="linear-gradient-14" x1="87.11" y1="131.21" x2="180.3" y2="132.18" xlink:href="#linear-gradient"/><linearGradient id="linear-gradient-15" x1="87.74" y1="70.67" x2="180.92" y2="71.63" xlink:href="#linear-gradient"/><linearGradient id="linear-gradient-16" x1="82.64" y1="52.07" x2="202.56" y2="118.27" xlink:href="#linear-gradient"/><linearGradient id="linear-gradient-17" x1="103.48" y1="103.03" x2="160.91" y2="95.7" xlink:href="#linear-gradient"/><linearGradient id="linear-gradient-18" x1="83.65" y1="132.23" x2="177.61" y2="127.31" xlink:href="#linear-gradient"/><linearGradient id="linear-gradient-19" x1="92.02" y1="111" x2="179.09" y2="97.77" xlink:href="#linear-gradient"/><linearGradient id="linear-gradient-20" x1="83.32" y1="89.86" x2="215.75" y2="90.36" xlink:href="#linear-gradient"/><linearGradient id="linear-gradient-21" x1="83.32" y1="89.86" x2="215.75" y2="90.36" xlink:href="#linear-gradient"/><linearGradient id="linear-gradient-22" x1="82.94" y1="70.79" x2="205.35" y2="75.29" xlink:href="#linear-gradient"/><linearGradient id="linear-gradient-23" x1="82.94" y1="70.79" x2="205.35" y2="75.29" xlink:href="#linear-gradient"/><linearGradient id="linear-gradient-24" x1="92.56" y1="95.57" x2="156.77" y2="94.03" xlink:href="#linear-gradient"/><linearGradient id="linear-gradient-26" x1="95.68" y1="81.11" x2="154.43" y2="82.57" xlink:href="#linear-gradient"/><linearGradient id="linear-gradient-28" x1="81.12" y1="111.26" x2="170.71" y2="111.15" xlink:href="#linear-gradient"/><linearGradient id="linear-gradient-29" x1="81.12" y1="111.26" x2="170.71" y2="111.15" xlink:href="#linear-gradient"/><linearGradient id="linear-gradient-30" x1="94.43" y1="132.19" x2="170.56" y2="118.41" xlink:href="#linear-gradient"/><linearGradient id="linear-gradient-32" x1="66.57" y1="126.79" x2="163.16" y2="123.51" xlink:href="#linear-gradient"/><linearGradient id="linear-gradient-34" x1="167.37" y1="36.57" x2="305.09" y2="176.33" xlink:href="#linear-gradient"/><linearGradient id="linear-gradient-35" x1="137.6" y1="65.9" x2="275.32" y2="205.66" xlink:href="#linear-gradient"/><linearGradient id="linear-gradient-36" x1="94.92" y1="69.64" x2="316.66" y2="83.04" xlink:href="#linear-gradient"/><linearGradient id="linear-gradient-37" x1="94.36" y1="78.86" x2="316.1" y2="92.26" xlink:href="#linear-gradient"/><linearGradient id="linear-gradient-39" x1="93.8" y1="88.07" x2="315.55" y2="101.47" xlink:href="#linear-gradient"/><linearGradient id="linear-gradient-41" x1="93.25" y1="97.29" x2="314.99" y2="110.68" xlink:href="#linear-gradient"/><linearGradient id="linear-gradient-43" x1="92.69" y1="106.5" x2="314.43" y2="119.9" xlink:href="#linear-gradient"/><linearGradient id="linear-gradient-45" x1="92.13" y1="115.71" x2="313.88" y2="129.11" xlink:href="#linear-gradient"/><linearGradient id="linear-gradient-47" x1="91.58" y1="124.93" x2="313.32" y2="138.33" xlink:href="#linear-gradient"/></defs><title>vvl_cw_svg</title><path class="cls-1" d="M350.86,104.57a39.53,39.53,0,0,1-8.82-1.44l-.54-.16.24-8.82.85.17c.22,0,2.08.63,5,1.56,3.84,1.24,4.91-.85,4.95-.94a2.78,2.78,0,0,0-.17-2.09c-.57-1.13-2-2-4.07-2.61-6.36-1.73-7.27-6.28-7.38-7s-1.3-5.11,4.13-9.41c5.6-4.43,16.38-1.73,16.84-1.61l.58.15-.35,4.74-.82-.18c-.05,0-5.1-1.11-8.8-.43-2.48.46-4.33,1.43-5.19,2.74a4.06,4.06,0,0,0-.45,3.25c.25,1.1,2,2.63,3.81,3.41,1.66.7,3.26,1.53,3.94,1.89l2.76-1.37a20.88,20.88,0,0,0-2.78-1.37l-.73-.3a15,15,0,0,1-3-1.48,2.48,2.48,0,0,1-1.21-2.47c.16-.81.89-1.89,3.45-2.51a16.44,16.44,0,0,1,7.26.61l-.43.58-.72,0,.72,0-.25.67c-.36-.11-4.12-1-6.24-.46-1.62.39-2.28,1-2.37,1.39s.43.85.65,1a14.56,14.56,0,0,0,2.72,1.3l.74.3c3.23,1.35,4,2.24,4.15,2.4l.54.7-5.26,2.62-.33-.19s-2.07-1.13-4.14-2-4.26-2.64-4.67-4.43a5.44,5.44,0,0,1,.66-4.37c1.39-2.1,4.1-3,6.14-3.37a26.4,26.4,0,0,1,8.56.29l.14-1.87c-2.29-.49-10.64-2-15,1.48-4.93,3.9-3.69,7.71-3.63,7.87l0,.16c0,.17.57,4.26,6.33,5.83,2.56.69,4.24,1.83,5,3.39a4.26,4.26,0,0,1,.19,3.28c0,.06-1.61,3.39-6.72,1.74l-4-1.27-.16,5.89c1.5.39,5.77,1.42,8.63,1.22,2-.13,5.62-.76,8-3.48a8,8,0,0,0,1.57-5.44,13.51,13.51,0,0,0-1-4l-2.68,1.54c.37,1.18,1,3.87.14,5.81a5.92,5.92,0,0,1-3.66,3.14,13.66,13.66,0,0,1-8.69-.48l.67-1.28a12.39,12.39,0,0,0,7.55.39,4.56,4.56,0,0,0,2.81-2.38c.75-1.61,0-4.34-.38-5.26l-.23-.58,5-2.89.37.61A14.21,14.21,0,0,1,362.59,94a9.47,9.47,0,0,1-1.92,6.54c-2.68,3.13-6.77,3.84-9,4Z"/><circle class="cls-1" cx="346.1" cy="99.77" r="1.54"/><circle class="cls-1" cx="359.96" cy="79.52" r="1.54"/><path class="cls-2" d="M228.17,84.76a1.72,1.72,0,1,0,1.51,1.71A1.62,1.62,0,0,0,228.17,84.76Zm0,0a1.72,1.72,0,1,0,1.51,1.71A1.62,1.62,0,0,0,228.17,84.76Zm0,0a1.72,1.72,0,1,0,1.51,1.71A1.62,1.62,0,0,0,228.17,84.76Zm0,0a1.72,1.72,0,1,0,1.51,1.71A1.62,1.62,0,0,0,228.17,84.76Zm0,0a1.72,1.72,0,1,0,1.51,1.71A1.62,1.62,0,0,0,228.17,84.76Zm0,0a1.72,1.72,0,1,0,1.51,1.71A1.62,1.62,0,0,0,228.17,84.76Zm0,0a1.72,1.72,0,1,0,1.51,1.71A1.62,1.62,0,0,0,228.17,84.76Zm0,0a1.72,1.72,0,1,0,1.51,1.71A1.62,1.62,0,0,0,228.17,84.76Zm0,0a1.72,1.72,0,1,0,1.51,1.71A1.62,1.62,0,0,0,228.17,84.76ZM202.7,115.54a1.34,1.34,0,0,0-.8-.26,1.36,1.36,0,0,0-.6.14,1.49,1.49,0,0,0-.58.51h0a1.86,1.86,0,0,0-.32,1,1.62,1.62,0,0,0,1.51,1.71,1.39,1.39,0,0,0,.89-.33,1.8,1.8,0,0,0,.62-1.38A1.76,1.76,0,0,0,202.7,115.54Zm-.17,2.61a1,1,0,0,1-.63.22,1.29,1.29,0,0,1-1.18-1.38,1.53,1.53,0,0,1,.26-.86l0,0a1.21,1.21,0,0,1,.44-.38h0a1,1,0,0,1,.45-.11,1,1,0,0,1,.58.18,1.5,1.5,0,0,1,.05,2.36Zm.17-2.61a1.34,1.34,0,0,0-.8-.26,1.36,1.36,0,0,0-.6.14,1.49,1.49,0,0,0-.58.51h0a1.86,1.86,0,0,0-.32,1,1.62,1.62,0,0,0,1.51,1.71,1.39,1.39,0,0,0,.89-.33,1.8,1.8,0,0,0,.62-1.38A1.76,1.76,0,0,0,202.7,115.54Zm-.17,2.61a1,1,0,0,1-.63.22,1.29,1.29,0,0,1-1.18-1.38,1.53,1.53,0,0,1,.26-.86l0,0a1.21,1.21,0,0,1,.44-.38h0a1,1,0,0,1,.45-.11,1,1,0,0,1,.58.18,1.5,1.5,0,0,1,.05,2.36Zm25.64-33.39a1.72,1.72,0,1,0,1.51,1.71A1.62,1.62,0,0,0,228.17,84.76Zm0,0a1.72,1.72,0,1,0,1.51,1.71A1.62,1.62,0,0,0,228.17,84.76ZM202.7,115.54a1.34,1.34,0,0,0-.8-.26,1.36,1.36,0,0,0-.6.14,1.49,1.49,0,0,0-.58.51h0a1.86,1.86,0,0,0-.32,1,1.62,1.62,0,0,0,1.51,1.71,1.39,1.39,0,0,0,.89-.33,1.8,1.8,0,0,0,.62-1.38A1.76,1.76,0,0,0,202.7,115.54Zm-.17,2.61a1,1,0,0,1-.63.22,1.29,1.29,0,0,1-1.18-1.38,1.53,1.53,0,0,1,.26-.86l0,0a1.21,1.21,0,0,1,.44-.38h0a1,1,0,0,1,.45-.11,1,1,0,0,1,.58.18,1.5,1.5,0,0,1,.05,2.36Zm.17-2.61a1.34,1.34,0,0,0-.8-.26,1.36,1.36,0,0,0-.6.14,1.49,1.49,0,0,0-.58.51h0a1.86,1.86,0,0,0-.32,1,1.62,1.62,0,0,0,1.51,1.71,1.39,1.39,0,0,0,.89-.33,1.8,1.8,0,0,0,.62-1.38A1.76,1.76,0,0,0,202.7,115.54Zm-.17,2.61a1,1,0,0,1-.63.22,1.29,1.29,0,0,1-1.18-1.38,1.53,1.53,0,0,1,.26-.86l0,0a1.21,1.21,0,0,1,.44-.38h0a1,1,0,0,1,.45-.11,1,1,0,0,1,.58.18,1.5,1.5,0,0,1,.05,2.36Zm25.64-33.39a1.72,1.72,0,1,0,1.51,1.71A1.62,1.62,0,0,0,228.17,84.76Zm0,0a1.72,1.72,0,1,0,1.51,1.71A1.62,1.62,0,0,0,228.17,84.76ZM202.7,115.54a1.34,1.34,0,0,0-.8-.26,1.36,1.36,0,0,0-.6.14,1.49,1.49,0,0,0-.58.51h0a1.86,1.86,0,0,0-.32,1,1.62,1.62,0,0,0,1.51,1.71,1.39,1.39,0,0,0,.89-.33,1.8,1.8,0,0,0,.62-1.38A1.76,1.76,0,0,0,202.7,115.54Zm-.17,2.61a1,1,0,0,1-.63.22,1.29,1.29,0,0,1-1.18-1.38,1.53,1.53,0,0,1,.26-.86l0,0a1.21,1.21,0,0,1,.44-.38h0a1,1,0,0,1,.45-.11,1,1,0,0,1,.58.18,1.5,1.5,0,0,1,.05,2.36Zm.17-2.61a1.34,1.34,0,0,0-.8-.26,1.36,1.36,0,0,0-.6.14,1.49,1.49,0,0,0-.58.51h0a1.86,1.86,0,0,0-.32,1,1.62,1.62,0,0,0,1.51,1.71,1.39,1.39,0,0,0,.89-.33,1.8,1.8,0,0,0,.62-1.38A1.76,1.76,0,0,0,202.7,115.54Zm-.17,2.61a1,1,0,0,1-.63.22,1.29,1.29,0,0,1-1.18-1.38,1.53,1.53,0,0,1,.26-.86l0,0a1.21,1.21,0,0,1,.44-.38h0a1,1,0,0,1,.45-.11,1,1,0,0,1,.58.18,1.5,1.5,0,0,1,.05,2.36Zm25.64-33.39a1.72,1.72,0,1,0,1.51,1.71A1.62,1.62,0,0,0,228.17,84.76Zm0,0a1.72,1.72,0,1,0,1.51,1.71A1.62,1.62,0,0,0,228.17,84.76ZM202.7,115.54a1.34,1.34,0,0,0-.8-.26,1.36,1.36,0,0,0-.6.14,1.49,1.49,0,0,0-.58.51h0a1.86,1.86,0,0,0-.32,1,1.62,1.62,0,0,0,1.51,1.71,1.39,1.39,0,0,0,.89-.33,1.8,1.8,0,0,0,.62-1.38A1.76,1.76,0,0,0,202.7,115.54Zm-.17,2.61a1,1,0,0,1-.63.22,1.29,1.29,0,0,1-1.18-1.38,1.53,1.53,0,0,1,.26-.86l0,0a1.21,1.21,0,0,1,.44-.38h0a1,1,0,0,1,.45-.11,1,1,0,0,1,.58.18,1.5,1.5,0,0,1,.05,2.36ZM176.09,84.77a1.72,1.72,0,1,0,1.51,1.71A1.62,1.62,0,0,0,176.09,84.77Zm0,0a1.72,1.72,0,1,0,1.51,1.71A1.62,1.62,0,0,0,176.09,84.77Zm26.61,30.77a1.34,1.34,0,0,0-.8-.26,1.36,1.36,0,0,0-.6.14,1.49,1.49,0,0,0-.58.51h0a1.86,1.86,0,0,0-.32,1,1.62,1.62,0,0,0,1.51,1.71,1.39,1.39,0,0,0,.89-.33,1.8,1.8,0,0,0,.62-1.38A1.76,1.76,0,0,0,202.7,115.54Zm-.17,2.61a1,1,0,0,1-.63.22,1.29,1.29,0,0,1-1.18-1.38,1.53,1.53,0,0,1,.26-.86l0,0a1.21,1.21,0,0,1,.44-.38h0a1,1,0,0,1,.45-.11,1,1,0,0,1,.58.18,1.5,1.5,0,0,1,.05,2.36Zm25.64-33.39a1.72,1.72,0,1,0,1.51,1.71A1.62,1.62,0,0,0,228.17,84.76Zm0,0a1.72,1.72,0,1,0,1.51,1.71A1.62,1.62,0,0,0,228.17,84.76ZM202.7,115.54a1.34,1.34,0,0,0-.8-.26,1.36,1.36,0,0,0-.6.14,1.49,1.49,0,0,0-.58.51h0a1.86,1.86,0,0,0-.32,1,1.62,1.62,0,0,0,1.51,1.71,1.39,1.39,0,0,0,.89-.33,1.8,1.8,0,0,0,.62-1.38A1.76,1.76,0,0,0,202.7,115.54Zm-.17,2.61a1,1,0,0,1-.63.22,1.29,1.29,0,0,1-1.18-1.38,1.53,1.53,0,0,1,.26-.86l0,0a1.21,1.21,0,0,1,.44-.38h0a1,1,0,0,1,.45-.11,1,1,0,0,1,.58.18,1.5,1.5,0,0,1,.05,2.36ZM176.09,84.77a1.72,1.72,0,1,0,1.51,1.71A1.62,1.62,0,0,0,176.09,84.77Zm52.08,0a1.72,1.72,0,1,0,1.51,1.71A1.62,1.62,0,0,0,228.17,84.76ZM202.7,115.54a1.34,1.34,0,0,0-.8-.26,1.36,1.36,0,0,0-.6.14,1.49,1.49,0,0,0-.58.51h0a1.86,1.86,0,0,0-.32,1,1.62,1.62,0,0,0,1.51,1.71,1.39,1.39,0,0,0,.89-.33,1.8,1.8,0,0,0,.62-1.38A1.76,1.76,0,0,0,202.7,115.54Zm-.17,2.61a1,1,0,0,1-.63.22,1.29,1.29,0,0,1-1.18-1.38,1.53,1.53,0,0,1,.26-.86l0,0a1.21,1.21,0,0,1,.44-.38h0a1,1,0,0,1,.45-.11,1,1,0,0,1,.58.18,1.5,1.5,0,0,1,.05,2.36ZM176.09,84.77a1.72,1.72,0,1,0,1.51,1.71A1.62,1.62,0,0,0,176.09,84.77Zm0,0a1.72,1.72,0,1,0,1.51,1.71A1.62,1.62,0,0,0,176.09,84.77Zm26.61,30.77a1.34,1.34,0,0,0-.8-.26,1.36,1.36,0,0,0-.6.14,1.49,1.49,0,0,0-.58.51h0a1.86,1.86,0,0,0-.32,1,1.62,1.62,0,0,0,1.51,1.71,1.39,1.39,0,0,0,.89-.33,1.8,1.8,0,0,0,.62-1.38A1.76,1.76,0,0,0,202.7,115.54Zm-.17,2.61a1,1,0,0,1-.63.22,1.29,1.29,0,0,1-1.18-1.38,1.53,1.53,0,0,1,.26-.86l0,0a1.21,1.21,0,0,1,.44-.38h0a1,1,0,0,1,.45-.11,1,1,0,0,1,.58.18,1.5,1.5,0,0,1,.05,2.36Zm25.64-33.39a1.72,1.72,0,1,0,1.51,1.71A1.62,1.62,0,0,0,228.17,84.76Zm0,0a1.72,1.72,0,1,0,1.51,1.71A1.62,1.62,0,0,0,228.17,84.76ZM202.7,115.54a1.34,1.34,0,0,0-.8-.26,1.36,1.36,0,0,0-.6.14,1.49,1.49,0,0,0-.58.51h0a1.86,1.86,0,0,0-.32,1,1.62,1.62,0,0,0,1.51,1.71,1.39,1.39,0,0,0,.89-.33,1.8,1.8,0,0,0,.62-1.38A1.76,1.76,0,0,0,202.7,115.54Zm-.17,2.61a1,1,0,0,1-.63.22,1.29,1.29,0,0,1-1.18-1.38,1.53,1.53,0,0,1,.26-.86l0,0a1.21,1.21,0,0,1,.44-.38h0a1,1,0,0,1,.45-.11,1,1,0,0,1,.58.18,1.5,1.5,0,0,1,.05,2.36ZM176.09,84.77a1.72,1.72,0,1,0,1.51,1.71A1.62,1.62,0,0,0,176.09,84.77Zm0,0a1.72,1.72,0,1,0,1.51,1.71A1.62,1.62,0,0,0,176.09,84.77Zm26.61,30.77a1.34,1.34,0,0,0-.8-.26,1.36,1.36,0,0,0-.6.14,1.49,1.49,0,0,0-.58.51h0a1.86,1.86,0,0,0-.32,1,1.62,1.62,0,0,0,1.51,1.71,1.39,1.39,0,0,0,.89-.33,1.8,1.8,0,0,0,.62-1.38A1.76,1.76,0,0,0,202.7,115.54Zm-.17,2.61a1,1,0,0,1-.63.22,1.29,1.29,0,0,1-1.18-1.38,1.53,1.53,0,0,1,.26-.86l0,0a1.21,1.21,0,0,1,.44-.38h0a1,1,0,0,1,.45-.11,1,1,0,0,1,.58.18,1.5,1.5,0,0,1,.05,2.36Zm25.64-33.39a1.72,1.72,0,1,0,1.51,1.71A1.62,1.62,0,0,0,228.17,84.76Zm0,0a1.72,1.72,0,1,0,1.51,1.71A1.62,1.62,0,0,0,228.17,84.76ZM202.7,115.54a1.34,1.34,0,0,0-.8-.26,1.36,1.36,0,0,0-.6.14,1.49,1.49,0,0,0-.58.51h0a1.86,1.86,0,0,0-.32,1,1.62,1.62,0,0,0,1.51,1.71,1.39,1.39,0,0,0,.89-.33,1.8,1.8,0,0,0,.62-1.38A1.76,1.76,0,0,0,202.7,115.54Zm-.17,2.61a1,1,0,0,1-.63.22,1.29,1.29,0,0,1-1.18-1.38,1.53,1.53,0,0,1,.26-.86l0,0a1.21,1.21,0,0,1,.44-.38h0a1,1,0,0,1,.45-.11,1,1,0,0,1,.58.18,1.5,1.5,0,0,1,.05,2.36ZM176.09,84.77a1.72,1.72,0,1,0,1.51,1.71A1.62,1.62,0,0,0,176.09,84.77Zm-8.76-17.84v69.6h69.6V66.93ZM236.6,136.2H167.66V67.26H236.6Zm-8.43-48a1.72,1.72,0,1,0-1.51-1.71A1.62,1.62,0,0,0,228.17,88.18ZM201.9,118.7a1.39,1.39,0,0,0,.89-.33,1.8,1.8,0,0,0,.62-1.38,1.76,1.76,0,0,0-.71-1.45,1.34,1.34,0,0,0-.8-.26,1.36,1.36,0,0,0-.6.14,1.49,1.49,0,0,0-.58.51h0a1.86,1.86,0,0,0-.32,1A1.62,1.62,0,0,0,201.9,118.7Zm-.92-2.57,0,0a1.21,1.21,0,0,1,.44-.38h0a1,1,0,0,1,.45-.11,1,1,0,0,1,.58.18,1.5,1.5,0,0,1,.05,2.36,1,1,0,0,1-.63.22,1.29,1.29,0,0,1-1.18-1.38A1.53,1.53,0,0,1,201,116.13ZM176.09,88.19a1.72,1.72,0,1,0-1.51-1.71A1.62,1.62,0,0,0,176.09,88.19Zm0-3.42a1.72,1.72,0,1,0,1.51,1.71A1.62,1.62,0,0,0,176.09,84.77Zm26.61,30.77a1.34,1.34,0,0,0-.8-.26,1.36,1.36,0,0,0-.6.14,1.49,1.49,0,0,0-.58.51h0a1.86,1.86,0,0,0-.32,1,1.62,1.62,0,0,0,1.51,1.71,1.39,1.39,0,0,0,.89-.33,1.8,1.8,0,0,0,.62-1.38A1.76,1.76,0,0,0,202.7,115.54Zm-.17,2.61a1,1,0,0,1-.63.22,1.29,1.29,0,0,1-1.18-1.38,1.53,1.53,0,0,1,.26-.86l0,0a1.21,1.21,0,0,1,.44-.38h0a1,1,0,0,1,.45-.11,1,1,0,0,1,.58.18,1.5,1.5,0,0,1,.05,2.36Zm25.64-33.39a1.72,1.72,0,1,0,1.51,1.71A1.62,1.62,0,0,0,228.17,84.76Zm0,0a1.72,1.72,0,1,0,1.51,1.71A1.62,1.62,0,0,0,228.17,84.76ZM202.7,115.54a1.34,1.34,0,0,0-.8-.26,1.36,1.36,0,0,0-.6.14,1.49,1.49,0,0,0-.58.51h0a1.86,1.86,0,0,0-.32,1,1.62,1.62,0,0,0,1.51,1.71,1.39,1.39,0,0,0,.89-.33,1.8,1.8,0,0,0,.62-1.38A1.76,1.76,0,0,0,202.7,115.54Zm-.17,2.61a1,1,0,0,1-.63.22,1.29,1.29,0,0,1-1.18-1.38,1.53,1.53,0,0,1,.26-.86l0,0a1.21,1.21,0,0,1,.44-.38h0a1,1,0,0,1,.45-.11,1,1,0,0,1,.58.18,1.5,1.5,0,0,1,.05,2.36ZM176.09,84.77a1.72,1.72,0,1,0,1.51,1.71A1.62,1.62,0,0,0,176.09,84.77Zm0,0a1.72,1.72,0,1,0,1.51,1.71A1.62,1.62,0,0,0,176.09,84.77Zm26.61,30.77a1.34,1.34,0,0,0-.8-.26,1.36,1.36,0,0,0-.6.14,1.49,1.49,0,0,0-.58.51h0a1.86,1.86,0,0,0-.32,1,1.62,1.62,0,0,0,1.51,1.71,1.39,1.39,0,0,0,.89-.33,1.8,1.8,0,0,0,.62-1.38A1.76,1.76,0,0,0,202.7,115.54Zm-.17,2.61a1,1,0,0,1-.63.22,1.29,1.29,0,0,1-1.18-1.38,1.53,1.53,0,0,1,.26-.86l0,0a1.21,1.21,0,0,1,.44-.38h0a1,1,0,0,1,.45-.11,1,1,0,0,1,.58.18,1.5,1.5,0,0,1,.05,2.36Zm25.64-33.39a1.72,1.72,0,1,0,1.51,1.71A1.62,1.62,0,0,0,228.17,84.76Zm0,0a1.72,1.72,0,1,0,1.51,1.71A1.62,1.62,0,0,0,228.17,84.76ZM202.7,115.54a1.34,1.34,0,0,0-.8-.26,1.36,1.36,0,0,0-.6.14,1.49,1.49,0,0,0-.58.51h0a1.86,1.86,0,0,0-.32,1,1.62,1.62,0,0,0,1.51,1.71,1.39,1.39,0,0,0,.89-.33,1.8,1.8,0,0,0,.62-1.38A1.76,1.76,0,0,0,202.7,115.54Zm-.17,2.61a1,1,0,0,1-.63.22,1.29,1.29,0,0,1-1.18-1.38,1.53,1.53,0,0,1,.26-.86l0,0a1.21,1.21,0,0,1,.44-.38h0a1,1,0,0,1,.45-.11,1,1,0,0,1,.58.18,1.5,1.5,0,0,1,.05,2.36ZM176.09,84.77a1.72,1.72,0,1,0,1.51,1.71A1.62,1.62,0,0,0,176.09,84.77Zm52.08,0a1.72,1.72,0,1,0,1.51,1.71A1.62,1.62,0,0,0,228.17,84.76ZM202.7,115.54a1.34,1.34,0,0,0-.8-.26,1.36,1.36,0,0,0-.6.14,1.49,1.49,0,0,0-.58.51h0a1.86,1.86,0,0,0-.32,1,1.62,1.62,0,0,0,1.51,1.71,1.39,1.39,0,0,0,.89-.33,1.8,1.8,0,0,0,.62-1.38A1.76,1.76,0,0,0,202.7,115.54Zm-.17,2.61a1,1,0,0,1-.63.22,1.29,1.29,0,0,1-1.18-1.38,1.53,1.53,0,0,1,.26-.86l0,0a1.21,1.21,0,0,1,.44-.38h0a1,1,0,0,1,.45-.11,1,1,0,0,1,.58.18,1.5,1.5,0,0,1,.05,2.36ZM176.09,84.77a1.72,1.72,0,1,0,1.51,1.71A1.62,1.62,0,0,0,176.09,84.77Zm0,0a1.72,1.72,0,1,0,1.51,1.71A1.62,1.62,0,0,0,176.09,84.77Zm26.61,30.77a1.34,1.34,0,0,0-.8-.26,1.36,1.36,0,0,0-.6.14,1.49,1.49,0,0,0-.58.51h0a1.86,1.86,0,0,0-.32,1,1.62,1.62,0,0,0,1.51,1.71,1.39,1.39,0,0,0,.89-.33,1.8,1.8,0,0,0,.62-1.38A1.76,1.76,0,0,0,202.7,115.54Zm-.17,2.61a1,1,0,0,1-.63.22,1.29,1.29,0,0,1-1.18-1.38,1.53,1.53,0,0,1,.26-.86l0,0a1.21,1.21,0,0,1,.44-.38h0a1,1,0,0,1,.45-.11,1,1,0,0,1,.58.18,1.5,1.5,0,0,1,.05,2.36Zm25.64-33.39a1.72,1.72,0,1,0,1.51,1.71A1.62,1.62,0,0,0,228.17,84.76Zm0,0a1.72,1.72,0,1,0,1.51,1.71A1.62,1.62,0,0,0,228.17,84.76ZM202.7,115.54a1.34,1.34,0,0,0-.8-.26,1.36,1.36,0,0,0-.6.14,1.49,1.49,0,0,0-.58.51h0a1.86,1.86,0,0,0-.32,1,1.62,1.62,0,0,0,1.51,1.71,1.39,1.39,0,0,0,.89-.33,1.8,1.8,0,0,0,.62-1.38A1.76,1.76,0,0,0,202.7,115.54Zm-.17,2.61a1,1,0,0,1-.63.22,1.29,1.29,0,0,1-1.18-1.38,1.53,1.53,0,0,1,.26-.86l0,0a1.21,1.21,0,0,1,.44-.38h0a1,1,0,0,1,.45-.11,1,1,0,0,1,.58.18,1.5,1.5,0,0,1,.05,2.36ZM176.09,84.77a1.72,1.72,0,1,0,1.51,1.71A1.62,1.62,0,0,0,176.09,84.77Zm0,0a1.72,1.72,0,1,0,1.51,1.71A1.62,1.62,0,0,0,176.09,84.77Zm26.61,30.77a1.34,1.34,0,0,0-.8-.26,1.36,1.36,0,0,0-.6.14,1.49,1.49,0,0,0-.58.51h0a1.86,1.86,0,0,0-.32,1,1.62,1.62,0,0,0,1.51,1.71,1.39,1.39,0,0,0,.89-.33,1.8,1.8,0,0,0,.62-1.38A1.76,1.76,0,0,0,202.7,115.54Zm-.17,2.61a1,1,0,0,1-.63.22,1.29,1.29,0,0,1-1.18-1.38,1.53,1.53,0,0,1,.26-.86l0,0a1.21,1.21,0,0,1,.44-.38h0a1,1,0,0,1,.45-.11,1,1,0,0,1,.58.18,1.5,1.5,0,0,1,.05,2.36Zm25.64-33.39a1.72,1.72,0,1,0,1.51,1.71A1.62,1.62,0,0,0,228.17,84.76Zm0,0a1.72,1.72,0,1,0,1.51,1.71A1.62,1.62,0,0,0,228.17,84.76ZM202.7,115.54a1.34,1.34,0,0,0-.8-.26,1.36,1.36,0,0,0-.6.14,1.49,1.49,0,0,0-.58.51h0a1.86,1.86,0,0,0-.32,1,1.62,1.62,0,0,0,1.51,1.71,1.39,1.39,0,0,0,.89-.33,1.8,1.8,0,0,0,.62-1.38A1.76,1.76,0,0,0,202.7,115.54Zm-.17,2.61a1,1,0,0,1-.63.22,1.29,1.29,0,0,1-1.18-1.38,1.53,1.53,0,0,1,.26-.86l0,0a1.21,1.21,0,0,1,.44-.38h0a1,1,0,0,1,.45-.11,1,1,0,0,1,.58.18,1.5,1.5,0,0,1,.05,2.36Zm.17-2.61a1.34,1.34,0,0,0-.8-.26,1.36,1.36,0,0,0-.6.14,1.49,1.49,0,0,0-.58.51h0a1.86,1.86,0,0,0-.32,1,1.62,1.62,0,0,0,1.51,1.71,1.39,1.39,0,0,0,.89-.33,1.8,1.8,0,0,0,.62-1.38A1.76,1.76,0,0,0,202.7,115.54Zm-.17,2.61a1,1,0,0,1-.63.22,1.29,1.29,0,0,1-1.18-1.38,1.53,1.53,0,0,1,.26-.86l0,0a1.21,1.21,0,0,1,.44-.38h0a1,1,0,0,1,.45-.11,1,1,0,0,1,.58.18,1.5,1.5,0,0,1,.05,2.36Zm25.64-33.39a1.72,1.72,0,1,0,1.51,1.71A1.62,1.62,0,0,0,228.17,84.76Zm0,0a1.72,1.72,0,1,0,1.51,1.71A1.62,1.62,0,0,0,228.17,84.76ZM202.7,115.54a1.34,1.34,0,0,0-.8-.26,1.36,1.36,0,0,0-.6.14,1.49,1.49,0,0,0-.58.51h0a1.86,1.86,0,0,0-.32,1,1.62,1.62,0,0,0,1.51,1.71,1.39,1.39,0,0,0,.89-.33,1.8,1.8,0,0,0,.62-1.38A1.76,1.76,0,0,0,202.7,115.54Zm-.17,2.61a1,1,0,0,1-.63.22,1.29,1.29,0,0,1-1.18-1.38,1.53,1.53,0,0,1,.26-.86l0,0a1.21,1.21,0,0,1,.44-.38h0a1,1,0,0,1,.45-.11,1,1,0,0,1,.58.18,1.5,1.5,0,0,1,.05,2.36Zm.17-2.61a1.34,1.34,0,0,0-.8-.26,1.36,1.36,0,0,0-.6.14,1.49,1.49,0,0,0-.58.51h0a1.86,1.86,0,0,0-.32,1,1.62,1.62,0,0,0,1.51,1.71,1.39,1.39,0,0,0,.89-.33,1.8,1.8,0,0,0,.62-1.38A1.76,1.76,0,0,0,202.7,115.54Zm-.17,2.61a1,1,0,0,1-.63.22,1.29,1.29,0,0,1-1.18-1.38,1.53,1.53,0,0,1,.26-.86l0,0a1.21,1.21,0,0,1,.44-.38h0a1,1,0,0,1,.45-.11,1,1,0,0,1,.58.18,1.5,1.5,0,0,1,.05,2.36Zm25.64-33.39a1.72,1.72,0,1,0,1.51,1.71A1.62,1.62,0,0,0,228.17,84.76Zm0,0a1.72,1.72,0,1,0,1.51,1.71A1.62,1.62,0,0,0,228.17,84.76Zm0,0a1.72,1.72,0,1,0,1.51,1.71A1.62,1.62,0,0,0,228.17,84.76Zm0,0a1.72,1.72,0,1,0,1.51,1.71A1.62,1.62,0,0,0,228.17,84.76Zm0,0a1.72,1.72,0,1,0,1.51,1.71A1.62,1.62,0,0,0,228.17,84.76Zm0,0a1.72,1.72,0,1,0,1.51,1.71A1.62,1.62,0,0,0,228.17,84.76Zm0,0a1.72,1.72,0,1,0,1.51,1.71A1.62,1.62,0,0,0,228.17,84.76Zm0,0a1.72,1.72,0,1,0,1.51,1.71A1.62,1.62,0,0,0,228.17,84.76Zm0,0a1.72,1.72,0,1,0,1.51,1.71A1.62,1.62,0,0,0,228.17,84.76Zm0,0a1.72,1.72,0,1,0,1.51,1.71A1.62,1.62,0,0,0,228.17,84.76Zm0,0a1.72,1.72,0,1,0,1.51,1.71A1.62,1.62,0,0,0,228.17,84.76Z"/><path class="cls-3" d="M228.17,84.43a2.05,2.05,0,1,0,1.84,2A1.95,1.95,0,0,0,228.17,84.43Zm0,3.42a1.4,1.4,0,1,1,1.17-1.38A1.29,1.29,0,0,1,228.17,87.85Zm-25.26,27.44a1.64,1.64,0,0,0-1-.34,1.79,1.79,0,0,0-.75.17,1.87,1.87,0,0,0-.7.62l0,0a.63.63,0,0,1-.07.12,2.19,2.19,0,0,0-.29,1.09h0a2,2,0,0,0,1.84,2,1.73,1.73,0,0,0,1.15-.45,2.14,2.14,0,0,0,.69-1.59A2.09,2.09,0,0,0,202.91,115.29Zm-.38,2.86a1,1,0,0,1-.63.22,1.29,1.29,0,0,1-1.18-1.38,1.53,1.53,0,0,1,.26-.86l0,0a1.21,1.21,0,0,1,.44-.38h0a1,1,0,0,1,.45-.11,1,1,0,0,1,.58.18,1.5,1.5,0,0,1,.05,2.36ZM176.09,84.44a2.05,2.05,0,1,0,1.84,2A2,2,0,0,0,176.09,84.44Zm0,3.42a1.4,1.4,0,1,1,1.18-1.38A1.29,1.29,0,0,1,176.09,87.86Zm52.08-3.43a2.05,2.05,0,1,0,1.84,2A1.95,1.95,0,0,0,228.17,84.43Zm0,3.42a1.4,1.4,0,1,1,1.17-1.38A1.29,1.29,0,0,1,228.17,87.85Zm-25.26,27.44a1.64,1.64,0,0,0-1-.34,1.79,1.79,0,0,0-.75.17,1.87,1.87,0,0,0-.7.62l0,0a.63.63,0,0,1-.07.12,2.19,2.19,0,0,0-.29,1.09h0a2,2,0,0,0,1.84,2,1.73,1.73,0,0,0,1.15-.45,2.14,2.14,0,0,0,.69-1.59A2.09,2.09,0,0,0,202.91,115.29Zm-.38,2.86a1,1,0,0,1-.63.22,1.29,1.29,0,0,1-1.18-1.38,1.53,1.53,0,0,1,.26-.86l0,0a1.21,1.21,0,0,1,.44-.38h0a1,1,0,0,1,.45-.11,1,1,0,0,1,.58.18,1.5,1.5,0,0,1,.05,2.36ZM176.09,84.44a2.05,2.05,0,1,0,1.84,2A2,2,0,0,0,176.09,84.44Zm0,3.42a1.4,1.4,0,1,1,1.18-1.38A1.29,1.29,0,0,1,176.09,87.86Zm52.08-3.43a2.05,2.05,0,1,0,1.84,2A1.95,1.95,0,0,0,228.17,84.43Zm0,3.42a1.4,1.4,0,1,1,1.17-1.38A1.29,1.29,0,0,1,228.17,87.85Zm-25.26,27.44a1.64,1.64,0,0,0-1-.34,1.79,1.79,0,0,0-.75.17,1.87,1.87,0,0,0-.7.62l0,0a.63.63,0,0,1-.07.12,2.19,2.19,0,0,0-.29,1.09h0a2,2,0,0,0,1.84,2,1.73,1.73,0,0,0,1.15-.45,2.14,2.14,0,0,0,.69-1.59A2.09,2.09,0,0,0,202.91,115.29Zm-.38,2.86a1,1,0,0,1-.63.22,1.29,1.29,0,0,1-1.18-1.38,1.53,1.53,0,0,1,.26-.86l0,0a1.21,1.21,0,0,1,.44-.38h0a1,1,0,0,1,.45-.11,1,1,0,0,1,.58.18,1.5,1.5,0,0,1,.05,2.36ZM176.09,84.44a2.05,2.05,0,1,0,1.84,2A2,2,0,0,0,176.09,84.44Zm0,3.42a1.4,1.4,0,1,1,1.18-1.38A1.29,1.29,0,0,1,176.09,87.86Zm52.08-3.43a2.05,2.05,0,1,0,1.84,2A1.95,1.95,0,0,0,228.17,84.43Zm0,3.42a1.4,1.4,0,1,1,1.17-1.38A1.29,1.29,0,0,1,228.17,87.85Zm-25.26,27.44a1.64,1.64,0,0,0-1-.34,1.79,1.79,0,0,0-.75.17,1.87,1.87,0,0,0-.7.62l0,0a.63.63,0,0,1-.07.12,2.19,2.19,0,0,0-.29,1.09h0a2,2,0,0,0,1.84,2,1.73,1.73,0,0,0,1.15-.45,2.14,2.14,0,0,0,.69-1.59A2.09,2.09,0,0,0,202.91,115.29Zm-.38,2.86a1,1,0,0,1-.63.22,1.29,1.29,0,0,1-1.18-1.38,1.53,1.53,0,0,1,.26-.86l0,0a1.21,1.21,0,0,1,.44-.38h0a1,1,0,0,1,.45-.11,1,1,0,0,1,.58.18,1.5,1.5,0,0,1,.05,2.36ZM176.09,84.44a2.05,2.05,0,1,0,1.84,2A2,2,0,0,0,176.09,84.44Zm0,3.42a1.4,1.4,0,1,1,1.18-1.38A1.29,1.29,0,0,1,176.09,87.86Zm0-3.42a2.05,2.05,0,1,0,1.84,2A2,2,0,0,0,176.09,84.44Zm0,3.42a1.4,1.4,0,1,1,1.18-1.38A1.29,1.29,0,0,1,176.09,87.86Zm26.82,27.43a1.64,1.64,0,0,0-1-.34,1.79,1.79,0,0,0-.75.17,1.87,1.87,0,0,0-.7.62l0,0a.63.63,0,0,1-.07.12,2.19,2.19,0,0,0-.29,1.09h0a2,2,0,0,0,1.84,2,1.73,1.73,0,0,0,1.15-.45,2.14,2.14,0,0,0,.69-1.59A2.09,2.09,0,0,0,202.91,115.29Zm-.38,2.86a1,1,0,0,1-.63.22,1.29,1.29,0,0,1-1.18-1.38,1.53,1.53,0,0,1,.26-.86l0,0a1.21,1.21,0,0,1,.44-.38h0a1,1,0,0,1,.45-.11,1,1,0,0,1,.58.18,1.5,1.5,0,0,1,.05,2.36Zm25.64-33.72a2.05,2.05,0,1,0,1.84,2A1.95,1.95,0,0,0,228.17,84.43Zm0,3.42a1.4,1.4,0,1,1,1.17-1.38A1.29,1.29,0,0,1,228.17,87.85Zm0-3.42a2.05,2.05,0,1,0,1.84,2A1.95,1.95,0,0,0,228.17,84.43Zm0,3.42a1.4,1.4,0,1,1,1.17-1.38A1.29,1.29,0,0,1,228.17,87.85Zm-25.26,27.44a1.64,1.64,0,0,0-1-.34,1.79,1.79,0,0,0-.75.17,1.87,1.87,0,0,0-.7.62l0,0a.63.63,0,0,1-.07.12,2.19,2.19,0,0,0-.29,1.09h0a2,2,0,0,0,1.84,2,1.73,1.73,0,0,0,1.15-.45,2.14,2.14,0,0,0,.69-1.59A2.09,2.09,0,0,0,202.91,115.29Zm-.38,2.86a1,1,0,0,1-.63.22,1.29,1.29,0,0,1-1.18-1.38,1.53,1.53,0,0,1,.26-.86l0,0a1.21,1.21,0,0,1,.44-.38h0a1,1,0,0,1,.45-.11,1,1,0,0,1,.58.18,1.5,1.5,0,0,1,.05,2.36ZM176.09,84.44a2.05,2.05,0,1,0,1.84,2A2,2,0,0,0,176.09,84.44Zm0,3.42a1.4,1.4,0,1,1,1.18-1.38A1.29,1.29,0,0,1,176.09,87.86Zm0-3.42a2.05,2.05,0,1,0,1.84,2A2,2,0,0,0,176.09,84.44Zm0,3.42a1.4,1.4,0,1,1,1.18-1.38A1.29,1.29,0,0,1,176.09,87.86Zm26.82,27.43a1.64,1.64,0,0,0-1-.34,1.79,1.79,0,0,0-.75.17,1.87,1.87,0,0,0-.7.62l0,0a.63.63,0,0,1-.07.12,2.19,2.19,0,0,0-.29,1.09h0a2,2,0,0,0,1.84,2,1.73,1.73,0,0,0,1.15-.45,2.14,2.14,0,0,0,.69-1.59A2.09,2.09,0,0,0,202.91,115.29Zm-.38,2.86a1,1,0,0,1-.63.22,1.29,1.29,0,0,1-1.18-1.38,1.53,1.53,0,0,1,.26-.86l0,0a1.21,1.21,0,0,1,.44-.38h0a1,1,0,0,1,.45-.11,1,1,0,0,1,.58.18,1.5,1.5,0,0,1,.05,2.36Zm25.64-33.72a2.05,2.05,0,1,0,1.84,2A1.95,1.95,0,0,0,228.17,84.43Zm0,3.42a1.4,1.4,0,1,1,1.17-1.38A1.29,1.29,0,0,1,228.17,87.85Zm0-3.42a2.05,2.05,0,1,0,1.84,2A1.95,1.95,0,0,0,228.17,84.43Zm0,3.42a1.4,1.4,0,1,1,1.17-1.38A1.29,1.29,0,0,1,228.17,87.85Zm-25.26,27.44a1.64,1.64,0,0,0-1-.34,1.79,1.79,0,0,0-.75.17,1.87,1.87,0,0,0-.7.62l0,0a.63.63,0,0,1-.07.12,2.19,2.19,0,0,0-.29,1.09h0a2,2,0,0,0,1.84,2,1.73,1.73,0,0,0,1.15-.45,2.14,2.14,0,0,0,.69-1.59A2.09,2.09,0,0,0,202.91,115.29Zm-.38,2.86a1,1,0,0,1-.63.22,1.29,1.29,0,0,1-1.18-1.38,1.53,1.53,0,0,1,.26-.86l0,0a1.21,1.21,0,0,1,.44-.38h0a1,1,0,0,1,.45-.11,1,1,0,0,1,.58.18,1.5,1.5,0,0,1,.05,2.36ZM176.09,84.44a2.05,2.05,0,1,0,1.84,2A2,2,0,0,0,176.09,84.44Zm0,3.42a1.4,1.4,0,1,1,1.18-1.38A1.29,1.29,0,0,1,176.09,87.86ZM167,66.6v70.26h70.26V66.6Zm69.6,69.6H167.66V67.26H236.6Zm-8.43-47.69a2.05,2.05,0,1,0-1.84-2A1.95,1.95,0,0,0,228.17,88.51Zm0-3.42A1.4,1.4,0,1,1,227,86.47,1.29,1.29,0,0,1,228.17,85.09ZM201.9,119a1.73,1.73,0,0,0,1.15-.45,2.14,2.14,0,0,0,.69-1.59,2.09,2.09,0,0,0-.83-1.7,1.64,1.64,0,0,0-1-.34,1.79,1.79,0,0,0-.75.17,1.87,1.87,0,0,0-.7.62l0,0a.63.63,0,0,1-.07.12,2.19,2.19,0,0,0-.29,1.09h0A2,2,0,0,0,201.9,119Zm-.46-3.31h0a1,1,0,0,1,.45-.11,1,1,0,0,1,.58.18,1.5,1.5,0,0,1,.05,2.36,1,1,0,0,1-.63.22,1.29,1.29,0,0,1-1.18-1.38,1.53,1.53,0,0,1,.26-.86l0,0A1.21,1.21,0,0,1,201.44,115.72Zm-25.35-27.2a2.05,2.05,0,1,0-1.84-2A2,2,0,0,0,176.09,88.52Zm0-3.42a1.4,1.4,0,1,1-1.18,1.38A1.29,1.29,0,0,1,176.09,85.1Zm0-.66a2.05,2.05,0,1,0,1.84,2A2,2,0,0,0,176.09,84.44Zm0,3.42a1.4,1.4,0,1,1,1.18-1.38A1.29,1.29,0,0,1,176.09,87.86Zm26.82,27.43a1.64,1.64,0,0,0-1-.34,1.79,1.79,0,0,0-.75.17,1.87,1.87,0,0,0-.7.62l0,0a.63.63,0,0,1-.07.12,2.19,2.19,0,0,0-.29,1.09h0a2,2,0,0,0,1.84,2,1.73,1.73,0,0,0,1.15-.45,2.14,2.14,0,0,0,.69-1.59A2.09,2.09,0,0,0,202.91,115.29Zm-.38,2.86a1,1,0,0,1-.63.22,1.29,1.29,0,0,1-1.18-1.38,1.53,1.53,0,0,1,.26-.86l0,0a1.21,1.21,0,0,1,.44-.38h0a1,1,0,0,1,.45-.11,1,1,0,0,1,.58.18,1.5,1.5,0,0,1,.05,2.36Zm25.64-33.72a2.05,2.05,0,1,0,1.84,2A1.95,1.95,0,0,0,228.17,84.43Zm0,3.42a1.4,1.4,0,1,1,1.17-1.38A1.29,1.29,0,0,1,228.17,87.85Zm0-3.42a2.05,2.05,0,1,0,1.84,2A1.95,1.95,0,0,0,228.17,84.43Zm0,3.42a1.4,1.4,0,1,1,1.17-1.38A1.29,1.29,0,0,1,228.17,87.85Zm-25.26,27.44a1.64,1.64,0,0,0-1-.34,1.79,1.79,0,0,0-.75.17,1.87,1.87,0,0,0-.7.62l0,0a.63.63,0,0,1-.07.12,2.19,2.19,0,0,0-.29,1.09h0a2,2,0,0,0,1.84,2,1.73,1.73,0,0,0,1.15-.45,2.14,2.14,0,0,0,.69-1.59A2.09,2.09,0,0,0,202.91,115.29Zm-.38,2.86a1,1,0,0,1-.63.22,1.29,1.29,0,0,1-1.18-1.38,1.53,1.53,0,0,1,.26-.86l0,0a1.21,1.21,0,0,1,.44-.38h0a1,1,0,0,1,.45-.11,1,1,0,0,1,.58.18,1.5,1.5,0,0,1,.05,2.36ZM176.09,84.44a2.05,2.05,0,1,0,1.84,2A2,2,0,0,0,176.09,84.44Zm0,3.42a1.4,1.4,0,1,1,1.18-1.38A1.29,1.29,0,0,1,176.09,87.86Zm0-3.42a2.05,2.05,0,1,0,1.84,2A2,2,0,0,0,176.09,84.44Zm0,3.42a1.4,1.4,0,1,1,1.18-1.38A1.29,1.29,0,0,1,176.09,87.86Zm26.82,27.43a1.64,1.64,0,0,0-1-.34,1.79,1.79,0,0,0-.75.17,1.87,1.87,0,0,0-.7.62l0,0a.63.63,0,0,1-.07.12,2.19,2.19,0,0,0-.29,1.09h0a2,2,0,0,0,1.84,2,1.73,1.73,0,0,0,1.15-.45,2.14,2.14,0,0,0,.69-1.59A2.09,2.09,0,0,0,202.91,115.29Zm-.38,2.86a1,1,0,0,1-.63.22,1.29,1.29,0,0,1-1.18-1.38,1.53,1.53,0,0,1,.26-.86l0,0a1.21,1.21,0,0,1,.44-.38h0a1,1,0,0,1,.45-.11,1,1,0,0,1,.58.18,1.5,1.5,0,0,1,.05,2.36Zm25.64-33.72a2.05,2.05,0,1,0,1.84,2A1.95,1.95,0,0,0,228.17,84.43Zm0,3.42a1.4,1.4,0,1,1,1.17-1.38A1.29,1.29,0,0,1,228.17,87.85Zm0-3.42a2.05,2.05,0,1,0,1.84,2A1.95,1.95,0,0,0,228.17,84.43Zm0,3.42a1.4,1.4,0,1,1,1.17-1.38A1.29,1.29,0,0,1,228.17,87.85Zm-25.26,27.44a1.64,1.64,0,0,0-1-.34,1.79,1.79,0,0,0-.75.17,1.87,1.87,0,0,0-.7.62l0,0a.63.63,0,0,1-.07.12,2.19,2.19,0,0,0-.29,1.09h0a2,2,0,0,0,1.84,2,1.73,1.73,0,0,0,1.15-.45,2.14,2.14,0,0,0,.69-1.59A2.09,2.09,0,0,0,202.91,115.29Zm-.38,2.86a1,1,0,0,1-.63.22,1.29,1.29,0,0,1-1.18-1.38,1.53,1.53,0,0,1,.26-.86l0,0a1.21,1.21,0,0,1,.44-.38h0a1,1,0,0,1,.45-.11,1,1,0,0,1,.58.18,1.5,1.5,0,0,1,.05,2.36ZM176.09,84.44a2.05,2.05,0,1,0,1.84,2A2,2,0,0,0,176.09,84.44Zm0,3.42a1.4,1.4,0,1,1,1.18-1.38A1.29,1.29,0,0,1,176.09,87.86Zm52.08-3.43a2.05,2.05,0,1,0,1.84,2A1.95,1.95,0,0,0,228.17,84.43Zm0,3.42a1.4,1.4,0,1,1,1.17-1.38A1.29,1.29,0,0,1,228.17,87.85Zm-25.26,27.44a1.64,1.64,0,0,0-1-.34,1.79,1.79,0,0,0-.75.17,1.87,1.87,0,0,0-.7.62l0,0a.63.63,0,0,1-.07.12,2.19,2.19,0,0,0-.29,1.09h0a2,2,0,0,0,1.84,2,1.73,1.73,0,0,0,1.15-.45,2.14,2.14,0,0,0,.69-1.59A2.09,2.09,0,0,0,202.91,115.29Zm-.38,2.86a1,1,0,0,1-.63.22,1.29,1.29,0,0,1-1.18-1.38,1.53,1.53,0,0,1,.26-.86l0,0a1.21,1.21,0,0,1,.44-.38h0a1,1,0,0,1,.45-.11,1,1,0,0,1,.58.18,1.5,1.5,0,0,1,.05,2.36ZM176.09,84.44a2.05,2.05,0,1,0,1.84,2A2,2,0,0,0,176.09,84.44Zm0,3.42a1.4,1.4,0,1,1,1.18-1.38A1.29,1.29,0,0,1,176.09,87.86Zm52.08-3.43a2.05,2.05,0,1,0,1.84,2A1.95,1.95,0,0,0,228.17,84.43Zm0,3.42a1.4,1.4,0,1,1,1.17-1.38A1.29,1.29,0,0,1,228.17,87.85Zm-25.26,27.44a1.64,1.64,0,0,0-1-.34,1.79,1.79,0,0,0-.75.17,1.87,1.87,0,0,0-.7.62l0,0a.63.63,0,0,1-.07.12,2.19,2.19,0,0,0-.29,1.09h0a2,2,0,0,0,1.84,2,1.73,1.73,0,0,0,1.15-.45,2.14,2.14,0,0,0,.69-1.59A2.09,2.09,0,0,0,202.91,115.29Zm-.38,2.86a1,1,0,0,1-.63.22,1.29,1.29,0,0,1-1.18-1.38,1.53,1.53,0,0,1,.26-.86l0,0a1.21,1.21,0,0,1,.44-.38h0a1,1,0,0,1,.45-.11,1,1,0,0,1,.58.18,1.5,1.5,0,0,1,.05,2.36ZM176.09,84.44a2.05,2.05,0,1,0,1.84,2A2,2,0,0,0,176.09,84.44Zm0,3.42a1.4,1.4,0,1,1,1.18-1.38A1.29,1.29,0,0,1,176.09,87.86Zm52.08-3.43a2.05,2.05,0,1,0,1.84,2A1.95,1.95,0,0,0,228.17,84.43Zm0,3.42a1.4,1.4,0,1,1,1.17-1.38A1.29,1.29,0,0,1,228.17,87.85Zm-25.26,27.44a1.64,1.64,0,0,0-1-.34,1.79,1.79,0,0,0-.75.17,1.87,1.87,0,0,0-.7.62l0,0a.63.63,0,0,1-.07.12,2.19,2.19,0,0,0-.29,1.09h0a2,2,0,0,0,1.84,2,1.73,1.73,0,0,0,1.15-.45,2.14,2.14,0,0,0,.69-1.59A2.09,2.09,0,0,0,202.91,115.29Zm-.38,2.86a1,1,0,0,1-.63.22,1.29,1.29,0,0,1-1.18-1.38,1.53,1.53,0,0,1,.26-.86l0,0a1.21,1.21,0,0,1,.44-.38h0a1,1,0,0,1,.45-.11,1,1,0,0,1,.58.18,1.5,1.5,0,0,1,.05,2.36ZM176.09,84.44a2.05,2.05,0,1,0,1.84,2A2,2,0,0,0,176.09,84.44Zm0,3.42a1.4,1.4,0,1,1,1.18-1.38A1.29,1.29,0,0,1,176.09,87.86Zm52.08-3.43a2.05,2.05,0,1,0,1.84,2A1.95,1.95,0,0,0,228.17,84.43Zm0,3.42a1.4,1.4,0,1,1,1.17-1.38A1.29,1.29,0,0,1,228.17,87.85Zm-25.26,27.44a1.64,1.64,0,0,0-1-.34,1.79,1.79,0,0,0-.75.17,1.87,1.87,0,0,0-.7.62l0,0a.63.63,0,0,1-.07.12,2.19,2.19,0,0,0-.29,1.09h0a2,2,0,0,0,1.84,2,1.73,1.73,0,0,0,1.15-.45,2.14,2.14,0,0,0,.69-1.59A2.09,2.09,0,0,0,202.91,115.29Zm-.38,2.86a1,1,0,0,1-.63.22,1.29,1.29,0,0,1-1.18-1.38,1.53,1.53,0,0,1,.26-.86l0,0a1.21,1.21,0,0,1,.44-.38h0a1,1,0,0,1,.45-.11,1,1,0,0,1,.58.18,1.5,1.5,0,0,1,.05,2.36ZM176.09,84.44a2.05,2.05,0,1,0,1.84,2A2,2,0,0,0,176.09,84.44Zm0,3.42a1.4,1.4,0,1,1,1.18-1.38A1.29,1.29,0,0,1,176.09,87.86Zm52.08-3.43a2.05,2.05,0,1,0,1.84,2A1.95,1.95,0,0,0,228.17,84.43Zm0,3.42a1.4,1.4,0,1,1,1.17-1.38A1.29,1.29,0,0,1,228.17,87.85Zm-25.26,27.44a1.64,1.64,0,0,0-1-.34,1.79,1.79,0,0,0-.75.17,1.87,1.87,0,0,0-.7.62l0,0a.63.63,0,0,1-.07.12,2.19,2.19,0,0,0-.29,1.09h0a2,2,0,0,0,1.84,2,1.73,1.73,0,0,0,1.15-.45,2.14,2.14,0,0,0,.69-1.59A2.09,2.09,0,0,0,202.91,115.29Zm-.38,2.86a1,1,0,0,1-.63.22,1.29,1.29,0,0,1-1.18-1.38,1.53,1.53,0,0,1,.26-.86l0,0a1.21,1.21,0,0,1,.44-.38h0a1,1,0,0,1,.45-.11,1,1,0,0,1,.58.18,1.5,1.5,0,0,1,.05,2.36ZM176.09,84.44a2.05,2.05,0,1,0,1.84,2A2,2,0,0,0,176.09,84.44Zm0,3.42a1.4,1.4,0,1,1,1.18-1.38A1.29,1.29,0,0,1,176.09,87.86Zm52.08-3.43a2.05,2.05,0,1,0,1.84,2A1.95,1.95,0,0,0,228.17,84.43Zm0,3.42a1.4,1.4,0,1,1,1.17-1.38A1.29,1.29,0,0,1,228.17,87.85Zm-25.26,27.44a1.64,1.64,0,0,0-1-.34,1.79,1.79,0,0,0-.75.17,1.87,1.87,0,0,0-.7.62l0,0a.63.63,0,0,1-.07.12,2.19,2.19,0,0,0-.29,1.09h0a2,2,0,0,0,1.84,2,1.73,1.73,0,0,0,1.15-.45,2.14,2.14,0,0,0,.69-1.59A2.09,2.09,0,0,0,202.91,115.29Zm-.38,2.86a1,1,0,0,1-.63.22,1.29,1.29,0,0,1-1.18-1.38,1.53,1.53,0,0,1,.26-.86l0,0a1.21,1.21,0,0,1,.44-.38h0a1,1,0,0,1,.45-.11,1,1,0,0,1,.58.18,1.5,1.5,0,0,1,.05,2.36ZM176.09,84.44a2.05,2.05,0,1,0,1.84,2A2,2,0,0,0,176.09,84.44Zm0,3.42a1.4,1.4,0,1,1,1.18-1.38A1.29,1.29,0,0,1,176.09,87.86Zm52.08-3.43a2.05,2.05,0,1,0,1.84,2A1.95,1.95,0,0,0,228.17,84.43Zm0,3.42a1.4,1.4,0,1,1,1.17-1.38A1.29,1.29,0,0,1,228.17,87.85Zm-25.26,27.44a1.64,1.64,0,0,0-1-.34,1.79,1.79,0,0,0-.75.17,1.87,1.87,0,0,0-.7.62l0,0a.63.63,0,0,1-.07.12,2.19,2.19,0,0,0-.29,1.09h0a2,2,0,0,0,1.84,2,1.73,1.73,0,0,0,1.15-.45,2.14,2.14,0,0,0,.69-1.59A2.09,2.09,0,0,0,202.91,115.29Zm-.38,2.86a1,1,0,0,1-.63.22,1.29,1.29,0,0,1-1.18-1.38,1.53,1.53,0,0,1,.26-.86l0,0a1.21,1.21,0,0,1,.44-.38h0a1,1,0,0,1,.45-.11,1,1,0,0,1,.58.18,1.5,1.5,0,0,1,.05,2.36ZM176.09,84.44a2.05,2.05,0,1,0,1.84,2A2,2,0,0,0,176.09,84.44Zm0,3.42a1.4,1.4,0,1,1,1.18-1.38A1.29,1.29,0,0,1,176.09,87.86Zm26.82,27.43a1.64,1.64,0,0,0-1-.34,1.79,1.79,0,0,0-.75.17,1.87,1.87,0,0,0-.7.62l0,0a.63.63,0,0,1-.07.12,2.19,2.19,0,0,0-.29,1.09h0a2,2,0,0,0,1.84,2,1.73,1.73,0,0,0,1.15-.45,2.14,2.14,0,0,0,.69-1.59A2.09,2.09,0,0,0,202.91,115.29Zm-.38,2.86a1,1,0,0,1-.63.22,1.29,1.29,0,0,1-1.18-1.38,1.53,1.53,0,0,1,.26-.86l0,0a1.21,1.21,0,0,1,.44-.38h0a1,1,0,0,1,.45-.11,1,1,0,0,1,.58.18,1.5,1.5,0,0,1,.05,2.36ZM176.09,84.44a2.05,2.05,0,1,0,1.84,2A2,2,0,0,0,176.09,84.44Zm0,3.42a1.4,1.4,0,1,1,1.18-1.38A1.29,1.29,0,0,1,176.09,87.86Zm52.08-3.43a2.05,2.05,0,1,0,1.84,2A1.95,1.95,0,0,0,228.17,84.43Zm0,3.42a1.4,1.4,0,1,1,1.17-1.38A1.29,1.29,0,0,1,228.17,87.85Z"/><path class="cls-4" d="M167.66,67.26V136.2H236.6V67.26Zm29.71,48.21L176.77,91a2.27,2.27,0,0,0,2.56-1.15l19.61,23.33A2.09,2.09,0,0,0,197.37,115.47Zm11.46-2.67-2.56,3a2.24,2.24,0,0,0-1.32-2.6l1.83-2.14L225,89.72a3.76,3.76,0,0,0,2.39,1.36Zm20-23.28-.11,0a3,3,0,0,1-2.7-1l-.15-.21a2.59,2.59,0,0,1-.19-.31l-.09-.19h-13.1l-3.7,9.34h3.6v2H203V114.1l.2.08a1.2,1.2,0,0,1,.34.21l.11.07.14.12a3.32,3.32,0,0,1,1,3,3,3,0,0,1-2.88,2.58A3,3,0,0,1,199,117.5v-.09a3.26,3.26,0,0,1,1.1-2.88l.26-.19a1.58,1.58,0,0,1,.27-.16l.2-.08V99.18h-9.38v-2h3.3l-2.9-1.78.53-.87,2.73,1.67-3.31-8.36H178.73l-.09.18a1.85,1.85,0,0,1-.21.33l-.16.21a3,3,0,0,1-2.69,1h0l-.1,0a3.1,3.1,0,0,1-2.31-3,3,3,0,0,1,2.93-3.13A2.88,2.88,0,0,1,178.64,85l.09.17h14.9l4,10.18.88-2.95,1,.3-1.23,4.06-.26.49.57,0h7.23l4.77-12h14.9l.09-.18a2.9,2.9,0,0,1,2.56-1.62,3,3,0,0,1,2.92,3.13A3.08,3.08,0,0,1,228.79,89.52Z"/><path class="cls-5" d="M203.08,117a1.43,1.43,0,0,1-.55,1.16,1,1,0,0,1-.63.22,1.29,1.29,0,0,1-1.18-1.38,1.53,1.53,0,0,1,.26-.86l0,0a1.21,1.21,0,0,1,.44-.38h0a1,1,0,0,1,.45-.11,1,1,0,0,1,.58.18A1.44,1.44,0,0,1,203.08,117Z"/><path d="M278.32,130.53a1.39,1.39,0,0,1-.5-.1,1.3,1.3,0,0,1-.43-.26.49.49,0,0,1-.16-.37,1,1,0,0,1,0-.15l3.31-10.77a.73.73,0,0,1,.42-.44,1.65,1.65,0,0,1,.69-.15,1.67,1.67,0,0,1,.71.15.73.73,0,0,1,.42.44l3.29,10.77a.64.64,0,0,1,0,.15.47.47,0,0,1-.17.36,1.26,1.26,0,0,1-.43.27,1.32,1.32,0,0,1-.51.1.84.84,0,0,1-.37-.08.49.49,0,0,1-.23-.29l-.68-2.35H279.6l-.66,2.35a.43.43,0,0,1-.23.29A.93.93,0,0,1,278.32,130.53Zm1.68-4.14h3.32l-1.66-5.69Z"/><path d="M298,130.63a4.44,4.44,0,0,1-1.83-.37,2.83,2.83,0,0,1-1.34-1.18,4.11,4.11,0,0,1-.5-2.16v-4.83a4.11,4.11,0,0,1,.5-2.16,2.94,2.94,0,0,1,1.34-1.18,5.08,5.08,0,0,1,3.83,0,3.25,3.25,0,0,1,1.32,1.06,2.68,2.68,0,0,1,.47,1.55c0,.38-.07.63-.22.74a1,1,0,0,1-.66.18,1.23,1.23,0,0,1-.63-.14.53.53,0,0,1-.25-.45,4.33,4.33,0,0,0-.08-.51,1.81,1.81,0,0,0-.26-.59,1.52,1.52,0,0,0-.57-.48,2.38,2.38,0,0,0-1.05-.19,2,2,0,0,0-1.48.52,2.25,2.25,0,0,0-.51,1.62v4.83a2.18,2.18,0,0,0,.52,1.62,2,2,0,0,0,1.52.53,2.31,2.31,0,0,0,1-.19,1.36,1.36,0,0,0,.56-.49,1.92,1.92,0,0,0,.25-.61c0-.22.08-.41.1-.59a.51.51,0,0,1,.26-.45,1.21,1.21,0,0,1,.6-.13,1,1,0,0,1,.68.18.92.92,0,0,1,.22.73,2.87,2.87,0,0,1-.47,1.61,3.26,3.26,0,0,1-1.32,1.1A4.61,4.61,0,0,1,298,130.63Z"/><path d="M306.05,130.53a1,1,0,0,1-.53-.15.47.47,0,0,1-.25-.43V119a.45.45,0,0,1,.27-.43,1.39,1.39,0,0,1,.61-.13,1.32,1.32,0,0,1,.6.13.44.44,0,0,1,.28.43v10h4.32a.43.43,0,0,1,.4.24,1.08,1.08,0,0,1,.13.54,1.09,1.09,0,0,1-.13.53.42.42,0,0,1-.4.25Z"/><path d="M318.42,130.63a4.76,4.76,0,0,1-1.92-.37,2.79,2.79,0,0,1-1.36-1.18,4,4,0,0,1-.5-2.16v-8a.45.45,0,0,1,.26-.43,1.35,1.35,0,0,1,.62-.13,1.38,1.38,0,0,1,.6.13.46.46,0,0,1,.28.43v8a2.14,2.14,0,0,0,.53,1.62,2,2,0,0,0,1.49.53,2.08,2.08,0,0,0,1.5-.53,2.1,2.1,0,0,0,.55-1.62v-8a.45.45,0,0,1,.26-.43,1.5,1.5,0,0,1,1.22,0,.46.46,0,0,1,.28.43v8a4,4,0,0,1-.51,2.16,2.86,2.86,0,0,1-1.37,1.18A4.78,4.78,0,0,1,318.42,130.63Z"/><path d="M327,130.53a.89.89,0,0,1-.56-.17.47.47,0,0,1-.22-.4V119a.47.47,0,0,1,.25-.43,1,1,0,0,1,.53-.15h3a5.46,5.46,0,0,1,1.66.23,2.34,2.34,0,0,1,1.23.85,3,3,0,0,1,.47,1.79A3.58,3.58,0,0,1,333,123a2.15,2.15,0,0,1-1,1,3.11,3.11,0,0,1,.89.52,2.12,2.12,0,0,1,.6.87,3.65,3.65,0,0,1,.22,1.39V127a4.21,4.21,0,0,1-.43,2,2.58,2.58,0,0,1-1.18,1.11,4,4,0,0,1-1.7.34Zm1-7.28h2a1.63,1.63,0,0,0,1.25-.43,1.8,1.8,0,0,0,.41-1.28,1.75,1.75,0,0,0-.21-.91,1.25,1.25,0,0,0-.59-.52,2.23,2.23,0,0,0-.9-.16h-2Zm0,5.72H330a1.87,1.87,0,0,0,1.39-.49,2.19,2.19,0,0,0,.49-1.57v-.27a2,2,0,0,0-.49-1.54,2,2,0,0,0-1.39-.45h-2.08Z"/><path d="M343.28,130.53a1.34,1.34,0,0,1-.61-.14.47.47,0,0,1-.27-.44V119a.47.47,0,0,1,.25-.43,1,1,0,0,1,.53-.15H349a.45.45,0,0,1,.43.25,1,1,0,0,1,.13.51,1,1,0,0,1-.14.56.45.45,0,0,1-.42.24h-4.85v3.8h2.57a.48.48,0,0,1,.43.22.92.92,0,0,1,.14.5.88.88,0,0,1-.14.45.46.46,0,0,1-.43.23h-2.57V130a.46.46,0,0,1-.28.44A1.33,1.33,0,0,1,343.28,130.53Z"/><path d="M355.8,130.63a4.57,4.57,0,0,1-1.88-.37,2.77,2.77,0,0,1-1.33-1.18,4.11,4.11,0,0,1-.49-2.16v-4.83a4.11,4.11,0,0,1,.49-2.16,2.87,2.87,0,0,1,1.33-1.18,5.17,5.17,0,0,1,3.79,0,2.92,2.92,0,0,1,1.35,1.18,4.11,4.11,0,0,1,.5,2.16v4.83a4.11,4.11,0,0,1-.5,2.16,2.81,2.81,0,0,1-1.35,1.18A4.65,4.65,0,0,1,355.8,130.63Zm0-1.56a2,2,0,0,0,1.46-.53,2.14,2.14,0,0,0,.54-1.62v-4.83a2.21,2.21,0,0,0-.53-1.62,2.28,2.28,0,0,0-2.9,0,2.21,2.21,0,0,0-.53,1.62v4.83a2.18,2.18,0,0,0,.52,1.62A1.92,1.92,0,0,0,355.8,129.07Z"/><path d="M370,130.58a.56.56,0,0,1-.39-.15,1.06,1.06,0,0,1-.29-.37l-2.45-4.75h-1.66V130a.47.47,0,0,1-.27.43,1.25,1.25,0,0,1-.61.15,1.21,1.21,0,0,1-.6-.15.46.46,0,0,1-.28-.43V119a.55.55,0,0,1,.16-.4.57.57,0,0,1,.44-.16h3.16a5.84,5.84,0,0,1,1.91.3,2.81,2.81,0,0,1,1.37,1,3.45,3.45,0,0,1,.52,2,3.92,3.92,0,0,1-.31,1.67,2.65,2.65,0,0,1-.83,1,3.46,3.46,0,0,1-1.19.57l2.33,4.37a.5.5,0,0,1,.05.13.74.74,0,0,1,0,.12.69.69,0,0,1-.17.43,1.52,1.52,0,0,1-.41.34A1,1,0,0,1,370,130.58Zm-4.79-6.68h2a2.27,2.27,0,0,0,1.48-.45,1.87,1.87,0,0,0,.56-1.53,1.84,1.84,0,0,0-.56-1.52,2.27,2.27,0,0,0-1.48-.45h-2Z"/><path d="M383.21,130.63a1.65,1.65,0,0,1-.69-.15.77.77,0,0,1-.42-.45l-3.31-10.76a.64.64,0,0,1,0-.15.49.49,0,0,1,.18-.38,1.28,1.28,0,0,1,.43-.25,1.26,1.26,0,0,1,.49-.1.84.84,0,0,1,.4.08.39.39,0,0,1,.21.28l2.74,9.47,2.73-9.47a.44.44,0,0,1,.23-.28.79.79,0,0,1,.38-.08,1.27,1.27,0,0,1,.5.1,1.23,1.23,0,0,1,.42.25.49.49,0,0,1,.18.38.13.13,0,0,1,0,.06.25.25,0,0,0,0,.09L384.34,130a.74.74,0,0,1-.42.45A1.67,1.67,0,0,1,383.21,130.63Z"/><path d="M391.59,130.53a1,1,0,0,1-.54-.15.47.47,0,0,1-.24-.43V119a.45.45,0,0,1,.27-.43,1.33,1.33,0,0,1,.61-.13,1.32,1.32,0,0,1,.6.13.46.46,0,0,1,.28.43v10h4.32a.42.42,0,0,1,.39.24,1.09,1.09,0,0,1,.14.54,1.1,1.1,0,0,1-.14.53.41.41,0,0,1-.39.25Z"/><path d="M403.6,130.66a5.35,5.35,0,0,1-1.91-.31,3.59,3.59,0,0,1-1.3-.78,1.27,1.27,0,0,1-.47-.87.93.93,0,0,1,.11-.41,1.37,1.37,0,0,1,.29-.38.55.55,0,0,1,.37-.15.64.64,0,0,1,.44.19l.51.45a2.68,2.68,0,0,0,.74.47,2.89,2.89,0,0,0,1.15.2,3,3,0,0,0,1.07-.19,1.62,1.62,0,0,0,.75-.58,1.7,1.7,0,0,0,.27-1,1.76,1.76,0,0,0-.29-1,2.31,2.31,0,0,0-.78-.7,8.51,8.51,0,0,0-1.05-.51c-.38-.16-.76-.32-1.15-.5a5.33,5.33,0,0,1-1.06-.64,2.91,2.91,0,0,1-.78-1,3.64,3.64,0,0,1,.05-3,2.68,2.68,0,0,1,.91-1,3.87,3.87,0,0,1,1.25-.53,6.18,6.18,0,0,1,1.34-.15c.28,0,.59,0,.92,0a6.43,6.43,0,0,1,1,.2,2.59,2.59,0,0,1,.8.38.67.67,0,0,1,.31.56,1,1,0,0,1-.08.39,1,1,0,0,1-.24.39.53.53,0,0,1-.41.17.94.94,0,0,1-.48-.16,3.84,3.84,0,0,0-.69-.31,3.13,3.13,0,0,0-1.12-.16A3.25,3.25,0,0,0,403,120a1.66,1.66,0,0,0-.74.49,1.32,1.32,0,0,0-.26.86,1.27,1.27,0,0,0,.29.87,2.33,2.33,0,0,0,.77.58,10.33,10.33,0,0,0,1.05.46,9,9,0,0,1,1.15.51,5.41,5.41,0,0,1,1.06.7,2.9,2.9,0,0,1,.78,1.06,4.36,4.36,0,0,1-.2,3.57,2.88,2.88,0,0,1-1.34,1.17A4.65,4.65,0,0,1,403.6,130.66Z"/><path d="M411.75,130.53a1.33,1.33,0,0,1-.6-.14.46.46,0,0,1-.28-.44V119a.44.44,0,0,1,.28-.43,1.32,1.32,0,0,1,.6-.13,1.36,1.36,0,0,1,.61.13.45.45,0,0,1,.27.43v11a.47.47,0,0,1-.27.44A1.37,1.37,0,0,1,411.75,130.53Z"/><path d="M422.62,130.53a1,1,0,0,1-.53-.15.47.47,0,0,1-.25-.43V119a.47.47,0,0,1,.25-.43,1,1,0,0,1,.53-.15h5.91a.47.47,0,0,1,.45.25,1,1,0,0,1,.13.51,1,1,0,0,1-.15.56.47.47,0,0,1-.43.24H423.6v3.8h2.56a.49.49,0,0,1,.43.22.84.84,0,0,1,.15.5.88.88,0,0,1-.14.45.46.46,0,0,1-.44.23H423.6V129h4.93a.49.49,0,0,1,.43.23,1,1,0,0,1,.15.57,1.07,1.07,0,0,1-.13.51.47.47,0,0,1-.45.25Z"/><path d="M433.23,130.53a1.21,1.21,0,0,1-.6-.15.46.46,0,0,1-.28-.43V119a.46.46,0,0,1,.28-.45,1.32,1.32,0,0,1,.6-.13,1.45,1.45,0,0,1,.54.09,1.06,1.06,0,0,1,.41.3,3.71,3.71,0,0,1,.38.6l3.69,7.2V119a.45.45,0,0,1,.27-.43,1.5,1.5,0,0,1,1.22,0,.45.45,0,0,1,.27.43v11a.47.47,0,0,1-.27.43,1.28,1.28,0,0,1-.61.15,1.13,1.13,0,0,1-.6-.17,1.31,1.31,0,0,1-.45-.48l-4-7.56V130a.47.47,0,0,1-.27.43A1.25,1.25,0,0,1,433.23,130.53Z"/><path d="M447.15,130.53a1.21,1.21,0,0,1-.6-.15.46.46,0,0,1-.28-.43V120H443.7a.48.48,0,0,1-.42-.25,1.1,1.1,0,0,1-.15-.57,1.09,1.09,0,0,1,.14-.54.45.45,0,0,1,.43-.25h6.89a.47.47,0,0,1,.45.25,1.07,1.07,0,0,1,.13.53,1.11,1.11,0,0,1-.14.58.48.48,0,0,1-.44.25H448V130a.47.47,0,0,1-.27.43A1.23,1.23,0,0,1,447.15,130.53Z"/><path d="M455.18,130.53a1.34,1.34,0,0,1-.61-.14.47.47,0,0,1-.27-.44V119a.45.45,0,0,1,.27-.43,1.33,1.33,0,0,1,.61-.13,1.32,1.32,0,0,1,.6.13.44.44,0,0,1,.28.43v4.59h4.13V119a.44.44,0,0,1,.28-.43,1.32,1.32,0,0,1,.6-.13,1.33,1.33,0,0,1,.61.13.45.45,0,0,1,.27.43v11a.47.47,0,0,1-.27.44,1.38,1.38,0,0,1-1.21,0,.46.46,0,0,1-.28-.44v-5h-4.13v5a.46.46,0,0,1-.28.44A1.33,1.33,0,0,1,455.18,130.53Z"/><path d="M469.73,130.63a4.81,4.81,0,0,1-1.93-.37,2.83,2.83,0,0,1-1.36-1.18,4.11,4.11,0,0,1-.5-2.16v-8a.45.45,0,0,1,.27-.43,1.31,1.31,0,0,1,.61-.13,1.38,1.38,0,0,1,.6.13.44.44,0,0,1,.28.43v8a2.18,2.18,0,0,0,.53,1.62,2.37,2.37,0,0,0,3,0,2.1,2.1,0,0,0,.55-1.62v-8a.45.45,0,0,1,.27-.43,1.33,1.33,0,0,1,.61-.13,1.38,1.38,0,0,1,.6.13.44.44,0,0,1,.28.43v8a4.11,4.11,0,0,1-.5,2.16,2.9,2.9,0,0,1-1.37,1.18A4.81,4.81,0,0,1,469.73,130.63Z"/><path d="M480.56,130.66a5.35,5.35,0,0,1-1.91-.31,3.68,3.68,0,0,1-1.3-.78,1.25,1.25,0,0,1-.46-.87.82.82,0,0,1,.11-.41,1.17,1.17,0,0,1,.28-.38.57.57,0,0,1,.37-.15.62.62,0,0,1,.44.19l.51.45a2.75,2.75,0,0,0,.75.47,2.88,2.88,0,0,0,1.14.2,3.06,3.06,0,0,0,1.08-.19,1.59,1.59,0,0,0,1-1.57,1.83,1.83,0,0,0-.29-1,2.52,2.52,0,0,0-.78-.7,8,8,0,0,0-1.06-.51c-.38-.16-.76-.32-1.15-.5a5.64,5.64,0,0,1-1.06-.64,2.76,2.76,0,0,1-.77-1,3.64,3.64,0,0,1,0-3,2.75,2.75,0,0,1,.9-1,4,4,0,0,1,1.25-.53,6.21,6.21,0,0,1,1.35-.15c.27,0,.58,0,.92,0a7,7,0,0,1,1,.2,2.53,2.53,0,0,1,.79.38.68.68,0,0,1,.32.56,1.29,1.29,0,0,1-.08.39,1.14,1.14,0,0,1-.25.39.53.53,0,0,1-.4.17.88.88,0,0,1-.48-.16,4.62,4.62,0,0,0-.69-.31,3.2,3.2,0,0,0-1.12-.16A3.31,3.31,0,0,0,480,120a1.72,1.72,0,0,0-.74.49,1.38,1.38,0,0,0-.26.86,1.32,1.32,0,0,0,.29.87,2.33,2.33,0,0,0,.77.58,9.63,9.63,0,0,0,1.06.46,9.5,9.5,0,0,1,1.14.51,5.48,5.48,0,0,1,1.07.7,3.14,3.14,0,0,1,.78,1.06,3.84,3.84,0,0,1,.29,1.58,3.78,3.78,0,0,1-.49,2,3,3,0,0,1-1.35,1.17A4.65,4.65,0,0,1,480.56,130.66Z"/><path d="M488.72,130.53a1.34,1.34,0,0,1-.61-.14.47.47,0,0,1-.27-.44V119a.45.45,0,0,1,.27-.43,1.33,1.33,0,0,1,.61-.13,1.32,1.32,0,0,1,.6.13.44.44,0,0,1,.28.43v11a.46.46,0,0,1-.28.44A1.33,1.33,0,0,1,488.72,130.53Z"/><path d="M493.85,130.53a1.39,1.39,0,0,1-.5-.1,1.2,1.2,0,0,1-.43-.26.5.5,0,0,1-.17-.37s0-.08,0-.15l3.31-10.77a.7.7,0,0,1,.42-.44,1.65,1.65,0,0,1,.69-.15,1.71,1.71,0,0,1,.71.15.76.76,0,0,1,.42.44l3.29,10.77a.64.64,0,0,1,0,.15.51.51,0,0,1-.17.36,1.21,1.21,0,0,1-.44.27,1.31,1.31,0,0,1-.5.1.81.81,0,0,1-.37-.08.46.46,0,0,1-.23-.29l-.68-2.35h-4.12l-.67,2.35a.39.39,0,0,1-.22.29A1,1,0,0,1,493.85,130.53Zm1.68-4.14h3.32l-1.66-5.69Z"/><path d="M507.85,130.66a5.39,5.39,0,0,1-1.91-.31,3.63,3.63,0,0,1-1.29-.78,1.27,1.27,0,0,1-.47-.87.93.93,0,0,1,.11-.41,1.34,1.34,0,0,1,.28-.38.57.57,0,0,1,.38-.15.64.64,0,0,1,.44.19l.5.45a2.75,2.75,0,0,0,.75.47,2.89,2.89,0,0,0,1.15.2,3,3,0,0,0,1.07-.19,1.73,1.73,0,0,0,.75-.58,1.7,1.7,0,0,0,.27-1,1.83,1.83,0,0,0-.29-1,2.31,2.31,0,0,0-.78-.7,8,8,0,0,0-1.06-.51l-1.14-.5a5.72,5.72,0,0,1-1.07-.64,2.88,2.88,0,0,1-.77-1,3.64,3.64,0,0,1,.05-3,2.68,2.68,0,0,1,.91-1,3.81,3.81,0,0,1,1.24-.53,6.34,6.34,0,0,1,1.35-.15c.28,0,.58,0,.92,0a6.43,6.43,0,0,1,1,.2,2.59,2.59,0,0,1,.8.38.67.67,0,0,1,.31.56,1,1,0,0,1-.08.39,1.28,1.28,0,0,1-.24.39.55.55,0,0,1-.41.17.94.94,0,0,1-.48-.16,4.62,4.62,0,0,0-.69-.31,3.16,3.16,0,0,0-1.12-.16,3.21,3.21,0,0,0-1.07.16,1.66,1.66,0,0,0-.74.49,1.48,1.48,0,0,0,0,1.73,2.37,2.37,0,0,0,.78.58,10.33,10.33,0,0,0,1.05.46,10.39,10.39,0,0,1,1.15.51,5.72,5.72,0,0,1,1.06.7,2.9,2.9,0,0,1,.78,1.06,3.84,3.84,0,0,1,.29,1.58,3.69,3.69,0,0,1-.49,2,2.93,2.93,0,0,1-1.34,1.17A4.7,4.7,0,0,1,507.85,130.66Z"/><path d="M518.19,130.53a1.25,1.25,0,0,1-.61-.15.47.47,0,0,1-.27-.43V120h-2.58a.46.46,0,0,1-.41-.25,1.1,1.1,0,0,1-.15-.57,1.08,1.08,0,0,1,.13-.54.45.45,0,0,1,.43-.25h6.9a.44.44,0,0,1,.44.25,1.08,1.08,0,0,1,.14.53,1.21,1.21,0,0,1-.14.58.5.5,0,0,1-.44.25h-2.56V130a.46.46,0,0,1-.28.43A1.21,1.21,0,0,1,518.19,130.53Z"/><path d="M528.25,130.66a5.39,5.39,0,0,1-1.91-.31,3.63,3.63,0,0,1-1.29-.78,1.27,1.27,0,0,1-.47-.87.93.93,0,0,1,.11-.41,1.34,1.34,0,0,1,.28-.38.57.57,0,0,1,.38-.15.64.64,0,0,1,.44.19l.5.45a2.75,2.75,0,0,0,.75.47,2.89,2.89,0,0,0,1.15.2,3,3,0,0,0,1.07-.19,1.73,1.73,0,0,0,.75-.58,1.7,1.7,0,0,0,.27-1,1.83,1.83,0,0,0-.29-1,2.31,2.31,0,0,0-.78-.7,8.51,8.51,0,0,0-1.05-.51c-.38-.16-.76-.32-1.15-.5a5.33,5.33,0,0,1-1.06-.64,2.79,2.79,0,0,1-.78-1,3.64,3.64,0,0,1,.05-3,2.68,2.68,0,0,1,.91-1,3.81,3.81,0,0,1,1.24-.53,6.34,6.34,0,0,1,1.35-.15c.28,0,.58,0,.92,0a6.43,6.43,0,0,1,1,.2,2.59,2.59,0,0,1,.8.38.67.67,0,0,1,.31.56,1,1,0,0,1-.08.39,1.28,1.28,0,0,1-.24.39.55.55,0,0,1-.41.17.94.94,0,0,1-.48-.16,4.62,4.62,0,0,0-.69-.31,3.16,3.16,0,0,0-1.12-.16,3.21,3.21,0,0,0-1.07.16,1.66,1.66,0,0,0-.74.49,1.48,1.48,0,0,0,0,1.73,2.37,2.37,0,0,0,.78.58,10.33,10.33,0,0,0,1,.46,9.63,9.63,0,0,1,1.15.51,5.72,5.72,0,0,1,1.06.7,2.9,2.9,0,0,1,.78,1.06,4.36,4.36,0,0,1-.2,3.57,2.88,2.88,0,0,1-1.34,1.17A4.66,4.66,0,0,1,528.25,130.66Z"/><path class="cls-1" d="M420.74,75.19c-.64,1.92-1.29,3.88-2,5.87s-1.38,4-2.08,5.91-1.39,3.81-2.08,5.6l-.84,2.16,2.47,6.18q2.42-5.4,4.69-11.19,2.83-7.26,5.35-14.53ZM410.61,92.55c-.42-1.1-.84-2.22-1.25-3.37l-.8-2.23c-.69-1.93-1.37-3.89-2.06-5.89s-1.36-4-2-5.87h-5.71c1.65,4.85,3.41,9.69,5.32,14.53S408,99.21,410,103.63h5l-2.52-6.46C411.86,95.76,411.25,94.22,410.61,92.55Z"/><polygon class="cls-1" points="433.29 84.68 427.45 81.8 433.38 79.01 439.31 81.72 433.29 84.68"/><path class="cls-1" d="M433.29,85.23l-7-3.44,7.07-3.33,7.08,3.24Zm-4.7-3.42,4.7,2.32,4.86-2.4-4.77-2.17Z"/><path class="cls-1" d="M433.45,88.31A8,8,0,0,1,429.14,87l-.23-.14v-4h1v3.43a6.2,6.2,0,0,0,6.9,0l-.07-3.46,1,0,.08,4-.18.15A7,7,0,0,1,433.45,88.31Z"/><rect class="cls-1" x="438.81" y="81.71" width="0.99" height="5.5"/><circle class="cls-1" cx="439.3" cy="87.99" r="0.74"/><path class="cls-1" d="M439.3,89.23A1.24,1.24,0,1,1,440.53,88,1.24,1.24,0,0,1,439.3,89.23Zm0-1.48a.24.24,0,0,0-.24.24c0,.27.48.27.48,0A.24.24,0,0,0,439.3,87.75Z"/><rect class="cls-1" x="429.98" y="89.66" width="6.64" height="13.32"/><polygon class="cls-1" points="290.85 85.64 294.03 76.18 303.81 76.18 303.81 74.54 292.85 74.54 289.3 85.12 290.85 85.64"/><polygon class="cls-1" points="282.33 85.64 283.88 85.12 280.33 74.54 269.37 74.54 269.37 76.18 279.15 76.18 282.33 85.64"/><rect class="cls-1" x="278.58" y="84.57" width="15.7" height="1.64"/><rect class="cls-1" x="285.61" y="85.39" width="1.64" height="13.91"/><polygon class="cls-1" points="282.58 85.67 282.58 85.64 283.61 85.64 284.95 80.4 283.89 80.13 282.78 84.47 279.42 82.04 278.78 82.93 282.58 85.67"/><path class="cls-1" d="M284.64,99.64a2.23,2.23,0,0,0-.46,1.36.19.19,0,0,0,0,.08,1.52,1.52,0,0,0,0,.27l.18.25,1.28-1-.84-1.18h0l0,.06Z"/><path class="cls-1" d="M267.93,78.55l15.43,21.61a2.22,2.22,0,0,1,.78-1.71L269.62,78.09A2.67,2.67,0,0,1,267.93,78.55Z"/><path class="cls-1" d="M267.2,77.53l0,0h0s0,0,0,0l.15,0,.13,0h.05l.28,0a2.28,2.28,0,0,0,1.21-.35h0l-.45-.62Z"/><path class="cls-1" d="M304,77.41a2.22,2.22,0,0,0,1.5.57h.11l.24-.34-1.32-1Z"/><path class="cls-1" d="M288.75,98.52a2.12,2.12,0,0,1,.74,1.77l15.65-21.61a2,2,0,0,1-1.61-.57Z"/><path class="cls-1" d="M287.22,100.64l1.32,1,.1-.13v0h0a.89.89,0,0,0,0-.22,2,2,0,0,0,0-.61,1.27,1.27,0,0,0-.06-.28,1.69,1.69,0,0,0-.1-.27v0a1.6,1.6,0,0,0-.11-.19,1.87,1.87,0,0,0-.29-.39Z"/><path class="cls-1" d="M284.18,101a.19.19,0,0,0,0,.08,1.52,1.52,0,0,0,0,.27,2.25,2.25,0,0,0,4.43.12v0a1.43,1.43,0,0,0,0-.22,2,2,0,0,0,0-.61,1.27,1.27,0,0,0-.06-.28,1.69,1.69,0,0,0-.1-.27v0a1.6,1.6,0,0,0-.11-.19,1.87,1.87,0,0,0-.29-.39h0a2,2,0,0,0-.81-.54,2,2,0,0,0-.81-.16,2.23,2.23,0,0,0-.83.16,2.1,2.1,0,0,0-.78.52l-.05,0-.14.17a1.2,1.2,0,0,0-.13.21,1.78,1.78,0,0,0-.17.38,2,2,0,0,0-.13.55s0,0,0,.07A.77.77,0,0,0,284.18,101Zm1.44,0a.82.82,0,0,1,.82-.81.81.81,0,1,1,0,1.62A.82.82,0,0,1,285.62,101Z"/><path class="cls-1" d="M265.6,75.41a2.26,2.26,0,0,0,1.63,2.17h0s0,0,0,0l.15,0,.13,0h.05l.28,0,.33,0a2.38,2.38,0,0,0,.82-.3l.06,0h0a2.23,2.23,0,0,0,.9-1.13,2.19,2.19,0,0,0,.14-.77,2.12,2.12,0,0,0-.18-.87,2.26,2.26,0,0,0-4.34.87Zm1.44,0a.82.82,0,0,1,.82-.81.81.81,0,0,1,.81.81.82.82,0,0,1-.81.82A.82.82,0,0,1,267,75.41Z"/><path class="cls-1" d="M303.28,75.72a2.31,2.31,0,0,0,.05.46,2.19,2.19,0,0,0,.71,1.23,2,2,0,0,0,.72.43,1.29,1.29,0,0,0,.28.08s0,0,0,0a1.09,1.09,0,0,0,.26,0l.13,0h.22a2.27,2.27,0,1,0-2.38-2.26Zm2.26.82a.82.82,0,0,1-.82-.82.82.82,0,0,1,.82-.81.81.81,0,0,1,.81.81A.82.82,0,0,1,305.54,76.54Z"/><circle class="cls-1" cx="377.82" cy="81.15" r="1.54"/><circle class="cls-1" cx="373.58" cy="97.83" r="1.5"/><polygon class="cls-1" points="378.7 103.61 368.72 103.61 368.72 72.79 378.7 72.79 378.7 78.4 374.33 78.4 374.33 96.84 372.89 96.84 372.89 76.95 377.26 76.95 377.26 74.23 370.16 74.23 370.16 102.16 377.26 102.16 377.26 81.84 378.7 81.84 378.7 103.61"/><text class="cls-6" transform="translate(442.12 103.26)">rtuosos</text><polygon class="cls-1" points="335.94 103.94 311.66 103.94 311.66 93.12 313.1 93.12 313.1 102.5 334.5 102.5 334.5 99.77 316.05 99.77 316.05 89.23 311.66 89.23 311.66 74.23 313.1 74.23 313.1 87.78 317.5 87.78 317.5 98.32 335.94 98.32 335.94 103.94"/><polygon class="cls-1" points="333.03 95.38 320.22 95.38 320.22 74.73 317.28 74.73 317.28 83.45 315.83 83.45 315.83 73.29 321.67 73.29 321.67 93.93 333.03 93.93 333.03 95.38"/><circle class="cls-1" cx="334.14" cy="94.82" r="1.54"/><circle class="cls-1" cx="312.5" cy="92.37" r="1.54"/><circle class="cls-1" cx="316.67" cy="83.96" r="1.54"/><circle class="cls-1" cx="312.3" cy="75.11" r="1.54"/><polygon class="cls-7" points="85.99 127.56 71.51 127.56 71.51 126.15 85.41 126.15 89.74 121.82 106.73 121.82 109.44 119.11 123.2 119.11 127.62 114.69 128.62 115.68 123.78 120.52 110.03 120.52 107.31 123.23 90.32 123.23 85.99 127.56"/><polygon class="cls-8" points="108.78 107.37 76.54 107.37 76.54 105.96 108.19 105.96 112.76 101.4 136.33 101.4 136.33 102.81 113.34 102.81 108.78 107.37"/><polygon class="cls-9" points="122.35 95.89 120.04 93.59 103.11 93.59 100.07 90.54 92.82 90.54 92.82 89.14 100.65 89.14 103.69 92.18 120.62 92.18 123.34 94.9 122.35 95.89"/><polygon class="cls-10" points="141.33 73.35 135.65 73.35 130.16 67.86 102.64 67.86 95.99 60.77 97.02 59.8 103.25 66.45 130.74 66.45 136.23 71.94 141.33 71.94 141.33 73.35"/><polygon class="cls-11" points="142.26 82.66 135.54 82.66 131.09 78.21 124.42 78.21 120.38 82.25 108.48 82.25 108.48 80.84 119.79 80.84 123.83 76.8 131.67 76.8 136.13 81.25 142.26 81.25 142.26 82.66"/><polygon class="cls-12" points="129.02 96.12 100.8 96.12 100.8 94.71 128.43 94.71 132.63 90.51 143.18 90.51 143.18 91.92 133.22 91.92 129.02 96.12"/><polygon class="cls-13" points="132.32 107.17 122.75 107.17 122.75 105.76 131.73 105.76 137.59 99.9 144.31 99.9 144.31 101.31 138.17 101.31 132.32 107.17"/><polygon class="cls-14" points="133.68 115.88 111.23 115.88 107.29 111.94 85.82 111.94 85.82 110.54 107.88 110.54 111.81 114.47 133.1 114.47 138.59 108.98 143.44 108.98 143.44 110.39 139.17 110.39 133.68 115.88"/><polygon class="cls-15" points="131.6 125.47 130.61 124.47 136.77 118.31 141.93 118.31 141.93 119.72 137.35 119.72 131.6 125.47"/><polygon class="cls-16" points="132.16 135.84 121.01 135.84 116.91 131.75 105.44 131.75 105.44 130.34 117.5 130.34 121.59 134.43 131.58 134.43 138.52 127.49 140.99 127.49 140.99 128.9 139.11 128.9 132.16 135.84"/><polygon class="cls-17" points="118.13 75.26 102.47 75.26 99.1 71.89 94.96 71.89 94.96 70.48 99.68 70.48 103.06 73.85 117.55 73.85 124.79 66.61 125.78 67.61 118.13 75.26"/><path class="cls-18" d="M95.38,61.45a2.35,2.35,0,1,1,2.35-2.35A2.35,2.35,0,0,1,95.38,61.45Zm0-3.18a.83.83,0,1,0,.83.83A.83.83,0,0,0,95.38,58.27Z"/><path class="cls-19" d="M74.87,109a2.35,2.35,0,1,1,2.35-2.35A2.35,2.35,0,0,1,74.87,109Zm0-3.18a.83.83,0,1,0,.83.83A.83.83,0,0,0,74.87,105.85Z"/><path class="cls-20" d="M103.78,133.52a2.35,2.35,0,1,1,2.35-2.35A2.35,2.35,0,0,1,103.78,133.52Zm0-3.18a.83.83,0,1,0,.83.83A.83.83,0,0,0,103.78,130.34Z"/><path class="cls-21" d="M121.14,108.93a2.35,2.35,0,1,1,2.35-2.35A2.35,2.35,0,0,1,121.14,108.93Zm0-3.18a.83.83,0,1,0,.83.83A.83.83,0,0,0,121.14,105.75Z"/><circle class="cls-22" cx="91.2" cy="89.89" r="1.59"/><path class="cls-23" d="M91.2,91.76a1.88,1.88,0,1,1,1.88-1.87A1.87,1.87,0,0,1,91.2,91.76Zm0-3.18a1.31,1.31,0,1,0,1.31,1.31A1.31,1.31,0,0,0,91.2,88.58Z"/><circle class="cls-24" cx="93.37" cy="71.17" r="1.59"/><path class="cls-25" d="M93.37,73.05a1.88,1.88,0,1,1,1.87-1.88A1.88,1.88,0,0,1,93.37,73.05Zm0-3.18a1.31,1.31,0,1,0,1.3,1.3A1.31,1.31,0,0,0,93.37,69.87Z"/><circle class="cls-26" cx="99.61" cy="95.4" r="1.59"/><path class="cls-26" d="M99.61,97.27a1.88,1.88,0,1,1,1.87-1.87A1.88,1.88,0,0,1,99.61,97.27Zm0-3.18a1.31,1.31,0,1,0,0,2.61,1.31,1.31,0,0,0,0-2.61Z"/><circle class="cls-27" cx="106.8" cy="81.38" r="1.59"/><path class="cls-27" d="M106.8,83.26a1.88,1.88,0,1,1,1.87-1.88A1.88,1.88,0,0,1,106.8,83.26Zm0-3.18a1.31,1.31,0,1,0,1.3,1.3A1.31,1.31,0,0,0,106.8,80.08Z"/><circle class="cls-28" cx="84.18" cy="111.26" r="1.59"/><path class="cls-29" d="M84.18,113.13a1.88,1.88,0,1,1,1.87-1.87A1.88,1.88,0,0,1,84.18,113.13Zm0-3.18a1.31,1.31,0,1,0,0,2.61,1.31,1.31,0,0,0,0-2.61Z"/><circle class="cls-30" cx="130.02" cy="125.75" r="1.59"/><path class="cls-30" d="M130,127.62a1.88,1.88,0,1,1,1.88-1.87A1.87,1.87,0,0,1,130,127.62Zm0-3.18a1.31,1.31,0,1,0,1.31,1.31A1.31,1.31,0,0,0,130,124.44Z"/><circle class="cls-31" cx="69.86" cy="126.68" r="1.59"/><path class="cls-31" d="M69.86,128.56a1.88,1.88,0,1,1,1.87-1.88A1.88,1.88,0,0,1,69.86,128.56Zm0-3.18a1.31,1.31,0,1,0,1.3,1.3A1.31,1.31,0,0,0,69.86,125.38Z"/><polygon class="cls-32" points="248.61 148.09 214.27 148.09 214.27 142.46 242.98 142.46 242.98 60.72 214.27 60.72 214.27 55.08 248.61 55.08 248.61 148.09"/><polygon class="cls-33" points="189.93 148.09 155.6 148.09 155.6 55.08 189.93 55.08 189.93 60.72 161.23 60.72 161.23 142.46 189.93 142.46 189.93 148.09"/><rect class="cls-34" x="140.33" y="70.72" width="12.24" height="4.08"/><rect class="cls-35" x="140.33" y="79.97" width="12.24" height="4.08"/><rect class="cls-35" x="140.33" y="79.97" width="12.24" height="4.08"/><rect class="cls-36" x="140.33" y="89.21" width="12.24" height="4.08"/><rect class="cls-36" x="140.33" y="89.21" width="12.24" height="4.08"/><rect class="cls-37" x="140.33" y="98.46" width="12.24" height="4.08"/><rect class="cls-37" x="140.33" y="98.46" width="12.24" height="4.08"/><rect class="cls-38" x="140.33" y="107.71" width="12.24" height="4.08"/><rect class="cls-38" x="140.33" y="107.71" width="12.24" height="4.08"/><rect class="cls-39" x="140.33" y="116.95" width="12.24" height="4.08"/><rect class="cls-39" x="140.33" y="116.95" width="12.24" height="4.08"/><rect class="cls-40" x="140.33" y="126.2" width="12.24" height="4.08"/></svg>