<svg id="Layer_1" data-name="Layer 1" xmlns="http://www.w3.org/2000/svg" viewBox="0 0 611.29 202.54"><defs><style>.cls-1,.cls-2,.cls-4,.cls-6{fill:none;}.cls-1,.cls-2,.cls-3,.cls-4,.cls-5,.cls-6,.cls-7{stroke:#000;stroke-miterlimit:10;}.cls-1{stroke-width:1.41px;}.cls-2{stroke-width:1.52px;}.cls-3{stroke-width:0.57px;}.cls-4{stroke-width:1.45px;}.cls-5,.cls-6,.cls-7{stroke-width:0.99px;}.cls-7{fill:#03ffff;}.cls-8{font-size:26.42px;font-family:Ubuntu-Bold, Ubuntu;font-weight:700;}</style></defs><title>vvl_bw_svg</title><rect x="135.76" y="73" width="12.24" height="4.08"/><rect x="135.76" y="82.25" width="12.24" height="4.08"/><rect x="135.76" y="82.25" width="12.24" height="4.08"/><rect x="135.76" y="91.5" width="12.24" height="4.08"/><rect x="135.76" y="91.5" width="12.24" height="4.08"/><rect x="135.76" y="100.74" width="12.24" height="4.08"/><rect x="135.76" y="100.74" width="12.24" height="4.08"/><rect x="135.76" y="109.99" width="12.24" height="4.08"/><rect x="135.76" y="109.99" width="12.24" height="4.08"/><rect x="135.76" y="119.24" width="12.24" height="4.08"/><rect x="135.76" y="119.24" width="12.24" height="4.08"/><rect x="135.76" y="128.49" width="12.24" height="4.08"/><polyline class="cls-1" points="136.75 74.93 131.36 74.93 125.87 69.43 98.37 69.43 91.93 62.57"/><polyline class="cls-1" points="137.69 84.24 131.26 84.24 126.81 79.79 119.55 79.79 115.51 83.83 103.9 83.83"/><polyline class="cls-1" points="138.61 93.5 128.35 93.5 124.15 97.7 96.22 97.7"/><polyline class="cls-1" points="139.73 102.89 133.31 102.89 127.45 108.75 118.17 108.75"/><polyline class="cls-1" points="138.87 111.97 134.31 111.97 128.81 117.46 106.95 117.46 103.01 113.52 81.25 113.52"/><polyline class="cls-1" points="137.36 121.29 132.49 121.29 126.53 127.25"/><polyline class="cls-1" points="136.41 130.48 134.24 130.48 127.3 137.42 116.72 137.42 112.63 133.33 100.87 133.33"/><polyline class="cls-1" points="123.54 117.47 118.91 122.1 105.16 122.1 102.45 124.81 85.45 124.81 81.12 129.14 66.94 129.14"/><polyline class="cls-1" points="120.71 69.39 113.27 76.84 98.19 76.84 94.81 73.47 90.39 73.47"/><polyline class="cls-1" points="131.75 104.39 108.47 104.39 103.91 108.95 71.97 108.95"/><polyline class="cls-1" points="118.27 97.68 115.75 95.17 98.83 95.17 95.78 92.12 88.25 92.12"/><circle class="cls-2" cx="90.81" cy="61.38" r="1.59"/><circle class="cls-2" cx="70.29" cy="108.96" r="1.59"/><circle class="cls-2" cx="99.21" cy="133.46" r="1.59"/><circle class="cls-2" cx="116.56" cy="108.86" r="1.59"/><circle class="cls-3" cx="86.63" cy="92.17" r="1.59"/><circle class="cls-3" cx="88.79" cy="73.46" r="1.59"/><circle class="cls-3" cx="102.33" cy="83.84" r="1.59"/><circle class="cls-3" cx="79.6" cy="113.54" r="1.59"/><circle class="cls-3" cx="125.45" cy="128.03" r="1.59"/><circle class="cls-3" cx="65.3" cy="129.26" r="1.59"/><circle class="cls-3" cx="94.64" cy="97.73" r="1.59"/><path class="cls-4" d="M355.42,81s-4.22-1.08-6.66-.49c-3.26.79-3.63,2.48-2,3.7a21,21,0,0,0,3.62,1.69c3.21,1.34,3.86,2.17,3.86,2.17l-4.13,2s-2.08-1.14-4.21-2c-2-.83-3.91-2.48-4.24-3.92-.95-4.14,2.44-6.17,6.21-6.87s9.09.44,9.09.44l.25-3.3S346.4,71.65,341,75.91s-3.87,8.68-3.87,8.68.5,4.71,6.86,6.44,4.7,5.7,4.7,5.7-1.27,2.8-5.82,1.32S338,96.51,338,96.51l-.2,7.41s5.73,1.64,9.42,1.39c2.92-.2,6.3-1.22,8.45-3.74a8.53,8.53,0,0,0,1.75-6,13.35,13.35,0,0,0-1.48-5l-3.85,2.22s1.41,3.59.37,5.83c-2.2,4.72-9.87,3.11-11.36,2.33"/><circle cx="341.66" cy="101.26" r="1.54"/><circle cx="355.53" cy="81.01" r="1.54"/><polygon points="244.2 149.72 209.86 149.72 209.86 144.09 238.56 144.09 238.56 62.35 209.86 62.35 209.86 56.71 244.2 56.71 244.2 149.72"/><polygon points="185.52 149.72 151.19 149.72 151.19 56.71 185.52 56.71 185.52 62.35 156.82 62.35 156.82 144.09 185.52 144.09 185.52 149.72"/><path d="M223.73,86.25A1.72,1.72,0,1,0,225.24,88,1.62,1.62,0,0,0,223.73,86.25Zm0,0A1.72,1.72,0,1,0,225.24,88,1.62,1.62,0,0,0,223.73,86.25Zm0,0A1.72,1.72,0,1,0,225.24,88,1.62,1.62,0,0,0,223.73,86.25Zm0,0A1.72,1.72,0,1,0,225.24,88,1.62,1.62,0,0,0,223.73,86.25Zm0,0A1.72,1.72,0,1,0,225.24,88,1.62,1.62,0,0,0,223.73,86.25Zm0,0A1.72,1.72,0,1,0,225.24,88,1.62,1.62,0,0,0,223.73,86.25Zm0,0A1.72,1.72,0,1,0,225.24,88,1.62,1.62,0,0,0,223.73,86.25Zm0,0A1.72,1.72,0,1,0,225.24,88,1.62,1.62,0,0,0,223.73,86.25Zm0,0A1.72,1.72,0,1,0,225.24,88,1.62,1.62,0,0,0,223.73,86.25ZM198.26,117a1.34,1.34,0,0,0-.8-.26,1.36,1.36,0,0,0-.6.14,1.49,1.49,0,0,0-.58.51h0a1.86,1.86,0,0,0-.32,1,1.62,1.62,0,0,0,1.51,1.71,1.39,1.39,0,0,0,.89-.33,1.8,1.8,0,0,0,.62-1.38A1.76,1.76,0,0,0,198.26,117Zm-.17,2.61a1,1,0,0,1-.63.22,1.29,1.29,0,0,1-1.18-1.38,1.53,1.53,0,0,1,.26-.86l0,0a1.21,1.21,0,0,1,.44-.38h0a1,1,0,0,1,.45-.11,1,1,0,0,1,.58.18,1.5,1.5,0,0,1,.05,2.36Zm.17-2.61a1.34,1.34,0,0,0-.8-.26,1.36,1.36,0,0,0-.6.14,1.49,1.49,0,0,0-.58.51h0a1.86,1.86,0,0,0-.32,1,1.62,1.62,0,0,0,1.51,1.71,1.39,1.39,0,0,0,.89-.33,1.8,1.8,0,0,0,.62-1.38A1.76,1.76,0,0,0,198.26,117Zm-.17,2.61a1,1,0,0,1-.63.22,1.29,1.29,0,0,1-1.18-1.38,1.53,1.53,0,0,1,.26-.86l0,0a1.21,1.21,0,0,1,.44-.38h0a1,1,0,0,1,.45-.11,1,1,0,0,1,.58.18,1.5,1.5,0,0,1,.05,2.36Zm25.64-33.39A1.72,1.72,0,1,0,225.24,88,1.62,1.62,0,0,0,223.73,86.25Zm0,0A1.72,1.72,0,1,0,225.24,88,1.62,1.62,0,0,0,223.73,86.25ZM198.26,117a1.34,1.34,0,0,0-.8-.26,1.36,1.36,0,0,0-.6.14,1.49,1.49,0,0,0-.58.51h0a1.86,1.86,0,0,0-.32,1,1.62,1.62,0,0,0,1.51,1.71,1.39,1.39,0,0,0,.89-.33,1.8,1.8,0,0,0,.62-1.38A1.76,1.76,0,0,0,198.26,117Zm-.17,2.61a1,1,0,0,1-.63.22,1.29,1.29,0,0,1-1.18-1.38,1.53,1.53,0,0,1,.26-.86l0,0a1.21,1.21,0,0,1,.44-.38h0a1,1,0,0,1,.45-.11,1,1,0,0,1,.58.18,1.5,1.5,0,0,1,.05,2.36Zm.17-2.61a1.34,1.34,0,0,0-.8-.26,1.36,1.36,0,0,0-.6.14,1.49,1.49,0,0,0-.58.51h0a1.86,1.86,0,0,0-.32,1,1.62,1.62,0,0,0,1.51,1.71,1.39,1.39,0,0,0,.89-.33,1.8,1.8,0,0,0,.62-1.38A1.76,1.76,0,0,0,198.26,117Zm-.17,2.61a1,1,0,0,1-.63.22,1.29,1.29,0,0,1-1.18-1.38,1.53,1.53,0,0,1,.26-.86l0,0a1.21,1.21,0,0,1,.44-.38h0a1,1,0,0,1,.45-.11,1,1,0,0,1,.58.18,1.5,1.5,0,0,1,.05,2.36Zm25.64-33.39A1.72,1.72,0,1,0,225.24,88,1.62,1.62,0,0,0,223.73,86.25Zm0,0A1.72,1.72,0,1,0,225.24,88,1.62,1.62,0,0,0,223.73,86.25ZM198.26,117a1.34,1.34,0,0,0-.8-.26,1.36,1.36,0,0,0-.6.14,1.49,1.49,0,0,0-.58.51h0a1.86,1.86,0,0,0-.32,1,1.62,1.62,0,0,0,1.51,1.71,1.39,1.39,0,0,0,.89-.33,1.8,1.8,0,0,0,.62-1.38A1.76,1.76,0,0,0,198.26,117Zm-.17,2.61a1,1,0,0,1-.63.22,1.29,1.29,0,0,1-1.18-1.38,1.53,1.53,0,0,1,.26-.86l0,0a1.21,1.21,0,0,1,.44-.38h0a1,1,0,0,1,.45-.11,1,1,0,0,1,.58.18,1.5,1.5,0,0,1,.05,2.36Zm.17-2.61a1.34,1.34,0,0,0-.8-.26,1.36,1.36,0,0,0-.6.14,1.49,1.49,0,0,0-.58.51h0a1.86,1.86,0,0,0-.32,1,1.62,1.62,0,0,0,1.51,1.71,1.39,1.39,0,0,0,.89-.33,1.8,1.8,0,0,0,.62-1.38A1.76,1.76,0,0,0,198.26,117Zm-.17,2.61a1,1,0,0,1-.63.22,1.29,1.29,0,0,1-1.18-1.38,1.53,1.53,0,0,1,.26-.86l0,0a1.21,1.21,0,0,1,.44-.38h0a1,1,0,0,1,.45-.11,1,1,0,0,1,.58.18,1.5,1.5,0,0,1,.05,2.36Zm25.64-33.39A1.72,1.72,0,1,0,225.24,88,1.62,1.62,0,0,0,223.73,86.25Zm0,0A1.72,1.72,0,1,0,225.24,88,1.62,1.62,0,0,0,223.73,86.25ZM198.26,117a1.34,1.34,0,0,0-.8-.26,1.36,1.36,0,0,0-.6.14,1.49,1.49,0,0,0-.58.51h0a1.86,1.86,0,0,0-.32,1,1.62,1.62,0,0,0,1.51,1.71,1.39,1.39,0,0,0,.89-.33,1.8,1.8,0,0,0,.62-1.38A1.76,1.76,0,0,0,198.26,117Zm-.17,2.61a1,1,0,0,1-.63.22,1.29,1.29,0,0,1-1.18-1.38,1.53,1.53,0,0,1,.26-.86l0,0a1.21,1.21,0,0,1,.44-.38h0a1,1,0,0,1,.45-.11,1,1,0,0,1,.58.18,1.5,1.5,0,0,1,.05,2.36ZM171.65,86.26A1.72,1.72,0,1,0,173.16,88,1.62,1.62,0,0,0,171.65,86.26Zm0,0A1.72,1.72,0,1,0,173.16,88,1.62,1.62,0,0,0,171.65,86.26ZM198.26,117a1.34,1.34,0,0,0-.8-.26,1.36,1.36,0,0,0-.6.14,1.49,1.49,0,0,0-.58.51h0a1.86,1.86,0,0,0-.32,1,1.62,1.62,0,0,0,1.51,1.71,1.39,1.39,0,0,0,.89-.33,1.8,1.8,0,0,0,.62-1.38A1.76,1.76,0,0,0,198.26,117Zm-.17,2.61a1,1,0,0,1-.63.22,1.29,1.29,0,0,1-1.18-1.38,1.53,1.53,0,0,1,.26-.86l0,0a1.21,1.21,0,0,1,.44-.38h0a1,1,0,0,1,.45-.11,1,1,0,0,1,.58.18,1.5,1.5,0,0,1,.05,2.36Zm25.64-33.39A1.72,1.72,0,1,0,225.24,88,1.62,1.62,0,0,0,223.73,86.25Zm0,0A1.72,1.72,0,1,0,225.24,88,1.62,1.62,0,0,0,223.73,86.25ZM198.26,117a1.34,1.34,0,0,0-.8-.26,1.36,1.36,0,0,0-.6.14,1.49,1.49,0,0,0-.58.51h0a1.86,1.86,0,0,0-.32,1,1.62,1.62,0,0,0,1.51,1.71,1.39,1.39,0,0,0,.89-.33,1.8,1.8,0,0,0,.62-1.38A1.76,1.76,0,0,0,198.26,117Zm-.17,2.61a1,1,0,0,1-.63.22,1.29,1.29,0,0,1-1.18-1.38,1.53,1.53,0,0,1,.26-.86l0,0a1.21,1.21,0,0,1,.44-.38h0a1,1,0,0,1,.45-.11,1,1,0,0,1,.58.18,1.5,1.5,0,0,1,.05,2.36ZM171.65,86.26A1.72,1.72,0,1,0,173.16,88,1.62,1.62,0,0,0,171.65,86.26Zm52.08,0A1.72,1.72,0,1,0,225.24,88,1.62,1.62,0,0,0,223.73,86.25ZM198.26,117a1.34,1.34,0,0,0-.8-.26,1.36,1.36,0,0,0-.6.14,1.49,1.49,0,0,0-.58.51h0a1.86,1.86,0,0,0-.32,1,1.62,1.62,0,0,0,1.51,1.71,1.39,1.39,0,0,0,.89-.33,1.8,1.8,0,0,0,.62-1.38A1.76,1.76,0,0,0,198.26,117Zm-.17,2.61a1,1,0,0,1-.63.22,1.29,1.29,0,0,1-1.18-1.38,1.53,1.53,0,0,1,.26-.86l0,0a1.21,1.21,0,0,1,.44-.38h0a1,1,0,0,1,.45-.11,1,1,0,0,1,.58.18,1.5,1.5,0,0,1,.05,2.36ZM171.65,86.26A1.72,1.72,0,1,0,173.16,88,1.62,1.62,0,0,0,171.65,86.26Zm0,0A1.72,1.72,0,1,0,173.16,88,1.62,1.62,0,0,0,171.65,86.26ZM198.26,117a1.34,1.34,0,0,0-.8-.26,1.36,1.36,0,0,0-.6.14,1.49,1.49,0,0,0-.58.51h0a1.86,1.86,0,0,0-.32,1,1.62,1.62,0,0,0,1.51,1.71,1.39,1.39,0,0,0,.89-.33,1.8,1.8,0,0,0,.62-1.38A1.76,1.76,0,0,0,198.26,117Zm-.17,2.61a1,1,0,0,1-.63.22,1.29,1.29,0,0,1-1.18-1.38,1.53,1.53,0,0,1,.26-.86l0,0a1.21,1.21,0,0,1,.44-.38h0a1,1,0,0,1,.45-.11,1,1,0,0,1,.58.18,1.5,1.5,0,0,1,.05,2.36Zm25.64-33.39A1.72,1.72,0,1,0,225.24,88,1.62,1.62,0,0,0,223.73,86.25Zm0,0A1.72,1.72,0,1,0,225.24,88,1.62,1.62,0,0,0,223.73,86.25ZM198.26,117a1.34,1.34,0,0,0-.8-.26,1.36,1.36,0,0,0-.6.14,1.49,1.49,0,0,0-.58.51h0a1.86,1.86,0,0,0-.32,1,1.62,1.62,0,0,0,1.51,1.71,1.39,1.39,0,0,0,.89-.33,1.8,1.8,0,0,0,.62-1.38A1.76,1.76,0,0,0,198.26,117Zm-.17,2.61a1,1,0,0,1-.63.22,1.29,1.29,0,0,1-1.18-1.38,1.53,1.53,0,0,1,.26-.86l0,0a1.21,1.21,0,0,1,.44-.38h0a1,1,0,0,1,.45-.11,1,1,0,0,1,.58.18,1.5,1.5,0,0,1,.05,2.36ZM171.65,86.26A1.72,1.72,0,1,0,173.16,88,1.62,1.62,0,0,0,171.65,86.26Zm0,0A1.72,1.72,0,1,0,173.16,88,1.62,1.62,0,0,0,171.65,86.26ZM198.26,117a1.34,1.34,0,0,0-.8-.26,1.36,1.36,0,0,0-.6.14,1.49,1.49,0,0,0-.58.51h0a1.86,1.86,0,0,0-.32,1,1.62,1.62,0,0,0,1.51,1.71,1.39,1.39,0,0,0,.89-.33,1.8,1.8,0,0,0,.62-1.38A1.76,1.76,0,0,0,198.26,117Zm-.17,2.61a1,1,0,0,1-.63.22,1.29,1.29,0,0,1-1.18-1.38,1.53,1.53,0,0,1,.26-.86l0,0a1.21,1.21,0,0,1,.44-.38h0a1,1,0,0,1,.45-.11,1,1,0,0,1,.58.18,1.5,1.5,0,0,1,.05,2.36Zm25.64-33.39A1.72,1.72,0,1,0,225.24,88,1.62,1.62,0,0,0,223.73,86.25Zm0,0A1.72,1.72,0,1,0,225.24,88,1.62,1.62,0,0,0,223.73,86.25ZM198.26,117a1.34,1.34,0,0,0-.8-.26,1.36,1.36,0,0,0-.6.14,1.49,1.49,0,0,0-.58.51h0a1.86,1.86,0,0,0-.32,1,1.62,1.62,0,0,0,1.51,1.71,1.39,1.39,0,0,0,.89-.33,1.8,1.8,0,0,0,.62-1.38A1.76,1.76,0,0,0,198.26,117Zm-.17,2.61a1,1,0,0,1-.63.22,1.29,1.29,0,0,1-1.18-1.38,1.53,1.53,0,0,1,.26-.86l0,0a1.21,1.21,0,0,1,.44-.38h0a1,1,0,0,1,.45-.11,1,1,0,0,1,.58.18,1.5,1.5,0,0,1,.05,2.36ZM171.65,86.26A1.72,1.72,0,1,0,173.16,88,1.62,1.62,0,0,0,171.65,86.26Zm-8.76-17.84V138h69.6V68.42Zm69.27,69.27H163.22V68.75h68.94Zm-8.43-48A1.72,1.72,0,1,0,222.22,88,1.62,1.62,0,0,0,223.73,89.67Zm-26.27,30.52a1.39,1.39,0,0,0,.89-.33,1.8,1.8,0,0,0,.62-1.38,1.76,1.76,0,0,0-.71-1.45,1.34,1.34,0,0,0-.8-.26,1.36,1.36,0,0,0-.6.14,1.49,1.49,0,0,0-.58.51h0a1.86,1.86,0,0,0-.32,1A1.62,1.62,0,0,0,197.46,120.19Zm-.92-2.57,0,0a1.21,1.21,0,0,1,.44-.38h0a1,1,0,0,1,.45-.11,1,1,0,0,1,.58.18,1.5,1.5,0,0,1,.05,2.36,1,1,0,0,1-.63.22,1.29,1.29,0,0,1-1.18-1.38A1.53,1.53,0,0,1,196.54,117.62ZM171.65,89.68A1.72,1.72,0,1,0,170.14,88,1.62,1.62,0,0,0,171.65,89.68Zm0-3.42A1.72,1.72,0,1,0,173.16,88,1.62,1.62,0,0,0,171.65,86.26ZM198.26,117a1.34,1.34,0,0,0-.8-.26,1.36,1.36,0,0,0-.6.14,1.49,1.49,0,0,0-.58.51h0a1.86,1.86,0,0,0-.32,1,1.62,1.62,0,0,0,1.51,1.71,1.39,1.39,0,0,0,.89-.33,1.8,1.8,0,0,0,.62-1.38A1.76,1.76,0,0,0,198.26,117Zm-.17,2.61a1,1,0,0,1-.63.22,1.29,1.29,0,0,1-1.18-1.38,1.53,1.53,0,0,1,.26-.86l0,0a1.21,1.21,0,0,1,.44-.38h0a1,1,0,0,1,.45-.11,1,1,0,0,1,.58.18,1.5,1.5,0,0,1,.05,2.36Zm25.64-33.39A1.72,1.72,0,1,0,225.24,88,1.62,1.62,0,0,0,223.73,86.25Zm0,0A1.72,1.72,0,1,0,225.24,88,1.62,1.62,0,0,0,223.73,86.25ZM198.26,117a1.34,1.34,0,0,0-.8-.26,1.36,1.36,0,0,0-.6.14,1.49,1.49,0,0,0-.58.51h0a1.86,1.86,0,0,0-.32,1,1.62,1.62,0,0,0,1.51,1.71,1.39,1.39,0,0,0,.89-.33,1.8,1.8,0,0,0,.62-1.38A1.76,1.76,0,0,0,198.26,117Zm-.17,2.61a1,1,0,0,1-.63.22,1.29,1.29,0,0,1-1.18-1.38,1.53,1.53,0,0,1,.26-.86l0,0a1.21,1.21,0,0,1,.44-.38h0a1,1,0,0,1,.45-.11,1,1,0,0,1,.58.18,1.5,1.5,0,0,1,.05,2.36ZM171.65,86.26A1.72,1.72,0,1,0,173.16,88,1.62,1.62,0,0,0,171.65,86.26Zm0,0A1.72,1.72,0,1,0,173.16,88,1.62,1.62,0,0,0,171.65,86.26ZM198.26,117a1.34,1.34,0,0,0-.8-.26,1.36,1.36,0,0,0-.6.14,1.49,1.49,0,0,0-.58.51h0a1.86,1.86,0,0,0-.32,1,1.62,1.62,0,0,0,1.51,1.71,1.39,1.39,0,0,0,.89-.33,1.8,1.8,0,0,0,.62-1.38A1.76,1.76,0,0,0,198.26,117Zm-.17,2.61a1,1,0,0,1-.63.22,1.29,1.29,0,0,1-1.18-1.38,1.53,1.53,0,0,1,.26-.86l0,0a1.21,1.21,0,0,1,.44-.38h0a1,1,0,0,1,.45-.11,1,1,0,0,1,.58.18,1.5,1.5,0,0,1,.05,2.36Zm25.64-33.39A1.72,1.72,0,1,0,225.24,88,1.62,1.62,0,0,0,223.73,86.25Zm0,0A1.72,1.72,0,1,0,225.24,88,1.62,1.62,0,0,0,223.73,86.25ZM198.26,117a1.34,1.34,0,0,0-.8-.26,1.36,1.36,0,0,0-.6.14,1.49,1.49,0,0,0-.58.51h0a1.86,1.86,0,0,0-.32,1,1.62,1.62,0,0,0,1.51,1.71,1.39,1.39,0,0,0,.89-.33,1.8,1.8,0,0,0,.62-1.38A1.76,1.76,0,0,0,198.26,117Zm-.17,2.61a1,1,0,0,1-.63.22,1.29,1.29,0,0,1-1.18-1.38,1.53,1.53,0,0,1,.26-.86l0,0a1.21,1.21,0,0,1,.44-.38h0a1,1,0,0,1,.45-.11,1,1,0,0,1,.58.18,1.5,1.5,0,0,1,.05,2.36ZM171.65,86.26A1.72,1.72,0,1,0,173.16,88,1.62,1.62,0,0,0,171.65,86.26Zm52.08,0A1.72,1.72,0,1,0,225.24,88,1.62,1.62,0,0,0,223.73,86.25ZM198.26,117a1.34,1.34,0,0,0-.8-.26,1.36,1.36,0,0,0-.6.14,1.49,1.49,0,0,0-.58.51h0a1.86,1.86,0,0,0-.32,1,1.62,1.62,0,0,0,1.51,1.71,1.39,1.39,0,0,0,.89-.33,1.8,1.8,0,0,0,.62-1.38A1.76,1.76,0,0,0,198.26,117Zm-.17,2.61a1,1,0,0,1-.63.22,1.29,1.29,0,0,1-1.18-1.38,1.53,1.53,0,0,1,.26-.86l0,0a1.21,1.21,0,0,1,.44-.38h0a1,1,0,0,1,.45-.11,1,1,0,0,1,.58.18,1.5,1.5,0,0,1,.05,2.36ZM171.65,86.26A1.72,1.72,0,1,0,173.16,88,1.62,1.62,0,0,0,171.65,86.26Zm0,0A1.72,1.72,0,1,0,173.16,88,1.62,1.62,0,0,0,171.65,86.26ZM198.26,117a1.34,1.34,0,0,0-.8-.26,1.36,1.36,0,0,0-.6.14,1.49,1.49,0,0,0-.58.51h0a1.86,1.86,0,0,0-.32,1,1.62,1.62,0,0,0,1.51,1.71,1.39,1.39,0,0,0,.89-.33,1.8,1.8,0,0,0,.62-1.38A1.76,1.76,0,0,0,198.26,117Zm-.17,2.61a1,1,0,0,1-.63.22,1.29,1.29,0,0,1-1.18-1.38,1.53,1.53,0,0,1,.26-.86l0,0a1.21,1.21,0,0,1,.44-.38h0a1,1,0,0,1,.45-.11,1,1,0,0,1,.58.18,1.5,1.5,0,0,1,.05,2.36Zm25.64-33.39A1.72,1.72,0,1,0,225.24,88,1.62,1.62,0,0,0,223.73,86.25Zm0,0A1.72,1.72,0,1,0,225.24,88,1.62,1.62,0,0,0,223.73,86.25ZM198.26,117a1.34,1.34,0,0,0-.8-.26,1.36,1.36,0,0,0-.6.14,1.49,1.49,0,0,0-.58.51h0a1.86,1.86,0,0,0-.32,1,1.62,1.62,0,0,0,1.51,1.71,1.39,1.39,0,0,0,.89-.33,1.8,1.8,0,0,0,.62-1.38A1.76,1.76,0,0,0,198.26,117Zm-.17,2.61a1,1,0,0,1-.63.22,1.29,1.29,0,0,1-1.18-1.38,1.53,1.53,0,0,1,.26-.86l0,0a1.21,1.21,0,0,1,.44-.38h0a1,1,0,0,1,.45-.11,1,1,0,0,1,.58.18,1.5,1.5,0,0,1,.05,2.36ZM171.65,86.26A1.72,1.72,0,1,0,173.16,88,1.62,1.62,0,0,0,171.65,86.26Zm0,0A1.72,1.72,0,1,0,173.16,88,1.62,1.62,0,0,0,171.65,86.26ZM198.26,117a1.34,1.34,0,0,0-.8-.26,1.36,1.36,0,0,0-.6.14,1.49,1.49,0,0,0-.58.51h0a1.86,1.86,0,0,0-.32,1,1.62,1.62,0,0,0,1.51,1.71,1.39,1.39,0,0,0,.89-.33,1.8,1.8,0,0,0,.62-1.38A1.76,1.76,0,0,0,198.26,117Zm-.17,2.61a1,1,0,0,1-.63.22,1.29,1.29,0,0,1-1.18-1.38,1.53,1.53,0,0,1,.26-.86l0,0a1.21,1.21,0,0,1,.44-.38h0a1,1,0,0,1,.45-.11,1,1,0,0,1,.58.18,1.5,1.5,0,0,1,.05,2.36Zm25.64-33.39A1.72,1.72,0,1,0,225.24,88,1.62,1.62,0,0,0,223.73,86.25Zm0,0A1.72,1.72,0,1,0,225.24,88,1.62,1.62,0,0,0,223.73,86.25ZM198.26,117a1.34,1.34,0,0,0-.8-.26,1.36,1.36,0,0,0-.6.14,1.49,1.49,0,0,0-.58.51h0a1.86,1.86,0,0,0-.32,1,1.62,1.62,0,0,0,1.51,1.71,1.39,1.39,0,0,0,.89-.33,1.8,1.8,0,0,0,.62-1.38A1.76,1.76,0,0,0,198.26,117Zm-.17,2.61a1,1,0,0,1-.63.22,1.29,1.29,0,0,1-1.18-1.38,1.53,1.53,0,0,1,.26-.86l0,0a1.21,1.21,0,0,1,.44-.38h0a1,1,0,0,1,.45-.11,1,1,0,0,1,.58.18,1.5,1.5,0,0,1,.05,2.36Zm.17-2.61a1.34,1.34,0,0,0-.8-.26,1.36,1.36,0,0,0-.6.14,1.49,1.49,0,0,0-.58.51h0a1.86,1.86,0,0,0-.32,1,1.62,1.62,0,0,0,1.51,1.71,1.39,1.39,0,0,0,.89-.33,1.8,1.8,0,0,0,.62-1.38A1.76,1.76,0,0,0,198.26,117Zm-.17,2.61a1,1,0,0,1-.63.22,1.29,1.29,0,0,1-1.18-1.38,1.53,1.53,0,0,1,.26-.86l0,0a1.21,1.21,0,0,1,.44-.38h0a1,1,0,0,1,.45-.11,1,1,0,0,1,.58.18,1.5,1.5,0,0,1,.05,2.36Zm25.64-33.39A1.72,1.72,0,1,0,225.24,88,1.62,1.62,0,0,0,223.73,86.25Zm0,0A1.72,1.72,0,1,0,225.24,88,1.62,1.62,0,0,0,223.73,86.25ZM198.26,117a1.34,1.34,0,0,0-.8-.26,1.36,1.36,0,0,0-.6.14,1.49,1.49,0,0,0-.58.51h0a1.86,1.86,0,0,0-.32,1,1.62,1.62,0,0,0,1.51,1.71,1.39,1.39,0,0,0,.89-.33,1.8,1.8,0,0,0,.62-1.38A1.76,1.76,0,0,0,198.26,117Zm-.17,2.61a1,1,0,0,1-.63.22,1.29,1.29,0,0,1-1.18-1.38,1.53,1.53,0,0,1,.26-.86l0,0a1.21,1.21,0,0,1,.44-.38h0a1,1,0,0,1,.45-.11,1,1,0,0,1,.58.18,1.5,1.5,0,0,1,.05,2.36Zm.17-2.61a1.34,1.34,0,0,0-.8-.26,1.36,1.36,0,0,0-.6.14,1.49,1.49,0,0,0-.58.51h0a1.86,1.86,0,0,0-.32,1,1.62,1.62,0,0,0,1.51,1.71,1.39,1.39,0,0,0,.89-.33,1.8,1.8,0,0,0,.62-1.38A1.76,1.76,0,0,0,198.26,117Zm-.17,2.61a1,1,0,0,1-.63.22,1.29,1.29,0,0,1-1.18-1.38,1.53,1.53,0,0,1,.26-.86l0,0a1.21,1.21,0,0,1,.44-.38h0a1,1,0,0,1,.45-.11,1,1,0,0,1,.58.18,1.5,1.5,0,0,1,.05,2.36Zm25.64-33.39A1.72,1.72,0,1,0,225.24,88,1.62,1.62,0,0,0,223.73,86.25Zm0,0A1.72,1.72,0,1,0,225.24,88,1.62,1.62,0,0,0,223.73,86.25Zm0,0A1.72,1.72,0,1,0,225.24,88,1.62,1.62,0,0,0,223.73,86.25Zm0,0A1.72,1.72,0,1,0,225.24,88,1.62,1.62,0,0,0,223.73,86.25Zm0,0A1.72,1.72,0,1,0,225.24,88,1.62,1.62,0,0,0,223.73,86.25Zm0,0A1.72,1.72,0,1,0,225.24,88,1.62,1.62,0,0,0,223.73,86.25Zm0,0A1.72,1.72,0,1,0,225.24,88,1.62,1.62,0,0,0,223.73,86.25Zm0,0A1.72,1.72,0,1,0,225.24,88,1.62,1.62,0,0,0,223.73,86.25Zm0,0A1.72,1.72,0,1,0,225.24,88,1.62,1.62,0,0,0,223.73,86.25Zm0,0A1.72,1.72,0,1,0,225.24,88,1.62,1.62,0,0,0,223.73,86.25Zm0,0A1.72,1.72,0,1,0,225.24,88,1.62,1.62,0,0,0,223.73,86.25Z"/><path d="M223.73,85.92a2.05,2.05,0,1,0,1.84,2A1.95,1.95,0,0,0,223.73,85.92Zm0,3.42A1.4,1.4,0,1,1,224.9,88,1.29,1.29,0,0,1,223.73,89.34Zm-25.26,27.44a1.64,1.64,0,0,0-1-.34,1.79,1.79,0,0,0-.75.17,1.87,1.87,0,0,0-.7.62l0,0a.63.63,0,0,1-.07.12,2.19,2.19,0,0,0-.29,1.09h0a2,2,0,0,0,1.84,2,1.73,1.73,0,0,0,1.15-.45,2.14,2.14,0,0,0,.69-1.59A2.09,2.09,0,0,0,198.47,116.78Zm-.38,2.86a1,1,0,0,1-.63.22,1.29,1.29,0,0,1-1.18-1.38,1.53,1.53,0,0,1,.26-.86l0,0a1.21,1.21,0,0,1,.44-.38h0a1,1,0,0,1,.45-.11,1,1,0,0,1,.58.18,1.5,1.5,0,0,1,.05,2.36ZM171.65,85.93a2.05,2.05,0,1,0,1.84,2A2,2,0,0,0,171.65,85.93Zm0,3.42A1.4,1.4,0,1,1,172.83,88,1.29,1.29,0,0,1,171.65,89.35Zm52.08-3.43a2.05,2.05,0,1,0,1.84,2A1.95,1.95,0,0,0,223.73,85.92Zm0,3.42A1.4,1.4,0,1,1,224.9,88,1.29,1.29,0,0,1,223.73,89.34Zm-25.26,27.44a1.64,1.64,0,0,0-1-.34,1.79,1.79,0,0,0-.75.17,1.87,1.87,0,0,0-.7.62l0,0a.63.63,0,0,1-.07.12,2.19,2.19,0,0,0-.29,1.09h0a2,2,0,0,0,1.84,2,1.73,1.73,0,0,0,1.15-.45,2.14,2.14,0,0,0,.69-1.59A2.09,2.09,0,0,0,198.47,116.78Zm-.38,2.86a1,1,0,0,1-.63.22,1.29,1.29,0,0,1-1.18-1.38,1.53,1.53,0,0,1,.26-.86l0,0a1.21,1.21,0,0,1,.44-.38h0a1,1,0,0,1,.45-.11,1,1,0,0,1,.58.18,1.5,1.5,0,0,1,.05,2.36ZM171.65,85.93a2.05,2.05,0,1,0,1.84,2A2,2,0,0,0,171.65,85.93Zm0,3.42A1.4,1.4,0,1,1,172.83,88,1.29,1.29,0,0,1,171.65,89.35Zm52.08-3.43a2.05,2.05,0,1,0,1.84,2A1.95,1.95,0,0,0,223.73,85.92Zm0,3.42A1.4,1.4,0,1,1,224.9,88,1.29,1.29,0,0,1,223.73,89.34Zm-25.26,27.44a1.64,1.64,0,0,0-1-.34,1.79,1.79,0,0,0-.75.17,1.87,1.87,0,0,0-.7.62l0,0a.63.63,0,0,1-.07.12,2.19,2.19,0,0,0-.29,1.09h0a2,2,0,0,0,1.84,2,1.73,1.73,0,0,0,1.15-.45,2.14,2.14,0,0,0,.69-1.59A2.09,2.09,0,0,0,198.47,116.78Zm-.38,2.86a1,1,0,0,1-.63.22,1.29,1.29,0,0,1-1.18-1.38,1.53,1.53,0,0,1,.26-.86l0,0a1.21,1.21,0,0,1,.44-.38h0a1,1,0,0,1,.45-.11,1,1,0,0,1,.58.18,1.5,1.5,0,0,1,.05,2.36ZM171.65,85.93a2.05,2.05,0,1,0,1.84,2A2,2,0,0,0,171.65,85.93Zm0,3.42A1.4,1.4,0,1,1,172.83,88,1.29,1.29,0,0,1,171.65,89.35Zm52.08-3.43a2.05,2.05,0,1,0,1.84,2A1.95,1.95,0,0,0,223.73,85.92Zm0,3.42A1.4,1.4,0,1,1,224.9,88,1.29,1.29,0,0,1,223.73,89.34Zm-25.26,27.44a1.64,1.64,0,0,0-1-.34,1.79,1.79,0,0,0-.75.17,1.87,1.87,0,0,0-.7.62l0,0a.63.63,0,0,1-.07.12,2.19,2.19,0,0,0-.29,1.09h0a2,2,0,0,0,1.84,2,1.73,1.73,0,0,0,1.15-.45,2.14,2.14,0,0,0,.69-1.59A2.09,2.09,0,0,0,198.47,116.78Zm-.38,2.86a1,1,0,0,1-.63.22,1.29,1.29,0,0,1-1.18-1.38,1.53,1.53,0,0,1,.26-.86l0,0a1.21,1.21,0,0,1,.44-.38h0a1,1,0,0,1,.45-.11,1,1,0,0,1,.58.18,1.5,1.5,0,0,1,.05,2.36ZM171.65,85.93a2.05,2.05,0,1,0,1.84,2A2,2,0,0,0,171.65,85.93Zm0,3.42A1.4,1.4,0,1,1,172.83,88,1.29,1.29,0,0,1,171.65,89.35Zm0-3.42a2.05,2.05,0,1,0,1.84,2A2,2,0,0,0,171.65,85.93Zm0,3.42A1.4,1.4,0,1,1,172.83,88,1.29,1.29,0,0,1,171.65,89.35Zm26.82,27.43a1.64,1.64,0,0,0-1-.34,1.79,1.79,0,0,0-.75.17,1.87,1.87,0,0,0-.7.62l0,0a.63.63,0,0,1-.07.12,2.19,2.19,0,0,0-.29,1.09h0a2,2,0,0,0,1.84,2,1.73,1.73,0,0,0,1.15-.45,2.14,2.14,0,0,0,.69-1.59A2.09,2.09,0,0,0,198.47,116.78Zm-.38,2.86a1,1,0,0,1-.63.22,1.29,1.29,0,0,1-1.18-1.38,1.53,1.53,0,0,1,.26-.86l0,0a1.21,1.21,0,0,1,.44-.38h0a1,1,0,0,1,.45-.11,1,1,0,0,1,.58.18,1.5,1.5,0,0,1,.05,2.36Zm25.64-33.72a2.05,2.05,0,1,0,1.84,2A1.95,1.95,0,0,0,223.73,85.92Zm0,3.42A1.4,1.4,0,1,1,224.9,88,1.29,1.29,0,0,1,223.73,89.34Zm0-3.42a2.05,2.05,0,1,0,1.84,2A1.95,1.95,0,0,0,223.73,85.92Zm0,3.42A1.4,1.4,0,1,1,224.9,88,1.29,1.29,0,0,1,223.73,89.34Zm-25.26,27.44a1.64,1.64,0,0,0-1-.34,1.79,1.79,0,0,0-.75.17,1.87,1.87,0,0,0-.7.62l0,0a.63.63,0,0,1-.07.12,2.19,2.19,0,0,0-.29,1.09h0a2,2,0,0,0,1.84,2,1.73,1.73,0,0,0,1.15-.45,2.14,2.14,0,0,0,.69-1.59A2.09,2.09,0,0,0,198.47,116.78Zm-.38,2.86a1,1,0,0,1-.63.22,1.29,1.29,0,0,1-1.18-1.38,1.53,1.53,0,0,1,.26-.86l0,0a1.21,1.21,0,0,1,.44-.38h0a1,1,0,0,1,.45-.11,1,1,0,0,1,.58.18,1.5,1.5,0,0,1,.05,2.36ZM171.65,85.93a2.05,2.05,0,1,0,1.84,2A2,2,0,0,0,171.65,85.93Zm0,3.42A1.4,1.4,0,1,1,172.83,88,1.29,1.29,0,0,1,171.65,89.35Zm0-3.42a2.05,2.05,0,1,0,1.84,2A2,2,0,0,0,171.65,85.93Zm0,3.42A1.4,1.4,0,1,1,172.83,88,1.29,1.29,0,0,1,171.65,89.35Zm26.82,27.43a1.64,1.64,0,0,0-1-.34,1.79,1.79,0,0,0-.75.17,1.87,1.87,0,0,0-.7.62l0,0a.63.63,0,0,1-.07.12,2.19,2.19,0,0,0-.29,1.09h0a2,2,0,0,0,1.84,2,1.73,1.73,0,0,0,1.15-.45,2.14,2.14,0,0,0,.69-1.59A2.09,2.09,0,0,0,198.47,116.78Zm-.38,2.86a1,1,0,0,1-.63.22,1.29,1.29,0,0,1-1.18-1.38,1.53,1.53,0,0,1,.26-.86l0,0a1.21,1.21,0,0,1,.44-.38h0a1,1,0,0,1,.45-.11,1,1,0,0,1,.58.18,1.5,1.5,0,0,1,.05,2.36Zm25.64-33.72a2.05,2.05,0,1,0,1.84,2A1.95,1.95,0,0,0,223.73,85.92Zm0,3.42A1.4,1.4,0,1,1,224.9,88,1.29,1.29,0,0,1,223.73,89.34Zm0-3.42a2.05,2.05,0,1,0,1.84,2A1.95,1.95,0,0,0,223.73,85.92Zm0,3.42A1.4,1.4,0,1,1,224.9,88,1.29,1.29,0,0,1,223.73,89.34Zm-25.26,27.44a1.64,1.64,0,0,0-1-.34,1.79,1.79,0,0,0-.75.17,1.87,1.87,0,0,0-.7.62l0,0a.63.63,0,0,1-.07.12,2.19,2.19,0,0,0-.29,1.09h0a2,2,0,0,0,1.84,2,1.73,1.73,0,0,0,1.15-.45,2.14,2.14,0,0,0,.69-1.59A2.09,2.09,0,0,0,198.47,116.78Zm-.38,2.86a1,1,0,0,1-.63.22,1.29,1.29,0,0,1-1.18-1.38,1.53,1.53,0,0,1,.26-.86l0,0a1.21,1.21,0,0,1,.44-.38h0a1,1,0,0,1,.45-.11,1,1,0,0,1,.58.18,1.5,1.5,0,0,1,.05,2.36ZM171.65,85.93a2.05,2.05,0,1,0,1.84,2A2,2,0,0,0,171.65,85.93Zm0,3.42A1.4,1.4,0,1,1,172.83,88,1.29,1.29,0,0,1,171.65,89.35Zm-9.09-21.26v70.26h70.26V68.09Zm69.6,69.6H163.22V68.75h68.94ZM223.73,90a2.05,2.05,0,1,0-1.84-2A1.95,1.95,0,0,0,223.73,90Zm0-3.42A1.4,1.4,0,1,1,222.55,88,1.29,1.29,0,0,1,223.73,86.58Zm-26.27,33.94a1.73,1.73,0,0,0,1.15-.45,2.14,2.14,0,0,0,.69-1.59,2.09,2.09,0,0,0-.83-1.7,1.64,1.64,0,0,0-1-.34,1.79,1.79,0,0,0-.75.17,1.87,1.87,0,0,0-.7.62l0,0a.63.63,0,0,1-.07.12,2.19,2.19,0,0,0-.29,1.09h0A2,2,0,0,0,197.46,120.52Zm-.46-3.31h0a1,1,0,0,1,.45-.11,1,1,0,0,1,.58.18,1.5,1.5,0,0,1,.05,2.36,1,1,0,0,1-.63.22,1.29,1.29,0,0,1-1.18-1.38,1.53,1.53,0,0,1,.26-.86l0,0A1.21,1.21,0,0,1,197,117.21ZM171.65,90a2.05,2.05,0,1,0-1.84-2A2,2,0,0,0,171.65,90Zm0-3.42A1.4,1.4,0,1,1,170.47,88,1.29,1.29,0,0,1,171.65,86.59Zm0-.66a2.05,2.05,0,1,0,1.84,2A2,2,0,0,0,171.65,85.93Zm0,3.42A1.4,1.4,0,1,1,172.83,88,1.29,1.29,0,0,1,171.65,89.35Zm26.82,27.43a1.64,1.64,0,0,0-1-.34,1.79,1.79,0,0,0-.75.17,1.87,1.87,0,0,0-.7.62l0,0a.63.63,0,0,1-.07.12,2.19,2.19,0,0,0-.29,1.09h0a2,2,0,0,0,1.84,2,1.73,1.73,0,0,0,1.15-.45,2.14,2.14,0,0,0,.69-1.59A2.09,2.09,0,0,0,198.47,116.78Zm-.38,2.86a1,1,0,0,1-.63.22,1.29,1.29,0,0,1-1.18-1.38,1.53,1.53,0,0,1,.26-.86l0,0a1.21,1.21,0,0,1,.44-.38h0a1,1,0,0,1,.45-.11,1,1,0,0,1,.58.18,1.5,1.5,0,0,1,.05,2.36Zm25.64-33.72a2.05,2.05,0,1,0,1.84,2A1.95,1.95,0,0,0,223.73,85.92Zm0,3.42A1.4,1.4,0,1,1,224.9,88,1.29,1.29,0,0,1,223.73,89.34Zm0-3.42a2.05,2.05,0,1,0,1.84,2A1.95,1.95,0,0,0,223.73,85.92Zm0,3.42A1.4,1.4,0,1,1,224.9,88,1.29,1.29,0,0,1,223.73,89.34Zm-25.26,27.44a1.64,1.64,0,0,0-1-.34,1.79,1.79,0,0,0-.75.17,1.87,1.87,0,0,0-.7.62l0,0a.63.63,0,0,1-.07.12,2.19,2.19,0,0,0-.29,1.09h0a2,2,0,0,0,1.84,2,1.73,1.73,0,0,0,1.15-.45,2.14,2.14,0,0,0,.69-1.59A2.09,2.09,0,0,0,198.47,116.78Zm-.38,2.86a1,1,0,0,1-.63.22,1.29,1.29,0,0,1-1.18-1.38,1.53,1.53,0,0,1,.26-.86l0,0a1.21,1.21,0,0,1,.44-.38h0a1,1,0,0,1,.45-.11,1,1,0,0,1,.58.18,1.5,1.5,0,0,1,.05,2.36ZM171.65,85.93a2.05,2.05,0,1,0,1.84,2A2,2,0,0,0,171.65,85.93Zm0,3.42A1.4,1.4,0,1,1,172.83,88,1.29,1.29,0,0,1,171.65,89.35Zm0-3.42a2.05,2.05,0,1,0,1.84,2A2,2,0,0,0,171.65,85.93Zm0,3.42A1.4,1.4,0,1,1,172.83,88,1.29,1.29,0,0,1,171.65,89.35Zm26.82,27.43a1.64,1.64,0,0,0-1-.34,1.79,1.79,0,0,0-.75.17,1.87,1.87,0,0,0-.7.62l0,0a.63.63,0,0,1-.07.12,2.19,2.19,0,0,0-.29,1.09h0a2,2,0,0,0,1.84,2,1.73,1.73,0,0,0,1.15-.45,2.14,2.14,0,0,0,.69-1.59A2.09,2.09,0,0,0,198.47,116.78Zm-.38,2.86a1,1,0,0,1-.63.22,1.29,1.29,0,0,1-1.18-1.38,1.53,1.53,0,0,1,.26-.86l0,0a1.21,1.21,0,0,1,.44-.38h0a1,1,0,0,1,.45-.11,1,1,0,0,1,.58.18,1.5,1.5,0,0,1,.05,2.36Zm25.64-33.72a2.05,2.05,0,1,0,1.84,2A1.95,1.95,0,0,0,223.73,85.92Zm0,3.42A1.4,1.4,0,1,1,224.9,88,1.29,1.29,0,0,1,223.73,89.34Zm0-3.42a2.05,2.05,0,1,0,1.84,2A1.95,1.95,0,0,0,223.73,85.92Zm0,3.42A1.4,1.4,0,1,1,224.9,88,1.29,1.29,0,0,1,223.73,89.34Zm-25.26,27.44a1.64,1.64,0,0,0-1-.34,1.79,1.79,0,0,0-.75.17,1.87,1.87,0,0,0-.7.62l0,0a.63.63,0,0,1-.07.12,2.19,2.19,0,0,0-.29,1.09h0a2,2,0,0,0,1.84,2,1.73,1.73,0,0,0,1.15-.45,2.14,2.14,0,0,0,.69-1.59A2.09,2.09,0,0,0,198.47,116.78Zm-.38,2.86a1,1,0,0,1-.63.22,1.29,1.29,0,0,1-1.18-1.38,1.53,1.53,0,0,1,.26-.86l0,0a1.21,1.21,0,0,1,.44-.38h0a1,1,0,0,1,.45-.11,1,1,0,0,1,.58.18,1.5,1.5,0,0,1,.05,2.36ZM171.65,85.93a2.05,2.05,0,1,0,1.84,2A2,2,0,0,0,171.65,85.93Zm0,3.42A1.4,1.4,0,1,1,172.83,88,1.29,1.29,0,0,1,171.65,89.35Zm52.08-3.43a2.05,2.05,0,1,0,1.84,2A1.95,1.95,0,0,0,223.73,85.92Zm0,3.42A1.4,1.4,0,1,1,224.9,88,1.29,1.29,0,0,1,223.73,89.34Zm-25.26,27.44a1.64,1.64,0,0,0-1-.34,1.79,1.79,0,0,0-.75.17,1.87,1.87,0,0,0-.7.62l0,0a.63.63,0,0,1-.07.12,2.19,2.19,0,0,0-.29,1.09h0a2,2,0,0,0,1.84,2,1.73,1.73,0,0,0,1.15-.45,2.14,2.14,0,0,0,.69-1.59A2.09,2.09,0,0,0,198.47,116.78Zm-.38,2.86a1,1,0,0,1-.63.22,1.29,1.29,0,0,1-1.18-1.38,1.53,1.53,0,0,1,.26-.86l0,0a1.21,1.21,0,0,1,.44-.38h0a1,1,0,0,1,.45-.11,1,1,0,0,1,.58.18,1.5,1.5,0,0,1,.05,2.36ZM171.65,85.93a2.05,2.05,0,1,0,1.84,2A2,2,0,0,0,171.65,85.93Zm0,3.42A1.4,1.4,0,1,1,172.83,88,1.29,1.29,0,0,1,171.65,89.35Zm52.08-3.43a2.05,2.05,0,1,0,1.84,2A1.95,1.95,0,0,0,223.73,85.92Zm0,3.42A1.4,1.4,0,1,1,224.9,88,1.29,1.29,0,0,1,223.73,89.34Zm-25.26,27.44a1.64,1.64,0,0,0-1-.34,1.79,1.79,0,0,0-.75.17,1.87,1.87,0,0,0-.7.62l0,0a.63.63,0,0,1-.07.12,2.19,2.19,0,0,0-.29,1.09h0a2,2,0,0,0,1.84,2,1.73,1.73,0,0,0,1.15-.45,2.14,2.14,0,0,0,.69-1.59A2.09,2.09,0,0,0,198.47,116.78Zm-.38,2.86a1,1,0,0,1-.63.22,1.29,1.29,0,0,1-1.18-1.38,1.53,1.53,0,0,1,.26-.86l0,0a1.21,1.21,0,0,1,.44-.38h0a1,1,0,0,1,.45-.11,1,1,0,0,1,.58.18,1.5,1.5,0,0,1,.05,2.36ZM171.65,85.93a2.05,2.05,0,1,0,1.84,2A2,2,0,0,0,171.65,85.93Zm0,3.42A1.4,1.4,0,1,1,172.83,88,1.29,1.29,0,0,1,171.65,89.35Zm52.08-3.43a2.05,2.05,0,1,0,1.84,2A1.95,1.95,0,0,0,223.73,85.92Zm0,3.42A1.4,1.4,0,1,1,224.9,88,1.29,1.29,0,0,1,223.73,89.34Zm-25.26,27.44a1.64,1.64,0,0,0-1-.34,1.79,1.79,0,0,0-.75.17,1.87,1.87,0,0,0-.7.62l0,0a.63.63,0,0,1-.07.12,2.19,2.19,0,0,0-.29,1.09h0a2,2,0,0,0,1.84,2,1.73,1.73,0,0,0,1.15-.45,2.14,2.14,0,0,0,.69-1.59A2.09,2.09,0,0,0,198.47,116.78Zm-.38,2.86a1,1,0,0,1-.63.22,1.29,1.29,0,0,1-1.18-1.38,1.53,1.53,0,0,1,.26-.86l0,0a1.21,1.21,0,0,1,.44-.38h0a1,1,0,0,1,.45-.11,1,1,0,0,1,.58.18,1.5,1.5,0,0,1,.05,2.36ZM171.65,85.93a2.05,2.05,0,1,0,1.84,2A2,2,0,0,0,171.65,85.93Zm0,3.42A1.4,1.4,0,1,1,172.83,88,1.29,1.29,0,0,1,171.65,89.35Zm52.08-3.43a2.05,2.05,0,1,0,1.84,2A1.95,1.95,0,0,0,223.73,85.92Zm0,3.42A1.4,1.4,0,1,1,224.9,88,1.29,1.29,0,0,1,223.73,89.34Zm-25.26,27.44a1.64,1.64,0,0,0-1-.34,1.79,1.79,0,0,0-.75.17,1.87,1.87,0,0,0-.7.62l0,0a.63.63,0,0,1-.07.12,2.19,2.19,0,0,0-.29,1.09h0a2,2,0,0,0,1.84,2,1.73,1.73,0,0,0,1.15-.45,2.14,2.14,0,0,0,.69-1.59A2.09,2.09,0,0,0,198.47,116.78Zm-.38,2.86a1,1,0,0,1-.63.22,1.29,1.29,0,0,1-1.18-1.38,1.53,1.53,0,0,1,.26-.86l0,0a1.21,1.21,0,0,1,.44-.38h0a1,1,0,0,1,.45-.11,1,1,0,0,1,.58.18,1.5,1.5,0,0,1,.05,2.36ZM171.65,85.93a2.05,2.05,0,1,0,1.84,2A2,2,0,0,0,171.65,85.93Zm0,3.42A1.4,1.4,0,1,1,172.83,88,1.29,1.29,0,0,1,171.65,89.35Zm52.08-3.43a2.05,2.05,0,1,0,1.84,2A1.95,1.95,0,0,0,223.73,85.92Zm0,3.42A1.4,1.4,0,1,1,224.9,88,1.29,1.29,0,0,1,223.73,89.34Zm-25.26,27.44a1.64,1.64,0,0,0-1-.34,1.79,1.79,0,0,0-.75.17,1.87,1.87,0,0,0-.7.62l0,0a.63.63,0,0,1-.07.12,2.19,2.19,0,0,0-.29,1.09h0a2,2,0,0,0,1.84,2,1.73,1.73,0,0,0,1.15-.45,2.14,2.14,0,0,0,.69-1.59A2.09,2.09,0,0,0,198.47,116.78Zm-.38,2.86a1,1,0,0,1-.63.22,1.29,1.29,0,0,1-1.18-1.38,1.53,1.53,0,0,1,.26-.86l0,0a1.21,1.21,0,0,1,.44-.38h0a1,1,0,0,1,.45-.11,1,1,0,0,1,.58.18,1.5,1.5,0,0,1,.05,2.36ZM171.65,85.93a2.05,2.05,0,1,0,1.84,2A2,2,0,0,0,171.65,85.93Zm0,3.42A1.4,1.4,0,1,1,172.83,88,1.29,1.29,0,0,1,171.65,89.35Zm52.08-3.43a2.05,2.05,0,1,0,1.84,2A1.95,1.95,0,0,0,223.73,85.92Zm0,3.42A1.4,1.4,0,1,1,224.9,88,1.29,1.29,0,0,1,223.73,89.34Zm-25.26,27.44a1.64,1.64,0,0,0-1-.34,1.79,1.79,0,0,0-.75.17,1.87,1.87,0,0,0-.7.62l0,0a.63.63,0,0,1-.07.12,2.19,2.19,0,0,0-.29,1.09h0a2,2,0,0,0,1.84,2,1.73,1.73,0,0,0,1.15-.45,2.14,2.14,0,0,0,.69-1.59A2.09,2.09,0,0,0,198.47,116.78Zm-.38,2.86a1,1,0,0,1-.63.22,1.29,1.29,0,0,1-1.18-1.38,1.53,1.53,0,0,1,.26-.86l0,0a1.21,1.21,0,0,1,.44-.38h0a1,1,0,0,1,.45-.11,1,1,0,0,1,.58.18,1.5,1.5,0,0,1,.05,2.36ZM171.65,85.93a2.05,2.05,0,1,0,1.84,2A2,2,0,0,0,171.65,85.93Zm0,3.42A1.4,1.4,0,1,1,172.83,88,1.29,1.29,0,0,1,171.65,89.35Zm52.08-3.43a2.05,2.05,0,1,0,1.84,2A1.95,1.95,0,0,0,223.73,85.92Zm0,3.42A1.4,1.4,0,1,1,224.9,88,1.29,1.29,0,0,1,223.73,89.34Zm-25.26,27.44a1.64,1.64,0,0,0-1-.34,1.79,1.79,0,0,0-.75.17,1.87,1.87,0,0,0-.7.62l0,0a.63.63,0,0,1-.07.12,2.19,2.19,0,0,0-.29,1.09h0a2,2,0,0,0,1.84,2,1.73,1.73,0,0,0,1.15-.45,2.14,2.14,0,0,0,.69-1.59A2.09,2.09,0,0,0,198.47,116.78Zm-.38,2.86a1,1,0,0,1-.63.22,1.29,1.29,0,0,1-1.18-1.38,1.53,1.53,0,0,1,.26-.86l0,0a1.21,1.21,0,0,1,.44-.38h0a1,1,0,0,1,.45-.11,1,1,0,0,1,.58.18,1.5,1.5,0,0,1,.05,2.36ZM171.65,85.93a2.05,2.05,0,1,0,1.84,2A2,2,0,0,0,171.65,85.93Zm0,3.42A1.4,1.4,0,1,1,172.83,88,1.29,1.29,0,0,1,171.65,89.35Zm26.82,27.43a1.64,1.64,0,0,0-1-.34,1.79,1.79,0,0,0-.75.17,1.87,1.87,0,0,0-.7.62l0,0a.63.63,0,0,1-.07.12,2.19,2.19,0,0,0-.29,1.09h0a2,2,0,0,0,1.84,2,1.73,1.73,0,0,0,1.15-.45,2.14,2.14,0,0,0,.69-1.59A2.09,2.09,0,0,0,198.47,116.78Zm-.38,2.86a1,1,0,0,1-.63.22,1.29,1.29,0,0,1-1.18-1.38,1.53,1.53,0,0,1,.26-.86l0,0a1.21,1.21,0,0,1,.44-.38h0a1,1,0,0,1,.45-.11,1,1,0,0,1,.58.18,1.5,1.5,0,0,1,.05,2.36ZM171.65,85.93a2.05,2.05,0,1,0,1.84,2A2,2,0,0,0,171.65,85.93Zm0,3.42A1.4,1.4,0,1,1,172.83,88,1.29,1.29,0,0,1,171.65,89.35Zm52.08-3.43a2.05,2.05,0,1,0,1.84,2A1.95,1.95,0,0,0,223.73,85.92Zm0,3.42A1.4,1.4,0,1,1,224.9,88,1.29,1.29,0,0,1,223.73,89.34Z"/><path d="M163.22,68.75v68.94h68.94V68.75ZM192.93,117l-20.6-24.5a2.27,2.27,0,0,0,2.56-1.15l19.61,23.33A2.09,2.09,0,0,0,192.93,117Zm11.46-2.67-2.56,3a2.24,2.24,0,0,0-1.32-2.6l1.83-2.14,18.2-21.33a3.76,3.76,0,0,0,2.39,1.36Zm20-23.28-.11,0a3,3,0,0,1-2.7-1l-.15-.21a2.59,2.59,0,0,1-.19-.31l-.09-.19H208l-3.7,9.34h3.6v2h-9.38v14.92l.2.08a1.2,1.2,0,0,1,.34.21l.11.07.14.12a3.32,3.32,0,0,1,1,3,3,3,0,0,1-2.88,2.58,3,3,0,0,1-2.89-2.62v-.09a3.26,3.26,0,0,1,1.1-2.88l.26-.19a1.58,1.58,0,0,1,.27-.16l.2-.08V100.67H187v-2h3.3l-2.9-1.78.53-.87,2.73,1.67-3.31-8.36H174.29l-.09.18a1.85,1.85,0,0,1-.21.33l-.16.21a3,3,0,0,1-2.69,1h0l-.1,0a3.1,3.1,0,0,1-2.31-3,3,3,0,0,1,2.93-3.13,2.88,2.88,0,0,1,2.55,1.62l.09.17h14.9l4,10.18.88-3,1,.3-1.23,4.06-.26.49.57,0h7.23l4.77-12h14.9l.09-.18a2.9,2.9,0,0,1,2.56-1.62A3,3,0,0,1,226.65,88,3.08,3.08,0,0,1,224.35,91Z"/><path d="M198.64,118.48a1.43,1.43,0,0,1-.55,1.16,1,1,0,0,1-.63.22,1.29,1.29,0,0,1-1.18-1.38,1.53,1.53,0,0,1,.26-.86l0,0a1.21,1.21,0,0,1,.44-.38h0a1,1,0,0,1,.45-.11,1,1,0,0,1,.58.18A1.44,1.44,0,0,1,198.64,118.48Z"/><path d="M273.89,132a1.59,1.59,0,0,1-.5-.1,1.2,1.2,0,0,1-.43-.26.5.5,0,0,1-.17-.37,1,1,0,0,1,0-.15l3.3-10.77a.76.76,0,0,1,.43-.45,1.69,1.69,0,0,1,1.39,0,.76.76,0,0,1,.43.45l3.29,10.77a.49.49,0,0,1,0,.15.51.51,0,0,1-.17.36,1.37,1.37,0,0,1-.44.27,1.53,1.53,0,0,1-.5.1.76.76,0,0,1-.38-.09.43.43,0,0,1-.22-.28l-.68-2.36h-4.12l-.67,2.36a.36.36,0,0,1-.22.28A.86.86,0,0,1,273.89,132Zm1.68-4.14h3.32l-1.66-5.7Z"/><path d="M293.56,132.12a4.45,4.45,0,0,1-1.84-.37,2.81,2.81,0,0,1-1.33-1.18,4,4,0,0,1-.5-2.16v-4.83a4,4,0,0,1,.5-2.16,2.89,2.89,0,0,1,1.34-1.18,5,5,0,0,1,3.83,0,3.18,3.18,0,0,1,1.31,1.07,2.59,2.59,0,0,1,.48,1.55,1,1,0,0,1-.22.74,1,1,0,0,1-.66.17,1.19,1.19,0,0,1-.64-.14.54.54,0,0,1-.25-.44,2.92,2.92,0,0,0-.08-.51,1.62,1.62,0,0,0-.26-.59,1.25,1.25,0,0,0-.57-.48,2.32,2.32,0,0,0-1.05-.19,2,2,0,0,0-1.47.52,2.21,2.21,0,0,0-.52,1.62v4.83a2.21,2.21,0,0,0,.53,1.62,2,2,0,0,0,1.51.53,2.18,2.18,0,0,0,1-.2,1.33,1.33,0,0,0,.56-.48,2,2,0,0,0,.25-.61c0-.22.07-.41.09-.59a.53.53,0,0,1,.26-.45,1.23,1.23,0,0,1,.61-.13,1,1,0,0,1,.68.18,1,1,0,0,1,.22.73,2.77,2.77,0,0,1-.48,1.6,3.15,3.15,0,0,1-1.32,1.11A4.71,4.71,0,0,1,293.56,132.12Z"/><path d="M301.61,132a1,1,0,0,1-.53-.15.5.5,0,0,1-.25-.43v-11a.46.46,0,0,1,.28-.43,1.38,1.38,0,0,1,1.21,0,.46.46,0,0,1,.28.43v10h4.31a.43.43,0,0,1,.4.24,1.09,1.09,0,0,1,.14.54,1.1,1.1,0,0,1-.14.53.44.44,0,0,1-.4.25Z"/><path d="M314,132.12a4.81,4.81,0,0,1-1.93-.37,2.83,2.83,0,0,1-1.36-1.18,4.11,4.11,0,0,1-.5-2.16v-8a.45.45,0,0,1,.27-.43,1.34,1.34,0,0,1,.61-.14,1.39,1.39,0,0,1,.6.14.44.44,0,0,1,.28.43v8a2.17,2.17,0,0,0,.54,1.62,2,2,0,0,0,1.49.53,2.1,2.1,0,0,0,1.5-.53,2.17,2.17,0,0,0,.54-1.62v-8a.45.45,0,0,1,.27-.43,1.34,1.34,0,0,1,.61-.14,1.36,1.36,0,0,1,.6.14.45.45,0,0,1,.29.43v8a4,4,0,0,1-.51,2.16,2.9,2.9,0,0,1-1.37,1.18A4.81,4.81,0,0,1,314,132.12Z"/><path d="M322.55,132a.92.92,0,0,1-.57-.17.49.49,0,0,1-.21-.4v-11A.48.48,0,0,1,322,120a1,1,0,0,1,.53-.15h3a5.5,5.5,0,0,1,1.66.24,2.34,2.34,0,0,1,1.23.85,3,3,0,0,1,.47,1.79,3.57,3.57,0,0,1-.38,1.73,2.1,2.1,0,0,1-1,1,3,3,0,0,1,.9.52,2.22,2.22,0,0,1,.6.87,3.83,3.83,0,0,1,.22,1.38v.32a4.12,4.12,0,0,1-.44,2,2.58,2.58,0,0,1-1.18,1.11,4.14,4.14,0,0,1-1.69.34Zm1-7.28h2a1.64,1.64,0,0,0,1.26-.43,1.8,1.8,0,0,0,.4-1.28,1.73,1.73,0,0,0-.2-.91,1.24,1.24,0,0,0-.59-.52,2.29,2.29,0,0,0-.9-.16h-2Zm0,5.72h2.08A1.87,1.87,0,0,0,327,130a2.14,2.14,0,0,0,.49-1.57v-.27a2,2,0,0,0-.49-1.54,1.94,1.94,0,0,0-1.38-.45h-2.08Z"/><path d="M338.84,132a1.33,1.33,0,0,1-.6-.14.46.46,0,0,1-.28-.44v-11a.5.5,0,0,1,.25-.43,1,1,0,0,1,.53-.15h5.83a.48.48,0,0,1,.44.25,1.21,1.21,0,0,1,.13.52,1.1,1.1,0,0,1-.14.55.48.48,0,0,1-.43.25h-4.85v3.8h2.58a.45.45,0,0,1,.42.22.83.83,0,0,1,.14.49.87.87,0,0,1-.13.46.46.46,0,0,1-.43.23h-2.58v4.8a.47.47,0,0,1-.27.44A1.37,1.37,0,0,1,338.84,132Z"/><path d="M351.37,132.12a4.59,4.59,0,0,1-1.89-.37,2.81,2.81,0,0,1-1.33-1.18,4.21,4.21,0,0,1-.49-2.16v-4.83a4.21,4.21,0,0,1,.49-2.16,2.87,2.87,0,0,1,1.33-1.18,5.06,5.06,0,0,1,3.8,0,2.89,2.89,0,0,1,1.34,1.18,4,4,0,0,1,.5,2.16v4.83a4,4,0,0,1-.5,2.16,2.83,2.83,0,0,1-1.34,1.18A4.68,4.68,0,0,1,351.37,132.12Zm0-1.56a2,2,0,0,0,1.46-.53,2.17,2.17,0,0,0,.53-1.62v-4.83a2.21,2.21,0,0,0-.52-1.62,2,2,0,0,0-1.45-.52,2,2,0,0,0-1.46.52,2.21,2.21,0,0,0-.52,1.62v4.83a2.25,2.25,0,0,0,.51,1.62A2,2,0,0,0,351.37,130.56Z"/><path d="M365.57,132.07a.6.6,0,0,1-.39-.15,1.36,1.36,0,0,1-.29-.37l-2.44-4.75h-1.66v4.64a.47.47,0,0,1-.28.43,1.21,1.21,0,0,1-.6.15,1.28,1.28,0,0,1-.61-.15.48.48,0,0,1-.27-.43v-11a.54.54,0,0,1,.16-.4.57.57,0,0,1,.44-.17h3.15a5.75,5.75,0,0,1,1.91.31,2.79,2.79,0,0,1,1.38,1,3.52,3.52,0,0,1,.52,2,4,4,0,0,1-.31,1.66,2.7,2.7,0,0,1-.83,1.06,3.54,3.54,0,0,1-1.19.57l2.33,4.37a.89.89,0,0,1,.05.13.57.57,0,0,1,0,.12.65.65,0,0,1-.16.42,1.23,1.23,0,0,1-.41.34A1,1,0,0,1,365.57,132.07Zm-4.78-6.68h2a2.3,2.3,0,0,0,1.49-.45,2.37,2.37,0,0,0,0-3.06,2.3,2.3,0,0,0-1.49-.44h-2Z"/><path d="M378.78,132.12a1.65,1.65,0,0,1-.69-.15.72.72,0,0,1-.42-.45l-3.31-10.77a.49.49,0,0,1,0-.15.51.51,0,0,1,.17-.37,1.64,1.64,0,0,1,.43-.26,1.58,1.58,0,0,1,.49-.1.82.82,0,0,1,.4.09.42.42,0,0,1,.22.28l2.74,9.47,2.72-9.47a.48.48,0,0,1,.24-.28.76.76,0,0,1,.38-.09,1.53,1.53,0,0,1,.5.1,1.75,1.75,0,0,1,.42.26.48.48,0,0,1,.17.37v.07a.19.19,0,0,0,0,.08l-3.29,10.77a.77.77,0,0,1-.42.45A1.71,1.71,0,0,1,378.78,132.12Z"/><path d="M387.15,132a1,1,0,0,1-.53-.15.48.48,0,0,1-.25-.43v-11a.44.44,0,0,1,.28-.43,1.33,1.33,0,0,1,.6-.14,1.37,1.37,0,0,1,.61.14.45.45,0,0,1,.27.43v10h4.32a.43.43,0,0,1,.4.24,1.08,1.08,0,0,1,.13.54,1.09,1.09,0,0,1-.13.53.44.44,0,0,1-.4.25Z"/><path d="M399.16,132.15a5.38,5.38,0,0,1-1.91-.32,3.62,3.62,0,0,1-1.29-.77,1.27,1.27,0,0,1-.47-.87,1,1,0,0,1,.11-.42,1.44,1.44,0,0,1,.28-.37.59.59,0,0,1,.38-.16.69.69,0,0,1,.44.19c.13.13.3.28.5.46a3,3,0,0,0,.75.47,2.89,2.89,0,0,0,1.15.2,2.83,2.83,0,0,0,1.07-.2,1.58,1.58,0,0,0,.74-.58,1.63,1.63,0,0,0,.28-1,1.77,1.77,0,0,0-.29-1,2.52,2.52,0,0,0-.78-.7,8,8,0,0,0-1.06-.51l-1.14-.5a5.41,5.41,0,0,1-1.07-.64,2.88,2.88,0,0,1-.77-1,3.21,3.21,0,0,1-.29-1.44,3,3,0,0,1,.34-1.52,2.68,2.68,0,0,1,.91-1,3.81,3.81,0,0,1,1.24-.53,6.3,6.3,0,0,1,1.35-.16,8,8,0,0,1,.92.06,6.43,6.43,0,0,1,1,.2,3,3,0,0,1,.8.37.7.7,0,0,1,.31.57,1.23,1.23,0,0,1-.32.78.55.55,0,0,1-.41.17,1,1,0,0,1-.48-.16,4.55,4.55,0,0,0-.69-.32,3.44,3.44,0,0,0-1.12-.15,3.21,3.21,0,0,0-1.07.16,1.61,1.61,0,0,0-.74.49,1.3,1.3,0,0,0-.27.86,1.32,1.32,0,0,0,.29.87,2.44,2.44,0,0,0,.77.58c.33.16.68.31,1.06.46a12.52,12.52,0,0,1,1.15.5,5.77,5.77,0,0,1,1.06.71,3,3,0,0,1,.78,1.06,3.84,3.84,0,0,1,.29,1.58,3.69,3.69,0,0,1-.49,2,3,3,0,0,1-1.35,1.17A4.81,4.81,0,0,1,399.16,132.15Z"/><path d="M407.32,132a1.4,1.4,0,0,1-.61-.14.47.47,0,0,1-.27-.44v-11a.45.45,0,0,1,.27-.43,1.4,1.4,0,0,1,1.22,0,.45.45,0,0,1,.27.43v11a.47.47,0,0,1-.27.44A1.4,1.4,0,0,1,407.32,132Z"/><path d="M418.18,132a1,1,0,0,1-.53-.15.5.5,0,0,1-.25-.43v-11a.5.5,0,0,1,.25-.43,1,1,0,0,1,.53-.15h5.92a.48.48,0,0,1,.45.25,1.21,1.21,0,0,1,.13.52,1,1,0,0,1-.15.55.48.48,0,0,1-.43.25h-4.94v3.8h2.56a.48.48,0,0,1,.43.22.84.84,0,0,1,.15.49.87.87,0,0,1-.13.46.49.49,0,0,1-.45.23h-2.56v3.82h4.94a.47.47,0,0,1,.43.23,1,1,0,0,1,.15.56,1.21,1.21,0,0,1-.13.52.48.48,0,0,1-.45.25Z"/><path d="M428.8,132a1.28,1.28,0,0,1-.61-.15.48.48,0,0,1-.27-.43v-11a.46.46,0,0,1,.27-.44,1.4,1.4,0,0,1,.61-.14,1.27,1.27,0,0,1,.54.1,1.14,1.14,0,0,1,.41.3,4.55,4.55,0,0,1,.38.6l3.69,7.19v-7.62a.45.45,0,0,1,.27-.43,1.38,1.38,0,0,1,1.21,0,.44.44,0,0,1,.28.43v11a.47.47,0,0,1-.28.43,1.21,1.21,0,0,1-.6.15,1.11,1.11,0,0,1-.6-.17,1.31,1.31,0,0,1-.45-.48l-4-7.56v7.63a.48.48,0,0,1-.27.43A1.28,1.28,0,0,1,428.8,132Z"/><path d="M442.72,132a1.28,1.28,0,0,1-.61-.15.48.48,0,0,1-.27-.43v-10h-2.57a.48.48,0,0,1-.42-.25,1.1,1.1,0,0,1-.15-.57,1.14,1.14,0,0,1,.13-.55.48.48,0,0,1,.44-.25h6.89a.48.48,0,0,1,.45.25,1.12,1.12,0,0,1,.13.53,1.22,1.22,0,0,1-.14.59.49.49,0,0,1-.44.25H443.6v10a.48.48,0,0,1-.27.43A1.28,1.28,0,0,1,442.72,132Z"/><path d="M450.74,132a1.33,1.33,0,0,1-.6-.14.46.46,0,0,1-.28-.44v-11a.44.44,0,0,1,.28-.43,1.33,1.33,0,0,1,.6-.14,1.37,1.37,0,0,1,.61.14.45.45,0,0,1,.27.43V125h4.14v-4.58A.45.45,0,0,1,456,120a1.4,1.4,0,0,1,1.22,0,.45.45,0,0,1,.27.43v11a.47.47,0,0,1-.27.44,1.4,1.4,0,0,1-1.22,0,.47.47,0,0,1-.27-.44v-5h-4.14v5a.47.47,0,0,1-.27.44A1.37,1.37,0,0,1,450.74,132Z"/><path d="M465.3,132.12a4.78,4.78,0,0,1-1.93-.37,2.79,2.79,0,0,1-1.36-1.18,4,4,0,0,1-.5-2.16v-8a.45.45,0,0,1,.26-.43,1.4,1.4,0,0,1,1.22,0,.46.46,0,0,1,.28.43v8a2.21,2.21,0,0,0,.53,1.62,2.37,2.37,0,0,0,3,0,2.13,2.13,0,0,0,.55-1.62v-8a.45.45,0,0,1,.27-.43,1.31,1.31,0,0,1,.61-.14,1.39,1.39,0,0,1,.6.14.44.44,0,0,1,.28.43v8a4,4,0,0,1-.51,2.16,2.81,2.81,0,0,1-1.37,1.18A4.76,4.76,0,0,1,465.3,132.12Z"/><path d="M476.13,132.15a5.35,5.35,0,0,1-1.91-.32,3.58,3.58,0,0,1-1.3-.77,1.27,1.27,0,0,1-.47-.87,1,1,0,0,1,.11-.42,1.48,1.48,0,0,1,.29-.37.56.56,0,0,1,.37-.16.69.69,0,0,1,.44.19l.51.46a2.94,2.94,0,0,0,.74.47,2.89,2.89,0,0,0,1.15.2,2.76,2.76,0,0,0,1.07-.2,1.56,1.56,0,0,0,.75-.58,2,2,0,0,0,0-2,2.31,2.31,0,0,0-.78-.7,8.51,8.51,0,0,0-1.05-.51l-1.15-.5a5.33,5.33,0,0,1-1.06-.64,2.91,2.91,0,0,1-.78-1,3.21,3.21,0,0,1-.29-1.44,3.14,3.14,0,0,1,.34-1.52,2.68,2.68,0,0,1,.91-1,3.87,3.87,0,0,1,1.25-.53,6.21,6.21,0,0,1,1.34-.16,7.72,7.72,0,0,1,.92.06,6.43,6.43,0,0,1,1,.2,2.83,2.83,0,0,1,.8.37.7.7,0,0,1,.31.57,1,1,0,0,1-.08.39,1,1,0,0,1-.24.39.53.53,0,0,1-.41.17,1,1,0,0,1-.48-.16,3.79,3.79,0,0,0-.69-.32,3.4,3.4,0,0,0-1.12-.15,3.25,3.25,0,0,0-1.07.16,1.66,1.66,0,0,0-.74.49,1.3,1.3,0,0,0-.26.86,1.27,1.27,0,0,0,.29.87,2.33,2.33,0,0,0,.77.58c.32.16.67.31,1.05.46a10.53,10.53,0,0,1,1.15.5,5.45,5.45,0,0,1,1.06.71,2.9,2.9,0,0,1,.78,1.06,4.36,4.36,0,0,1-.2,3.57,3,3,0,0,1-1.34,1.17A4.81,4.81,0,0,1,476.13,132.15Z"/><path d="M484.28,132a1.33,1.33,0,0,1-.6-.14.46.46,0,0,1-.28-.44v-11a.44.44,0,0,1,.28-.43,1.33,1.33,0,0,1,.6-.14,1.37,1.37,0,0,1,.61.14.45.45,0,0,1,.27.43v11a.47.47,0,0,1-.27.44A1.37,1.37,0,0,1,484.28,132Z"/><path d="M489.42,132a1.59,1.59,0,0,1-.5-.1,1.2,1.2,0,0,1-.43-.26.5.5,0,0,1-.17-.37,1,1,0,0,1,0-.15l3.3-10.77a.76.76,0,0,1,.43-.45,1.58,1.58,0,0,1,.69-.15,1.63,1.63,0,0,1,.7.15.76.76,0,0,1,.43.45l3.28,10.77a.34.34,0,0,1,0,.15.48.48,0,0,1-.18.36,1.32,1.32,0,0,1-.43.27,1.54,1.54,0,0,1-.51.1.75.75,0,0,1-.37-.09.43.43,0,0,1-.22-.28l-.68-2.36H490.7l-.67,2.36a.38.38,0,0,1-.22.28A.86.86,0,0,1,489.42,132Zm1.67-4.14h3.33l-1.66-5.7Z"/><path d="M503.42,132.15a5.35,5.35,0,0,1-1.91-.32,3.67,3.67,0,0,1-1.3-.77,1.25,1.25,0,0,1-.46-.87.88.88,0,0,1,.11-.42,1.25,1.25,0,0,1,.28-.37.58.58,0,0,1,.37-.16.65.65,0,0,1,.44.19l.51.46a3,3,0,0,0,.75.47,2.88,2.88,0,0,0,1.14.2,2.85,2.85,0,0,0,1.08-.2,1.58,1.58,0,0,0,.74-.58,1.63,1.63,0,0,0,.28-1,1.77,1.77,0,0,0-.29-1,2.52,2.52,0,0,0-.78-.7,8,8,0,0,0-1.06-.51l-1.15-.5a5.64,5.64,0,0,1-1.06-.64,2.76,2.76,0,0,1-.77-1,3.21,3.21,0,0,1-.29-1.44,3,3,0,0,1,.34-1.52,2.75,2.75,0,0,1,.9-1,4,4,0,0,1,1.25-.53,6.22,6.22,0,0,1,1.35-.16,8,8,0,0,1,.92.06,6.68,6.68,0,0,1,1,.2,2.76,2.76,0,0,1,.79.37.71.71,0,0,1,.32.57,1.29,1.29,0,0,1-.08.39,1.14,1.14,0,0,1-.25.39.53.53,0,0,1-.4.17,1,1,0,0,1-.48-.16,4.55,4.55,0,0,0-.69-.32,3.48,3.48,0,0,0-1.12-.15,3.31,3.31,0,0,0-1.08.16,1.72,1.72,0,0,0-.74.49,1.36,1.36,0,0,0-.26.86,1.32,1.32,0,0,0,.29.87,2.33,2.33,0,0,0,.77.58c.32.16.67.31,1.06.46a11.29,11.29,0,0,1,1.14.5,5.52,5.52,0,0,1,1.07.71,3.14,3.14,0,0,1,.78,1.06,3.84,3.84,0,0,1,.29,1.58,3.78,3.78,0,0,1-.49,2,3.07,3.07,0,0,1-1.35,1.17A4.81,4.81,0,0,1,503.42,132.15Z"/><path d="M513.75,132a1.21,1.21,0,0,1-.6-.15.47.47,0,0,1-.28-.43v-10H510.3a.48.48,0,0,1-.42-.25,1.1,1.1,0,0,1-.15-.57,1.15,1.15,0,0,1,.14-.55.45.45,0,0,1,.43-.25h6.89a.48.48,0,0,1,.45.25,1.23,1.23,0,0,1,0,1.12.48.48,0,0,1-.44.25h-2.56v10a.48.48,0,0,1-.27.43A1.23,1.23,0,0,1,513.75,132Z"/><path d="M523.82,132.15a5.35,5.35,0,0,1-1.91-.32,3.67,3.67,0,0,1-1.3-.77,1.25,1.25,0,0,1-.46-.87,1,1,0,0,1,.11-.42,1.25,1.25,0,0,1,.28-.37.58.58,0,0,1,.37-.16.65.65,0,0,1,.44.19l.51.46a3,3,0,0,0,.75.47,2.88,2.88,0,0,0,1.14.2,2.85,2.85,0,0,0,1.08-.2,1.58,1.58,0,0,0,.74-.58,1.63,1.63,0,0,0,.28-1,1.77,1.77,0,0,0-.29-1,2.52,2.52,0,0,0-.78-.7,8,8,0,0,0-1.06-.51l-1.15-.5a5.64,5.64,0,0,1-1.06-.64,2.76,2.76,0,0,1-.77-1,3.21,3.21,0,0,1-.29-1.44,3,3,0,0,1,.34-1.52,2.75,2.75,0,0,1,.9-1,4,4,0,0,1,1.25-.53,6.22,6.22,0,0,1,1.35-.16,8,8,0,0,1,.92.06,6.68,6.68,0,0,1,1,.2,2.76,2.76,0,0,1,.79.37.71.71,0,0,1,.32.57,1.23,1.23,0,0,1-.32.78.57.57,0,0,1-.41.17,1,1,0,0,1-.48-.16,4.55,4.55,0,0,0-.69-.32,3.48,3.48,0,0,0-1.12-.15,3.31,3.31,0,0,0-1.08.16,1.63,1.63,0,0,0-.73.49,1.3,1.3,0,0,0-.27.86,1.32,1.32,0,0,0,.29.87,2.33,2.33,0,0,0,.77.58c.32.16.68.31,1.06.46a11.29,11.29,0,0,1,1.14.5,5.52,5.52,0,0,1,1.07.71,3.14,3.14,0,0,1,.78,1.06,3.84,3.84,0,0,1,.29,1.58,3.69,3.69,0,0,1-.49,2,3.07,3.07,0,0,1-1.35,1.17A4.81,4.81,0,0,1,523.82,132.15Z"/><path d="M416.3,76.68q-.94,2.86-2,5.87t-2.08,5.91c-.7,1.94-1.38,3.81-2.07,5.6l-.84,2.15,2.46,6.19q2.43-5.4,4.7-11.19,2.82-7.26,5.35-14.53ZM406.18,94c-.42-1.1-.84-2.22-1.25-3.37l-.81-2.23c-.69-1.93-1.36-3.89-2.05-5.89l-2-5.87h-5.71q2.48,7.26,5.32,14.53t5.94,13.91h5L408,98.65C407.43,97.25,406.82,95.71,406.18,94Z"/><polygon class="cls-5" points="428.86 86.17 423.01 83.29 428.94 80.5 434.88 83.2 428.86 86.17"/><path class="cls-6" d="M432.79,84.34l.08,3.71s-3.36,2.85-7.9,0V84.34"/><line class="cls-7" x1="434.87" y1="83.2" x2="434.87" y2="88.7"/><circle class="cls-5" cx="434.87" cy="89.48" r="0.74"/><rect x="425.54" y="91.15" width="6.64" height="13.32"/><polygon points="286.42 87.13 289.6 77.67 299.38 77.67 299.38 76.03 288.42 76.03 284.86 86.6 286.42 87.13"/><polygon points="277.9 87.13 279.45 86.6 275.89 76.03 264.93 76.03 264.93 77.67 274.72 77.67 277.9 87.13"/><rect x="274.14" y="86.06" width="15.7" height="1.64"/><rect x="281.17" y="86.88" width="1.64" height="13.91"/><polygon points="278.14 87.16 278.14 87.13 279.17 87.13 280.51 81.89 279.45 81.62 278.34 85.96 274.98 83.53 274.34 84.42 278.14 87.16"/><path d="M280.2,101.13a2.23,2.23,0,0,0-.46,1.36.19.19,0,0,0,0,.08,1.52,1.52,0,0,0,0,.27l.18.25,1.28-1-.84-1.18h0l0,.06Z"/><path d="M263.49,80l15.43,21.61a2.22,2.22,0,0,1,.78-1.71L265.18,79.58A2.67,2.67,0,0,1,263.49,80Z"/><path d="M262.76,79l0,0h0s0,0,0,0l.15,0,.13,0h.05l.28,0a2.28,2.28,0,0,0,1.21-.35h0l-.45-.62Z"/><path d="M299.6,78.9a2.22,2.22,0,0,0,1.5.57h.11l.24-.34-1.32-1Z"/><path d="M284.31,100a2.12,2.12,0,0,1,.74,1.77L300.7,80.17a2,2,0,0,1-1.61-.57Z"/><path d="M282.78,102.13l1.32,1,.1-.13v0h0a.89.89,0,0,0,0-.22,2,2,0,0,0,0-.61,1.27,1.27,0,0,0-.06-.28,1.69,1.69,0,0,0-.1-.27s0,0,0,0a1.6,1.6,0,0,0-.11-.19,1.87,1.87,0,0,0-.29-.39Z"/><path d="M279.74,102.49a.19.19,0,0,0,0,.08,1.52,1.52,0,0,0,0,.27,2.25,2.25,0,0,0,4.43.12v0a1.43,1.43,0,0,0,0-.22,2,2,0,0,0,0-.61,1.27,1.27,0,0,0-.06-.28,1.69,1.69,0,0,0-.1-.27s0,0,0,0a1.6,1.6,0,0,0-.11-.19,1.87,1.87,0,0,0-.29-.39h0a2,2,0,0,0-.81-.54,2,2,0,0,0-.81-.16,2.23,2.23,0,0,0-.83.16,2.1,2.1,0,0,0-.78.52l-.05,0-.14.17a1.2,1.2,0,0,0-.13.21,3.17,3.17,0,0,0-.17.38,2.37,2.37,0,0,0-.13.54.22.22,0,0,1,0,.08S279.74,102.44,279.74,102.49Zm1.44,0a.82.82,0,0,1,.82-.81.81.81,0,1,1,0,1.62A.82.82,0,0,1,281.18,102.49Z"/><path d="M261.16,76.9a2.26,2.26,0,0,0,1.63,2.17h0s0,0,0,0l.15,0,.13,0h.05l.28,0,.33,0a2.38,2.38,0,0,0,.82-.3l.06,0a0,0,0,0,0,0,0,2.23,2.23,0,0,0,.9-1.13,2.19,2.19,0,0,0,.14-.77,2.12,2.12,0,0,0-.18-.87,2.26,2.26,0,0,0-4.34.87Zm1.44,0a.82.82,0,0,1,.82-.81.81.81,0,0,1,.81.81.82.82,0,0,1-.81.82A.82.82,0,0,1,262.6,76.9Z"/><path d="M298.84,77.21a2.31,2.31,0,0,0,.05.46,2.19,2.19,0,0,0,.71,1.23,2,2,0,0,0,.72.43,1.29,1.29,0,0,0,.28.08s0,0,0,0a1.09,1.09,0,0,0,.26,0l.13,0h.22a2.27,2.27,0,1,0-2.38-2.26Zm2.26.82a.82.82,0,0,1-.82-.82.82.82,0,0,1,.82-.81.81.81,0,0,1,.81.81A.82.82,0,0,1,301.1,78Z"/><circle cx="373.39" cy="82.64" r="1.54"/><circle cx="369.41" cy="99.35" r="1.5"/><polygon points="374.27 105.09 364.29 105.09 364.29 74.28 374.27 74.28 374.27 79.89 369.9 79.89 369.9 98.33 368.45 98.33 368.45 78.44 372.83 78.44 372.83 75.72 365.73 75.72 365.73 103.65 372.83 103.65 372.83 83.33 374.27 83.33 374.27 105.09"/><text class="cls-8" transform="translate(437.68 104.75)">rtuosos</text><polygon points="331.51 105.43 307.23 105.43 307.23 94.6 308.67 94.6 308.67 103.98 330.07 103.98 330.07 101.26 311.62 101.26 311.62 90.72 307.23 90.72 307.23 75.72 308.67 75.72 308.67 89.27 313.06 89.27 313.06 99.81 331.51 99.81 331.51 105.43"/><polygon points="328.59 96.86 315.79 96.86 315.79 76.22 312.84 76.22 312.84 84.94 311.4 84.94 311.4 74.77 317.23 74.77 317.23 95.42 328.59 95.42 328.59 96.86"/><circle cx="329.7" cy="96.3" r="1.54"/><circle cx="308.07" cy="93.86" r="1.54"/><circle cx="312.24" cy="85.45" r="1.54"/><circle cx="307.87" cy="76.59" r="1.54"/></svg>